<?xml version="1.0" encoding="UTF-8"?>
<svg width="29px" height="20px" viewBox="0 0 29 20" version="1.1" xmlns="http://www.w3.org/2000/svg" xmlns:xlink="http://www.w3.org/1999/xlink">
    <!-- Generator: Sketch 44.1 (41455) - http://www.bohemiancoding.com/sketch -->
    <title>送达</title>
    <desc>Created with Sketch.</desc>
    <defs></defs>
    <g id="Page-1" stroke="none" stroke-width="1" fill="none" fill-rule="evenodd" stroke-linecap="round" stroke-linejoin="round">
        <g id="eat首页" transform="translate(-289.000000, -602.000000)" stroke="#666666">
            <g id="提示标签" transform="translate(54.000000, 597.000000)">
                <g id="2小时送达" transform="translate(236.000000, 0.000000)">
                    <g id="送达" transform="translate(0.000000, 6.000000)">
                        <path d="M21.525,12.7232143 C19.978,12.7232143 18.725,13.9392143 18.725,15.4375 C18.725,16.9357857 19.978,18.1517857 21.525,18.1517857 C23.072,18.1517857 24.325,16.9357857 24.325,15.4375 C24.325,13.9392143 23.072,12.7232143 21.525,12.7232143 Z" id="Stroke-1"></path>
                        <path d="M6.125,12.7232143 C4.578,12.7232143 3.325,13.9392143 3.325,15.4375 C3.325,16.9357857 4.578,18.1517857 6.125,18.1517857 C7.672,18.1517857 8.925,16.9357857 8.925,15.4375 C8.925,13.9392143 7.672,12.7232143 6.125,12.7232143 Z" id="Stroke-3"></path>
                        <polyline id="Stroke-5" points="25.9 14.9285714 26.6 14.9285714 26.6 7.92978571 23.9232 0 0 0 0 14.9285714 1.7 14.9285714"></polyline>
                        <path d="M16.6,14.5 L11,14.5" id="Stroke-7"></path>
                        <polyline id="Path-4" points="16 3 16 8 21 8"></polyline>
                    </g>
                </g>
            </g>
        </g>
    </g>
</svg>