<?xml version="1.0" encoding="UTF-8"?>
<svg width="46px" height="46px" viewBox="0 0 46 46" version="1.1" xmlns="http://www.w3.org/2000/svg" xmlns:xlink="http://www.w3.org/1999/xlink">
    <!-- Generator: Sketch 44.1 (41455) - http://www.bohemiancoding.com/sketch -->
    <title>eat_nor</title>
    <desc>Created with Sketch.</desc>
    <defs></defs>
    <g id="icon" stroke="none" stroke-width="1" fill="none" fill-rule="evenodd" stroke-linecap="round" stroke-linejoin="round">
        <g id="优集客icon规范" transform="translate(-121.000000, -403.000000)" stroke="#4B4B4B" stroke-width="3">
            <polyline id="Path-5" points="126.8125 432.234321 126.8125 444.234321 160.8125 444.234321 160.8125 432.234321"></polyline>
            <path d="M129.816592,408.234321 C125.813864,415.567654 123.8125,420.234321 123.8125,422.234321 C123.8125,425.234321 124.817193,428.234321 129.816592,428.234321 C134.81599,428.234321 135.815869,424.234321 136.815749,424.234321 C137.815629,424.234321 139.815388,428.234321 143.814907,428.234321 C147.814425,428.234321 149.814185,424.234321 150.814064,424.234321 C151.813944,424.234321 152.813824,428.234321 157.813222,428.234321 C162.81262,428.234321 163.8125,425.234321 163.8125,422.234321 C163.8125,420.234321 161.812741,415.567654 157.813222,408.234321 L129.816592,408.234321 Z" id="Path-6"></path>
        </g>
    </g>
</svg>