<?xml version="1.0" encoding="UTF-8"?>
<svg width="101px" height="36px" viewBox="0 0 101 36" version="1.1" xmlns="http://www.w3.org/2000/svg" xmlns:xlink="http://www.w3.org/1999/xlink">
    <!-- Generator: Sketch 46.1 (44463) - http://www.bohemiancoding.com/sketch -->
    <title>eat 说</title>
    <desc>Created with Sketch.</desc>
    <defs></defs>
    <g id="Page-1" stroke="none" stroke-width="1" fill="none" fill-rule="evenodd">
        <g id="eat首页" transform="translate(-326.000000, -5211.000000)" fill="#444444">
            <g id="eat-说" transform="translate(324.000000, 5211.000000)">
                <g id="说" transform="translate(62.000000, 0.000000)">
                    <path d="M3.6265191,6.95973737 C4.69205843,7.55818434 5.48856404,8.35471212 6.08605843,9.42406818 C7.05071011,11.1502677 9.67839551,9.59832323 8.71144045,7.86791919 C7.87531685,6.37156818 6.64485618,5.1307601 5.16102472,4.29732576 C3.44777753,3.33541919 1.91235056,5.99736364 3.6265191,6.95973737" id="Fill-1"></path>
                    <path d="M1.90889551,14.9472992 C4.08972697,14.603928 6.16506404,14.5768321 8.35833371,14.8206957 C10.300536,15.0360619 10.2857944,11.951327 8.35833371,11.7368952 C5.88865955,11.4631326 3.5507382,11.5883346 1.10041236,11.9742184 C-0.827048315,12.2774129 -0.00843033708,15.2490922 1.90889551,14.9472992" id="Fill-3"></path>
                    <path d="M7.0271236,12.9221098 C5.86438202,19.7544962 4.66064045,26.705077 4.97666292,33.6645341 C5.06603371,35.6402033 8.10740449,35.6514154 8.01665169,33.6645341 C7.71306742,26.9704306 8.84033708,20.3141679 9.95885393,13.7419962 C10.289618,11.8013649 7.36019101,10.9674634 7.0271236,12.9221098" id="Fill-5"></path>
                    <path d="M7.75457416,34.9969078 C9.18542809,33.2473497 10.8949899,31.9159104 12.9297876,30.9628801 C14.7043045,30.1317816 13.1615067,27.4731073 11.395282,28.3004684 C9.15824831,29.3488018 7.17827079,30.8932715 5.60460787,32.8166174 C4.36401236,34.3330568 6.50338315,36.5259609 7.75457416,34.9969078" id="Fill-7"></path>
                    <path d="M16.0790944,3.86612626 C17.3823416,5.02798232 18.3824652,6.37063384 19.1352067,7.95621465 C19.9833079,9.74361364 22.6054652,8.18139141 21.7601281,6.39959848 C20.9092629,4.60612626 19.703218,2.9999899 18.2290607,1.68583586 C16.7645775,0.380558081 14.6063191,2.55290657 16.0790944,3.86612626" id="Fill-10"></path>
                    <path d="M24.4998955,1.56698737 C24.1207607,3.13154545 23.7416258,4.69657071 23.3620303,6.26112879 C22.8953674,8.18774495 25.8266371,9.00996717 26.2942213,7.08101515 C26.6733562,5.5159899 27.052491,3.95143182 27.4316258,2.38640657 C27.8987494,0.459790404 24.9679404,-0.361964646 24.4998955,1.56698737" id="Fill-12"></path>
                    <path d="M19.4586,20.0633902 C19.2568247,24.4314457 18.3138247,28.6574811 16.5876787,32.6686174 C15.8128247,34.4695644 18.4317573,36.0411301 19.2130607,34.2247664 C21.162173,29.6946023 22.2705551,25.0037311 22.4990494,20.0633902 C22.5911843,18.079779 19.5502742,18.0844508 19.4586,20.0633902" id="Fill-15"></path>
                    <path d="M13.3483562,10.9553636 C13.6118618,13.6490758 13.9490753,16.3334444 14.3530865,19.009404 C14.647918,20.9645177 17.578727,20.1338864 17.2848169,18.1895177 C16.9218056,15.7859192 16.6255921,13.3753131 16.3888056,10.9553636 C16.1976258,8.99931566 13.154873,8.97922727 13.3483562,10.9553636" id="Fill-17"></path>
                    <path d="M16.5420258,13.3833485 C20.1638461,12.7886389 23.8054753,12.3588409 27.4669135,12.1173131 C27.946936,12.0855455 29.8591944,11.7164798 30.0959809,11.9752929 C29.2395876,11.0376793 29.2759809,13.7696995 29.2713742,13.923399 C29.2197787,15.7785379 29.1677225,17.6341439 29.116127,19.4892828 C29.0608461,21.4742955 32.1008348,21.4724268 32.1565764,19.4892828 C32.2293629,16.8796616 32.4629247,14.2139798 32.376318,11.6038914 C32.3261045,10.0696995 31.8999809,9.06995202 30.2802506,8.9017702 C27.9897787,8.66351263 25.3726888,9.16759091 23.0946551,9.40631566 C20.6314303,9.66466162 18.1783404,10.0089672 15.7335427,10.4102677 C13.8070034,10.7265429 14.6247,13.6982222 16.5420258,13.3833485" id="Fill-19"></path>
                    <path d="M16.7719022,21.4598598 C20.9465315,21.2337487 25.1202393,21.0071705 29.2944079,20.7805922 C31.2407562,20.6750114 31.2531944,17.5912109 29.2944079,17.6972588 C25.1202393,17.9238371 20.9465315,18.1504154 16.7719022,18.3765265 C14.8255539,18.4821073 14.8135764,21.566375 16.7719022,21.4598598" id="Fill-21"></path>
                    <path d="M23.9910809,23.8771465 C24.0053618,27.3281439 22.9596315,32.3264141 26.6381146,34.1894949 C28.2071708,34.9836869 30.0397326,34.9930303 31.7506764,35.0065783 C34.2037663,35.0261995 36.6582382,34.9995707 39.1117888,34.9958333 C41.0678112,34.9930303 41.0714966,31.909697 39.1117888,31.9125 C36.033564,31.9171717 32.7968674,32.2100884 29.7384517,31.8484975 C27.6783169,31.605101 27.1043169,31.0061869 27.0527213,28.919798 C27.0117213,27.24125 27.0384404,25.5561616 27.031991,23.8771465 C27.0232382,21.8935354 23.9827888,21.889798 23.9910809,23.8771465" id="Fill-23"></path>
                </g>
                <path d="M14.3789063,32.7773437 L9.40625,32.4804687 L5.9921875,32.4804687 L5.32421875,32.3320312 C5.17578051,32.4804695 5.00260516,32.5670572 4.8046875,32.5917969 C4.60676984,32.6165366 4.38411582,32.6289062 4.13671875,32.6289062 L3.39453125,32.2578125 C3.24609301,32.0104154 3.134766,31.7506524 3.06054688,31.4785156 C2.98632775,31.2063788 2.94921875,30.9218765 2.94921875,30.625 L3.46875,24.3164062 L3.46875,20.4570312 C3.1223941,17.8841017 2.91210975,15.2988411 2.83789062,12.7011719 C2.7636715,10.1035026 2.57812648,7.51824203 2.28125,4.9453125 L2.65234375,4.203125 C2.85026141,4.05468676 3.06054576,3.94335975 3.28320312,3.86914063 C3.50586049,3.7949215 3.74088418,3.78255184 3.98828125,3.83203125 C5.72006074,4.22786656 7.45181426,4.57421727 9.18359375,4.87109375 L14.3789063,5.76171875 C14.5273445,5.95963641 14.6386715,6.16992076 14.7128906,6.39257812 C14.7871097,6.61523549 14.7994794,6.85025918 14.75,7.09765625 L14.3789063,7.83984375 C14.0820298,8.03776141 13.7727881,8.16145809 13.4511719,8.2109375 C13.1295557,8.26041691 12.7708353,8.28515625 12.375,8.28515625 C11.2369735,8.13671801 10.0865944,7.95117299 8.92382813,7.72851562 C7.76106189,7.50585826 6.61068277,7.29557391 5.47265625,7.09765625 L5.47265625,8.28515625 L5.84375,14.9648437 C7.47657066,15.3606791 9.09699717,15.7688781 10.7050781,16.1894531 C12.3131591,16.6100281 13.9088463,17.0182272 15.4921875,17.4140625 C15.6406257,17.6119802 15.7519528,17.8222645 15.8261719,18.0449219 C15.900391,18.2675792 15.9127607,18.5026029 15.8632813,18.75 L15.4921875,19.4921875 C15.2942698,19.6406257 15.0839855,19.7519528 14.8613281,19.8261719 C14.6386708,19.900391 14.3789077,19.9127607 14.0820313,19.8632812 C12.7460871,19.6653636 11.4225326,19.3808612 10.1113281,19.0097656 C8.80012365,18.63867 7.47656918,18.2799496 6.140625,17.9335937 L6.06640625,18.0820312 L6.36328125,20.4570312 L6.36328125,24.3164062 L5.9921875,29.5859375 L9.40625,29.5859375 C10.5442765,29.6848963 11.7070253,29.7467447 12.8945313,29.7714844 C14.0820372,29.7962241 15.2200466,29.9570298 16.3085938,30.2539062 C16.457032,30.4518239 16.568359,30.6621083 16.6425781,30.8847656 C16.7167972,31.107423 16.7291669,31.367186 16.6796875,31.6640625 L16.3085938,32.40625 C16.0611967,32.6041677 15.7643246,32.7154947 15.4179688,32.7402344 C15.0716129,32.7649741 14.7252621,32.7773437 14.3789063,32.7773437 Z M35.7539062,31.6640625 L35.0117188,31.2929687 C34.6158834,30.0559834 34.2447934,28.7942773 33.8984375,27.5078125 C33.5520816,26.2213477 33.1562522,24.9596416 32.7109375,23.7226563 C31.6223904,23.6236974 30.5338596,23.5618491 29.4453125,23.5371094 C28.3567654,23.5123697 27.2682346,23.425782 26.1796875,23.2773438 C25.882811,24.5143291 25.5735693,25.7389262 25.2519531,26.9511719 C24.9303369,28.1634175 24.5963559,29.3632753 24.25,30.5507812 C24.0520823,30.6992195 23.841798,30.8105465 23.6191406,30.8847656 C23.3964833,30.9589847 23.1614596,30.9713544 22.9140625,30.921875 L22.171875,30.5507812 C22.0729162,30.402343 21.9863285,30.2415373 21.9121094,30.0683594 C21.8378903,29.8951814 21.7760419,29.7096364 21.7265625,29.5117187 C22.6666714,25.8997215 23.5449178,22.2506695 24.3613281,18.5644531 C25.1777385,14.8782368 26.2786389,11.3034027 27.6640625,7.83984375 L27.8125,7.83984375 C27.8125,7.64192609 27.849609,7.45638107 27.9238281,7.28320312 C27.9980472,7.11002518 28.0846349,6.94921949 28.1835938,6.80078125 C28.3815114,6.65234301 28.5917958,6.541016 28.8144531,6.46679688 C29.0371105,6.39257775 29.2721342,6.38020809 29.5195313,6.4296875 L30.2617188,6.80078125 C31.3502659,9.0768343 32.2285123,11.4518105 32.8964844,13.9257812 C33.5644565,16.399752 34.3190062,18.8489462 35.1601562,21.2734375 L35.3085938,21.3476562 C35.457032,21.5455739 35.568359,21.7558583 35.6425781,21.9785156 C35.7167972,22.201173 35.7291669,22.4361967 35.6796875,22.6835938 L35.6054688,23.203125 C36.0013041,24.3906309 36.3723941,25.5904887 36.71875,26.8027344 C37.0651059,28.01498 37.3124993,29.2643165 37.4609375,30.5507812 L37.0898438,31.2929687 C36.8919261,31.441407 36.6816417,31.552734 36.4589844,31.6269531 C36.236327,31.7011722 36.0013033,31.7135419 35.7539062,31.6640625 Z M31.8203125,20.6796875 L31.8203125,20.4570312 C31.3255184,19.0221282 30.89258,17.5748771 30.5214844,16.1152344 C30.1503888,14.6555917 29.6927111,13.2330798 29.1484375,11.8476562 C28.7031228,13.2330798 28.2949237,14.643222 27.9238281,16.078125 C27.5527325,17.513028 27.2434908,18.9726488 26.9960938,20.4570312 L31.8203125,20.6796875 Z M47.6289062,32.2578125 C47.4309886,32.2083331 47.2454436,32.1464847 47.0722656,32.0722656 C46.8990877,31.9980465 46.738282,31.9114588 46.5898438,31.8125 C46.4414055,31.6145823 46.3300785,31.404298 46.2558594,31.1816406 C46.1816403,30.9589833 46.1692706,30.7239596 46.21875,30.4765625 C46.3177088,29.9817684 46.3795572,29.4622423 46.4042969,28.9179688 C46.4290366,28.3736952 46.4661456,27.8294298 46.515625,27.2851563 L46.515625,23.7226563 C46.3671868,20.9518091 46.2434901,18.1810034 46.1445312,15.4101563 C46.0455724,12.6393091 45.8723971,9.86850344 45.625,7.09765625 C44.78385,6.94921801 43.9303429,6.81315166 43.0644531,6.68945312 C42.1985634,6.56575459 41.3697956,6.3307309 40.578125,5.984375 C40.4296868,5.78645734 40.3183597,5.57617299 40.2441406,5.35351562 C40.1699215,5.13085826 40.1575518,4.89583457 40.2070312,4.6484375 L40.578125,3.90625 C40.7760427,3.75781176 40.986327,3.64648475 41.2089844,3.57226562 C41.4316417,3.4980465 41.6666654,3.48567684 41.9140625,3.53515625 C44.1901155,3.98047098 46.5032435,4.32682168 48.8535156,4.57421875 C51.2037878,4.82161582 53.4921764,5.24218453 55.71875,5.8359375 C55.8671882,6.03385516 55.9785153,6.24413951 56.0527344,6.46679688 C56.1269535,6.68945424 56.1393232,6.92447793 56.0898438,7.171875 L55.71875,7.9140625 C55.5208323,8.06250074 55.310548,8.17382775 55.0878906,8.24804688 C54.8652333,8.322266 54.6054702,8.33463566 54.3085938,8.28515625 C53.3684849,8.08723859 52.4160204,7.92643291 51.4511719,7.80273438 C50.4863233,7.67903584 49.5338589,7.56770883 48.59375,7.46875 L48.59375,7.6171875 C48.7916677,10.2890759 48.9401037,12.9732938 49.0390625,15.6699219 C49.1380213,18.3665499 49.261718,21.0507679 49.4101562,23.7226563 L49.4101562,27.2851563 C49.3111974,28.0273475 49.2617188,28.7942669 49.2617188,29.5859375 C49.2617188,30.3776081 49.0885434,31.1197882 48.7421875,31.8125 C48.5937493,31.9609382 48.4205739,32.0598956 48.2226562,32.109375 L47.6289062,32.2578125 Z" id="EAT"></path>
            </g>
        </g>
    </g>
</svg>