<?xml version="1.0" encoding="UTF-8"?>
<svg width="141px" height="36px" viewBox="0 0 141 36" version="1.1" xmlns="http://www.w3.org/2000/svg" xmlns:xlink="http://www.w3.org/1999/xlink">
    <!-- Generator: Sketch 46.1 (44463) - http://www.bohemiancoding.com/sketch -->
    <title>新品发现</title>
    <desc>Created with Sketch.</desc>
    <defs></defs>
    <g id="Page-1" stroke="none" stroke-width="1" fill="none" fill-rule="evenodd">
        <g id="eat首页" transform="translate(-306.000000, -659.000000)" fill="#444444">
            <g id="新品发现" transform="translate(303.000000, 657.000000)">
                <g id="现" transform="translate(111.000000, 6.000000)">
                    <path d="M1.30552428,6.60241253 C4.12018175,6.39640433 6.93483921,6.19039612 9.74949668,5.98475254 C11.4834329,5.85786607 11.4972001,3.12215004 9.74949668,3.25013036 C6.93483921,3.45577394 4.12018175,3.66178215 1.30552428,3.86779035 C-0.428049658,3.99467682 -0.441816807,6.73039285 1.30552428,6.60241253" id="Fill-1"></path>
                    <path d="M2.64894446,13.515422 C4.84444249,13.0807993 7.04211429,12.9243789 9.2771023,13.0035007 C11.0258926,13.0654854 11.0233565,10.3308633 9.2771023,10.2688785 C6.80046459,10.1813706 4.35752016,10.3972234 1.9268937,10.8785169 C0.212521311,11.2179747 0.938195002,13.8541505 2.64894446,13.515422" id="Fill-3"></path>
                    <path d="M3.67814756,4.83937732 C4.08101783,11.0681174 4.30419057,17.3048791 4.34730348,23.54711 C4.35962146,25.3060189 7.076822,25.3100297 7.06450402,23.54711 C7.02139111,17.3048791 6.79821837,11.0681174 6.3953481,4.83937732 C6.28195027,3.09213605 3.56438744,3.07937448 3.67814756,4.83937732" id="Fill-5"></path>
                    <path d="M2.1882884,26.5785663 C5.58696283,24.912999 8.98599955,23.2477964 12.3850363,21.5822292 C13.9566651,20.8121596 12.581037,18.4530922 11.0133934,19.2209741 C7.61471902,20.8865413 4.21568229,22.5517439 0.817007858,24.2173112 C-0.754983227,24.9873808 0.621007126,27.3464482 2.1882884,26.5785663" id="Fill-7"></path>
                    <path d="M12.0562209,2.64759587 C12.3047542,5.96925028 12.5529252,9.29054007 12.8018207,12.6121945 C12.9318841,14.3561542 15.6501715,14.3703742 15.5190213,12.6121945 C15.2701257,9.29054007 15.0219547,5.96925028 14.7734215,2.64759587 C14.6429958,0.903636152 11.9247084,0.889416117 12.0562209,2.64759587" id="Fill-9"></path>
                    <path d="M14.338923,3.09391507 C16.256542,2.8036805 18.1937248,2.6826279 20.1327191,2.74789421 C20.8181782,2.77086504 21.5039996,2.81425438 22.1869227,2.88097916 C23.2752521,2.98744712 24.1219318,2.80550359 24.5635674,3.82387689 C24.8570251,4.50169857 24.6026951,5.96782067 24.603782,6.71309637 C24.6048689,7.43540124 24.5994345,8.15807073 24.5871165,8.8803756 C24.5541478,10.8070081 24.4675597,12.7310882 24.3447422,14.6537099 C24.2327936,16.4107959 26.9507187,16.4042328 27.0619428,14.6537099 C27.2307715,12.0098772 27.3246055,9.36276296 27.3209826,6.71309637 C27.3188088,5.01179676 27.7162447,2.50761208 26.3199659,1.22088119 C25.033462,0.0344197778 22.4394412,0.131772327 20.8185405,0.0428059525 C18.4016812,-0.089549761 16.0061972,0.0953106984 13.6165099,0.457010059 C11.8934425,0.717710706 12.6256375,3.35315725 14.338923,3.09391507" id="Fill-11"></path>
                    <path d="M18.3740361,6.29784248 C17.4827943,13.1132502 15.87711,19.8076053 13.6497301,26.3039737 C13.0783934,27.9709994 15.7021222,28.6871058 16.269836,27.0310186 C18.5816302,20.289628 20.1666639,13.3662939 21.0912366,6.29784248 C21.3191192,4.55825816 18.5993826,4.57539512 18.3740361,6.29784248" id="Fill-13"></path>
                    <path d="M19.0610893,16.4978374 C18.9498652,18.8189847 18.9495029,21.1569043 19.185356,23.4711239 C19.3404175,24.9963139 19.711406,26.5554131 21.1750713,27.3112627 C22.762641,28.1305555 24.8860427,27.5274802 26.5511432,27.2704257 C28.9882909,26.893777 29.3306945,26.363625 31.7105999,25.7175249 C33.397438,25.2599314 32.6815462,22.6208387 30.9885491,23.0806199 C28.0380317,23.8813172 26.5493317,25.0152739 23.4723738,24.9394337 C22.1887683,24.9077121 22.0779065,24.5813805 21.9025565,23.4711239 C21.7945931,22.7892915 21.7906078,22.0699035 21.7580014,21.3822372 C21.6815575,19.7534962 21.7003968,18.1262137 21.7782898,16.4978374 C21.8623419,14.7385638 19.1451414,14.7433038 19.0610893,16.4978374 L19.0610893,16.4978374 Z" id="Fill-15"></path>
                </g>
                <g id="发" transform="translate(78.000000, 4.000000)">
                    <path d="M0.0136113264,5.84320222 C-0.137881967,9.78909111 0.940642623,13.4550467 5.47582891,13.9665578 C10.8449973,14.5721356 16.6017425,13.8105356 21.8920882,12.8932911 C23.6438736,12.5895578 22.9014027,9.96778 21.1561538,10.27038 C17.0512238,10.9824911 12.9016918,11.3553578 8.73178122,11.35838 C7.1211076,11.3598911 4.67414486,11.6587133 3.54294367,10.2847356 C2.57323279,9.10795778 2.72780209,7.26138 2.78163219,5.84320222 C2.84891982,4.09258 0.080514456,4.09560222 0.0136113264,5.84320222" id="Fill-1"></path>
                    <path d="M9.93480715,0.974175556 C7.76968346,10.2444644 5.35886379,19.4561978 2.70311714,28.6025756 C2.21364769,30.2889756 4.88400537,31.00902 5.37270581,29.3256422 C8.02806796,20.1792644 10.4392721,10.9675311 12.6043958,1.69724222 C13.0027386,-0.00653555556 10.3339189,-0.733757778 9.93480715,0.974175556" id="Fill-3"></path>
                    <path d="M9.01296662,20.1421289 C11.9920784,19.8587956 14.9711902,19.5750844 17.9503019,19.2913733 C19.7074703,19.1240178 19.7251574,16.4025067 17.9503019,16.5713733 C14.9711902,16.8547067 11.9920784,17.1384178 9.01296662,17.4221289 C7.25541371,17.5894844 7.23772668,20.3109956 9.01296662,20.1421289" id="Fill-5"></path>
                    <path d="M17.2151365,17.9359822 C14.392901,22.7707822 11.263065,27.4110267 7.82985782,31.8476489 C6.75171773,33.2408933 9.15484739,34.5974933 10.220299,33.2204933 C13.6531216,28.7834933 16.7837267,24.1436267 19.6055776,19.3088267 C20.4933899,17.7878933 18.1025642,16.4161822 17.2151365,17.9359822" id="Fill-7"></path>
                    <path d="M7.7637237,23.6644533 C12.2450799,26.0289644 16.7264361,28.3938533 21.2077923,30.7587422 C22.7769398,31.5868311 24.176907,29.23932 22.605068,28.4100978 C18.1233273,26.0452089 13.6423556,23.68032 9.1609994,21.3158089 C7.59185186,20.48772 6.19188465,22.8348533 7.7637237,23.6644533" id="Fill-9"></path>
                    <path d="M16.5178444,2.98221556 C17.1484256,4.14539333 18.0024018,5.19637111 19.0274808,6.04674889 C19.5984644,6.52010444 20.425141,6.59679333 20.9849741,6.04674889 C21.4798265,5.56054889 21.5586492,4.59948222 20.9849741,4.12348222 C20.1206164,3.40646 19.4400501,2.59008222 18.90867,1.60937111 C18.5572364,0.961482222 17.6417401,0.76126 17.0146194,1.12166 C16.3471261,1.50510444 16.1652572,2.33168222 16.5178444,2.98221556" id="Fill-12"></path>
                </g>
                <path d="M29.4648438,37.0820312 L28.7226562,36.7109375 C28.2278621,34.4843639 27.8815114,32.208345 27.6835938,29.8828125 C27.4856761,27.55728 27.2135434,25.2317825 26.8671875,22.90625 L26.8671875,18.6015625 L26.7929688,18.0820312 L23.5273438,17.9335937 C23.1315084,19.516935 22.8593757,21.1373615 22.7109375,22.7949219 C22.5624993,24.4524822 22.3645846,26.0729087 22.1171875,27.65625 C21.9192698,27.8046882 21.7089855,27.9160153 21.4863281,27.9902344 C21.2636708,28.0644535 21.0286471,28.0768232 20.78125,28.0273438 L20.0390625,27.65625 C19.8906243,27.4583323 19.7792972,27.2356783 19.7050781,26.9882812 C19.630859,26.7408842 19.59375,26.4687515 19.59375,26.171875 C19.59375,24.6380132 19.7174467,23.1289137 19.9648438,21.6445312 C20.2122408,20.1601488 20.4843735,18.6757887 20.78125,17.1914062 C20.6822912,17.042968 20.6204428,16.8821623 20.5957031,16.7089844 C20.5709634,16.5358064 20.5585938,16.3502614 20.5585938,16.1523437 L20.9296875,15.4101562 L21.4492188,14.9648437 C21.7460952,13.6288996 22.1790336,12.3424541 22.7480469,11.1054687 C23.3170601,9.8684834 24.0221312,8.68099527 24.8632813,7.54296875 C25.555993,7.04817461 26.2610641,6.60286656 26.9785156,6.20703125 C27.6959671,5.81119594 28.4999955,5.66275992 29.390625,5.76171875 C29.8359397,5.81119816 30.2441388,5.91015551 30.6152344,6.05859375 C30.98633,6.20703199 31.3450504,6.40494668 31.6914062,6.65234375 C31.8398445,6.85026141 31.9511715,7.06054576 32.0253906,7.28320312 C32.0996097,7.50586049 32.1119794,7.74088418 32.0625,7.98828125 L31.6914062,8.73046875 C31.4934886,8.87890699 31.2832042,8.990234 31.0605469,9.06445312 C30.8378895,9.13867225 30.5781265,9.15104191 30.28125,9.1015625 C29.9843735,8.95312426 29.6875015,8.82942758 29.390625,8.73046875 C29.0937485,8.63150992 28.7721371,8.60677059 28.4257813,8.65625 L26.9414063,9.546875 C26.3971327,10.388025 25.902346,11.2662715 25.4570313,12.1816406 C25.0117165,13.0970098 24.6901052,14.0742136 24.4921875,15.1132812 C26.4218846,15.1627607 28.3515529,15.261718 30.28125,15.4101562 C32.2109471,15.5585945 34.115876,15.8059879 35.9960938,16.1523437 C36.144532,16.3502614 36.255859,16.5729154 36.3300781,16.8203125 C36.4042972,17.0677096 36.4166669,17.3398423 36.3671875,17.6367187 L35.9960938,18.3789062 C35.7981761,18.5273445 35.5878917,18.6386715 35.3652344,18.7128906 C35.142577,18.7871097 34.9075533,18.7994794 34.6601562,18.75 L29.6875,18.3046875 L29.6875,18.5273437 L29.7617188,18.6015625 L29.7617188,22.90625 C30.0585952,25.0833442 30.3307279,27.2604058 30.578125,29.4375 C30.8255221,31.6145942 31.0234368,33.7916558 31.171875,35.96875 L30.8007813,36.7109375 C30.6028636,36.8593757 30.3925792,36.9707028 30.1699219,37.0449219 C29.9472645,37.119141 29.7122408,37.1315107 29.4648438,37.0820312 Z M11.28125,35.0039062 L10.5390625,34.6328125 C10.1927066,33.8906213 10.0071616,33.0865929 9.98242187,32.2207031 C9.95768217,31.3548134 9.84635516,30.5013063 9.6484375,29.6601562 L9.72265625,28.9179688 L9.6484375,28.84375 C8.9557257,29.5859412 8.28776363,30.3528606 7.64453125,31.1445312 C7.00129887,31.9362019 6.38281547,32.7526 5.7890625,33.59375 C5.59114484,33.7421882 5.38086049,33.8535153 5.15820312,33.9277344 C4.93554576,34.0019535 4.70052207,34.0143232 4.453125,33.9648438 L3.7109375,33.59375 C3.56249926,33.3958323 3.45117225,33.185548 3.37695313,32.9628906 C3.302734,32.7402333 3.29036434,32.4804702 3.33984375,32.1835938 C4.18099379,30.897129 5.10871889,29.6601622 6.12304688,28.4726562 C7.13737486,27.2851503 8.18879664,26.1224015 9.27734375,24.984375 L9.87109375,24.5390625 L9.9453125,23.1289062 L7.05078125,23.1289062 L4.75,23.203125 C4.55208234,23.1536456 4.36653732,23.0917972 4.19335938,23.0175781 C4.02018143,22.943359 3.85937574,22.8567713 3.7109375,22.7578125 C3.56249926,22.5598948 3.45117225,22.3496105 3.37695313,22.1269531 C3.302734,21.9042958 3.29036434,21.6692721 3.33984375,21.421875 L3.7109375,20.6796875 C4.15625223,20.382811 4.68814795,20.2591143 5.30664062,20.3085938 C5.9251333,20.3580732 6.5065077,20.3333338 7.05078125,20.234375 L10.09375,20.234375 L10.3164062,17.9335938 L10.2421875,17.859375 L6.30859375,17.859375 L4.453125,18.0820312 L3.7109375,17.7109375 C3.56249926,17.5130198 3.45117225,17.3027355 3.37695313,17.0800781 C3.302734,16.8574208 3.29036434,16.6223971 3.33984375,16.375 L3.7109375,15.6328125 C4.15625223,15.335936 4.63866928,15.1751303 5.15820312,15.1503906 C5.67773697,15.1256509 6.18489336,15.0390632 6.6796875,14.890625 L6.3828125,13.7773438 L6.75390625,10.9570312 L5.00976562,10.9570312 C4.44075236,10.9570312 3.93359598,10.8085952 3.48828125,10.5117188 C3.33984301,10.3138011 3.228516,10.1035167 3.15429688,9.88085938 C3.08007775,9.65820201 3.06770809,9.42317832 3.1171875,9.17578125 L3.48828125,8.43359375 L4.23046875,8.0625 L10.09375,8.0625 L10.09375,7.39453125 L9.796875,4.3515625 C9.84635441,4.15364484 9.90820275,3.96809982 9.98242187,3.79492188 C10.056641,3.62174393 10.1432287,3.46093824 10.2421875,3.3125 C10.4401052,3.16406176 10.6503895,3.05273475 10.8730469,2.97851562 C11.0957042,2.9042965 11.3307279,2.89192684 11.578125,2.94140625 L12.3203125,3.3125 C12.6666684,4.05469121 12.8398437,4.85871963 12.8398437,5.72460938 C12.8398437,6.59049912 12.8893224,7.44400621 12.9882812,8.28515625 C13.8789107,8.33463566 14.7818965,8.359375 15.6972656,8.359375 C16.6126348,8.359375 17.4661419,8.53255035 18.2578125,8.87890625 C18.4062507,9.07682391 18.5175778,9.28710826 18.5917969,9.50976562 C18.666016,9.73242299 18.6783857,9.96744668 18.6289062,10.2148438 L18.2578125,10.9570312 C18.1093743,11.1054695 17.9238292,11.2044268 17.7011719,11.2539062 C17.4785145,11.3033857 17.2682302,11.3528643 17.0703125,11.4023438 L15.8085937,11.328125 L15.5117187,14.9648438 C16.1549511,15.0143232 16.7858042,15.0514322 17.4042969,15.0761719 C18.0227896,15.1009116 18.6041639,15.2617173 19.1484375,15.5585938 C19.2968757,15.7565114 19.4082028,15.9667958 19.4824219,16.1894531 C19.556641,16.4121105 19.5690107,16.6471342 19.5195312,16.8945312 L19.1484375,17.6367188 C18.9010404,17.8346364 18.6289077,17.9459634 18.3320312,17.9707031 C18.0351548,17.9954428 17.7135434,18.0078125 17.3671875,18.0078125 L16.5507812,17.859375 L13.1367187,17.859375 L12.9882812,20.234375 L16.6992187,20.234375 L17.2929688,20.3828125 C17.4908864,20.4322919 17.6640618,20.5312493 17.8125,20.6796875 C17.9609382,20.8776052 18.0722653,21.0878895 18.1464844,21.3105469 C18.2207035,21.5332042 18.2330732,21.7682279 18.1835937,22.015625 L17.8125,22.7578125 C17.6640618,22.9062507 17.4785167,23.0052081 17.2558594,23.0546875 C17.033202,23.1041669 16.8229177,23.1536456 16.625,23.203125 L16.5507812,23.1289062 L12.8398437,23.1289062 L12.8398437,23.9453125 L13.5078125,24.984375 L15.140625,26.3203125 C15.6848986,26.7656272 16.2539033,27.1367173 16.8476562,27.4335938 C16.9960945,27.6315114 17.1074215,27.8417958 17.1816406,28.0644531 C17.2558597,28.2871105 17.2682294,28.5221342 17.21875,28.7695312 L16.8476562,29.5117188 C16.6497386,29.660157 16.4394542,29.771484 16.2167969,29.8457031 C15.9941395,29.9199222 15.7343765,29.9322919 15.4375,29.8828125 C14.9427059,29.6848948 14.4726585,29.4251318 14.0273437,29.1035156 C13.582029,28.7818994 13.136721,28.4231791 12.6914062,28.0273438 L12.5429687,29.6601562 L12.8398437,31.7382812 C12.9388026,32.430993 12.9882812,33.1484338 12.9882812,33.890625 L12.6171875,34.6328125 C12.4192698,34.7812507 12.2089855,34.8925778 11.9863281,34.9667969 C11.7636708,35.041016 11.5286471,35.0533857 11.28125,35.0039062 Z M12.6171875,14.9648438 L12.6171875,14.3710938 L12.9882812,11.2539062 C12.4440077,11.1549474 11.8997423,11.0807294 11.3554688,11.03125 C10.8111952,10.9817706 10.2421905,10.9570312 9.6484375,10.9570312 L9.3515625,14 L9.57421875,14.9648438 L12.6171875,14.9648438 Z M43.7890625,33.7421875 L43.046875,33.3710937 C42.7499985,32.8762996 42.5768232,32.3444039 42.5273438,31.7753906 C42.4778643,31.2063774 42.378907,30.6497423 42.2304688,30.1054688 L42.2304688,25.1328125 L42.15625,25.0585937 L42.5273438,22.1640625 L42.453125,22.0898437 C42.5026044,21.8424467 42.5768224,21.5950533 42.6757812,21.3476562 C42.7747401,21.1002592 42.8984368,20.8776052 43.046875,20.6796875 C43.2447927,20.4817698 43.4798163,20.3580732 43.7519531,20.3085937 C44.0240899,20.2591143 44.3085923,20.2591143 44.6054688,20.3085937 L46.6835938,20.6054687 L52.25,20.6054687 L53.4375,20.7539062 L54.1054688,20.6796875 L55.1445312,21.2734375 C55.2929695,21.4713552 55.4042965,21.6816395 55.4785156,21.9042969 C55.5527347,22.1269542 55.5651044,22.3619779 55.515625,22.609375 C55.3671868,22.8567721 55.2805991,23.1289048 55.2558594,23.4257812 C55.2311197,23.7226577 55.21875,24.0195298 55.21875,24.3164062 L55.2929688,24.390625 L55.2929688,29.8828125 C55.441407,29.8828125 55.589843,29.9199215 55.7382812,29.9941406 C55.8867195,30.0683597 56.0351555,30.1549474 56.1835938,30.2539062 C56.332032,30.4518239 56.443359,30.6621083 56.5175781,30.8847656 C56.5917972,31.107423 56.6041669,31.3424467 56.5546875,31.5898438 L56.1835938,32.3320312 C56.0351555,32.4804695 55.8496105,32.5794268 55.6269531,32.6289062 C55.4042958,32.6783857 55.1940114,32.7278643 54.9960938,32.7773437 L52.84375,32.40625 L45.4960938,32.40625 C45.4960938,32.6041677 45.4589847,32.777343 45.3847656,32.9257812 C45.3105465,33.0742195 45.2239588,33.2226555 45.125,33.3710937 C44.9270823,33.519532 44.716798,33.630859 44.4941406,33.7050781 C44.2714833,33.7792972 44.0364596,33.7916669 43.7890625,33.7421875 Z M59.0039062,32.703125 L58.2617188,32.3320312 C57.9153629,31.5403606 57.7298178,30.6992232 57.7050781,29.8085938 C57.6803384,28.9179643 57.6184901,28.0520875 57.5195312,27.2109375 L57.5195312,23.203125 L57.6679688,22.6835938 C57.5195305,22.5351555 57.4329428,22.3619802 57.4082031,22.1640625 C57.3834634,21.9661448 57.3710938,21.7434908 57.3710938,21.4960938 L57.7421875,20.7539063 C57.9401052,20.5559886 58.1874985,20.4446616 58.484375,20.4199219 C58.7812515,20.3951822 59.0781235,20.3828125 59.375,20.3828125 L60.7109375,20.4570313 L60.7851562,20.3828125 L68.4296875,20.3828125 L69.171875,20.7539063 C69.5182309,22.4856857 69.7408849,24.2669179 69.8398438,26.0976563 C69.9388026,27.9283946 70.2604139,29.6848874 70.8046875,31.3671875 L70.4335938,32.109375 C69.9387996,32.4557309 69.3821646,32.6289062 68.7636719,32.6289062 L66.8710938,32.6289062 L65.609375,32.4804688 L60.0429688,32.4804688 C59.8945305,32.5794276 59.7337248,32.6412759 59.5605469,32.6660156 C59.3873689,32.6907553 59.2018239,32.703125 59.0039062,32.703125 Z M67.3164062,29.734375 L67.3164062,29.140625 C67.2174474,28.1510367 67.0937507,27.1738329 66.9453125,26.2089844 C66.7968743,25.2441358 66.7226562,24.266932 66.7226562,23.2773438 L60.7851562,23.2773438 L60.4882812,23.4257813 L60.4140625,23.5 L60.4140625,27.2109375 L60.6367188,29.5859375 L65.609375,29.5859375 L67.3164062,29.734375 Z M52.3984375,29.5117188 L52.3984375,24.390625 L52.3242188,23.5 L46.6835938,23.5 L45.3476562,23.3515625 L45.0507812,25.0585938 L45.125,25.1328125 L45.125,29.5117188 L52.3984375,29.5117188 Z M50.5429688,19.8632812 L49.8007812,19.4921875 C49.7018224,19.3437493 49.6152347,19.1829436 49.5410156,19.0097656 C49.4667965,18.8365877 49.4049482,18.6510427 49.3554688,18.453125 L49.3554688,14.5195312 L49.28125,14.4453125 L50.2460938,7.6171875 L50.171875,6.94921875 L50.5429688,6.20703125 L50.9882812,5.6875 C51.1861989,5.53906176 51.3964833,5.42773475 51.6191406,5.35351562 C51.841798,5.2792965 52.0768217,5.26692684 52.3242188,5.31640625 C54.1549571,5.41536508 55.9856679,5.6009101 57.8164062,5.87304688 C59.6471446,6.14518365 61.4531161,6.47916469 63.234375,6.875 C63.3828132,7.07291766 63.4941403,7.28320201 63.5683594,7.50585938 C63.6425785,7.72851674 63.6549482,7.96354043 63.6054688,8.2109375 C63.5065099,8.40885516 63.4199222,8.59440018 63.3457031,8.76757812 C63.271484,8.94075607 63.234375,9.12630109 63.234375,9.32421875 C63.1848956,10.7591218 63.4570283,12.1197852 64.0507812,13.40625 C64.6445342,14.6927148 64.9908849,16.0286389 65.0898438,17.4140625 L64.71875,18.15625 C64.4218735,18.3541677 64.1126318,18.490234 63.7910156,18.5644531 C63.4693994,18.6386722 63.1354184,18.7252599 62.7890625,18.8242188 L58.4101562,18.8242188 L58.3359375,18.8984375 L52.3242188,18.8984375 L52.25,18.8242188 L51.8789062,19.4921875 C51.6809886,19.6406257 51.4707042,19.7519528 51.2480469,19.8261719 C51.0253895,19.900391 50.7903658,19.9127607 50.5429688,19.8632812 Z M61.8984375,15.8554688 C61.3046845,14.8658805 60.9212248,13.8144587 60.7480469,12.7011719 C60.5748689,11.5878851 60.4388026,10.4622453 60.3398438,9.32421875 L60.4140625,9.25 C59.2265566,9.00260293 58.0266988,8.79231857 56.8144531,8.61914062 C55.6022075,8.44596268 54.352871,8.38411434 53.0664062,8.43359375 L52.1757812,14.4453125 L52.25,15.9296875 L52.4726562,16.0039062 L58.3359375,16.0039062 L58.4101562,15.9296875 L61.8242188,15.9296875 L61.8984375,15.8554688 Z" id="新品"></path>
            </g>
        </g>
    </g>
</svg>