<?xml version="1.0" encoding="UTF-8"?>
<svg width="143px" height="37px" viewBox="0 0 143 37" version="1.1" xmlns="http://www.w3.org/2000/svg" xmlns:xlink="http://www.w3.org/1999/xlink">
    <!-- Generator: Sketch 46.1 (44463) - http://www.bohemiancoding.com/sketch -->
    <title>每日抢鲜</title>
    <desc>Created with Sketch.</desc>
    <defs></defs>
    <g id="Page-1" stroke="none" stroke-width="1" fill="none" fill-rule="evenodd">
        <g id="eat首页" transform="translate(-303.000000, -1048.000000)" fill="#444444">
            <g id="每日抢鲜" transform="translate(301.000000, 1047.000000)">
                <g id="鲜" transform="translate(127.670843, 18.844775) rotate(6.000000) translate(-127.670843, -18.844775) translate(110.000000, 2.000000)">
                    <path d="M7.14715844,1.12780681 C4.83367308,4.97424504 2.52111776,8.82068326 0.207632405,12.6675847 C-0.717296717,14.2054188 1.6938433,15.6047553 2.61691233,14.0701636 C4.92993267,10.2237253 7.24295301,6.37728711 9.55643837,2.53038568 C10.4813675,0.99255152 8.06976245,-0.406784928 7.14715844,1.12780681" id="Fill-1"></path>
                    <path d="M5.4587094,8.35131959 C8.0372574,8.15121587 10.6172005,8.04792159 13.2031888,8.04097354 C14.9986395,8.03587831 15.0018946,5.25665994 13.2031888,5.26175518 C10.6172005,5.26870322 8.0372574,5.3719975 5.4587094,5.57210123 C3.68046457,5.71013574 3.66558386,8.49074372 5.4587094,8.35131959" id="Fill-4"></path>
                    <path d="M11.4022974,6.20446605 C9.91004124,8.44034722 8.6326253,10.7869339 7.56586441,13.2521006 C6.86275087,14.8774802 9.26552049,16.2948815 9.97514434,14.6551427 C11.0423703,12.1895128 12.3193212,9.84292609 13.8115773,7.60704492 C14.8081199,6.11367825 12.3927947,4.72036344 11.4022974,6.20446605" id="Fill-6"></path>
                    <path d="M0.752638403,16.421197 C1.69616841,18.1785894 2.02726421,20.0397393 1.84962573,22.0176164 C1.69012312,23.798169 4.48118626,23.7875153 4.63975883,22.0176164 C4.86064437,19.5640298 4.32493881,17.1840925 3.16191833,15.0186181 C2.31464791,13.4404853 -0.0946320142,14.842601 0.752638403,16.421197" id="Fill-8"></path>
                    <path d="M3.6644678,15.982868 C7.38650536,14.8179123 11.1615554,14.1791552 15.0626265,14.0791034 C16.854357,14.0332463 16.8613323,11.2535647 15.0626265,11.299885 C10.9188139,11.4059585 6.87777109,12.0646333 2.9222924,13.302775 C1.21519597,13.8373114 1.94481577,16.5211099 3.6644678,15.982868" id="Fill-10"></path>
                    <path d="M13.4603461,13.0573237 C13.3338601,16.604996 13.563116,20.1068111 14.0941713,23.6155743 C14.3610941,25.3785252 17.0503173,24.6295258 16.7847897,22.8767654 C16.2918662,19.6195215 16.1328286,16.3479183 16.2504792,13.0573237 C16.3141872,11.2684335 13.5240541,11.2712127 13.4603461,13.0573237" id="Fill-12"></path>
                    <path d="M3.91925346,21.3404598 C7.33763152,20.4436987 10.7550795,19.5474008 14.1734576,18.6506397 C15.9079904,18.1957743 15.1723253,15.5142917 13.4317472,15.97101 C10.0133692,16.8673079 6.59545612,17.764069 3.17754308,18.6603669 C1.44301034,19.1156955 2.17867543,21.7971781 3.91925346,21.3404598" id="Fill-14"></path>
                    <path d="M6.61354548,15.9009737 C7.14692593,18.5741185 7.68077139,21.2468002 8.21415184,23.919945 C8.56431354,25.6727054 11.2540018,24.9306541 10.9052352,23.1811362 C10.3713897,20.5079913 9.83754428,17.8353096 9.30369881,15.1621648 C8.95400213,13.4094044 6.26431382,14.1514557 6.61354548,15.9009737" id="Fill-16"></path>
                    <path d="M4.9850378,26.6932807 C6.44009221,26.1958007 7.89514662,25.6983206 9.35020103,25.2003773 C10.4062664,24.8395421 12.7476531,23.559712 13.8734718,23.8899758 C15.5991691,24.3962568 16.3366943,21.7147742 14.6151822,21.2098829 C13.0299216,20.744827 11.5581264,21.5118913 10.0635451,22.0228043 C8.12300749,22.6865743 6.18293494,23.349881 4.2428624,24.0131878 C2.55436685,24.590802 3.27980146,27.2764534 4.9850378,26.6932807" id="Fill-18"></path>
                    <path d="M7.02406707,32.5331133 C9.36312865,30.6965132 11.9602775,29.1846184 14.715534,28.0567189 C16.3533421,27.3860009 15.6362779,24.6961807 13.9733586,25.376626 C10.7386643,26.7009236 7.79786398,28.4119957 5.05144297,30.5677427 C3.64196073,31.6743349 5.62807047,33.6290518 7.02406707,32.5331133" id="Fill-20"></path>
                    <path d="M16.8072503,6.52926403 C17.6735866,7.76370019 18.6208368,8.93930956 19.6564412,10.037564 C20.8878199,11.3442599 22.8581189,9.37611005 21.6290653,8.07265663 C20.7548236,7.1453241 19.9480101,6.16889205 19.2165302,5.12668516 C18.7849896,4.5124779 17.9953819,4.22714482 17.3076141,4.62781547 C16.697505,4.98355542 16.3729195,5.91135115 16.8072503,6.52926403" id="Fill-23"></path>
                    <path d="M24.6127406,1.74817467 C23.6864164,3.61627262 22.7596272,5.48437057 21.832838,7.35293172 C21.0399752,8.95098228 23.4459999,10.3609724 24.2421179,8.75551059 C25.1684421,6.88741264 26.0952313,5.01931469 27.0220205,3.15075354 C27.8148833,1.55270298 25.4088586,0.143176066 24.6127406,1.74817467" id="Fill-25"></path>
                    <path d="M19.1991384,15.5829847 C21.8734809,14.3082499 24.6775647,13.4823589 27.6053443,13.0321255 C29.3742887,12.7597621 28.6232779,10.081522 26.8631689,10.3520326 C23.6907876,10.8402486 20.6839542,11.8041742 17.7910512,13.1831297 C16.1718439,13.954826 17.5855114,16.352365 19.1991384,15.5829847" id="Fill-27"></path>
                    <path d="M19.6614169,21.7740179 C22.0586063,20.7994387 24.4562606,19.8248594 26.85345,18.8502802 C28.4935832,18.1832678 27.776054,15.4934476 26.1117396,16.1701873 C23.7145502,17.1447665 21.3168959,18.1193458 18.9192415,19.093925 C17.2791083,19.7609374 17.9971025,22.4502944 19.6614169,21.7740179" id="Fill-29"></path>
                    <path d="M20.4347953,14.8237023 C21.3606545,20.3460092 21.9549528,25.9016667 22.2372213,31.4929909 C22.3265055,33.2730802 25.1175687,33.2837339 25.0273544,31.4929909 C24.7320653,25.6543163 24.0917297,19.8508451 23.1254136,14.0848934 C22.8301246,12.3247218 20.1409013,13.0714051 20.4347953,14.8237023" id="Fill-31"></path>
                    <path d="M16.2691266,28.8944217 C19.2141121,28.0296216 22.1590975,27.1652847 25.104083,26.3000213 C26.4298613,25.911394 27.7547095,25.5218402 29.0800227,25.1327496 C29.630609,24.9710918 32.607216,23.7616686 33.0220157,23.9775212 C34.6123916,24.802949 36.024664,22.40541 34.4305679,21.5776661 C33.3140497,20.9977359 32.6318621,21.2163677 31.4307098,21.5447787 C29.6547901,22.0306787 27.8956112,22.5828168 26.1294569,23.1016042 L15.5274162,26.2143288 C13.8091592,26.7192201 14.5401741,29.4020922 16.2691266,28.8944217" id="Fill-33"></path>
                </g>
                <g id="抢" transform="translate(84.989693, 19.505109) rotate(5.000000) translate(-84.989693, -19.505109) translate(64.989693, 3.005109)">
                    <path d="M1.78335999,14.7903715 C5.96736151,13.5556341 10.1956173,12.9356439 14.5601412,12.9260316 C16.4205738,12.9220993 16.4240791,10.0384239 14.5601412,10.0423561 C9.95769576,10.0528422 5.42798504,10.7073492 1.01438705,12.0098093 C-0.765862001,12.5349877 -0.00784308589,15.3186084 1.78335999,14.7903715" id="Fill-1"></path>
                    <path d="M6.35452076,4.75207872 C8.4230799,13.1444482 9.41200978,21.7010998 9.3270065,30.3429508 C9.30860373,32.1989892 12.2004678,32.2003 12.2188706,30.3429508 C12.3065028,21.4546766 11.2702515,12.6166482 9.14297879,3.98528319 C8.69912147,2.18429679 5.90934896,2.94716002 6.35452076,4.75207872" id="Fill-3"></path>
                    <path d="M11.7493808,28.5785347 C9.70535871,27.5452176 7.50447489,27.0327099 5.21026273,27.1410662 C3.35771708,27.2284503 3.34676305,30.1125626 5.21026273,30.0247416 C6.99620787,29.940416 8.69057732,30.2602418 10.2898658,31.0685448 C11.9461152,31.9056845 13.4117645,29.4187329 11.7493808,28.5785347" id="Fill-5"></path>
                    <path d="M3.34001537,24.3588873 C6.52676194,22.7029585 9.79719731,21.2628685 13.1749822,20.039491 C14.9105388,19.4107624 14.1612831,16.6232094 12.4060092,17.2589288 C8.79643707,18.5657581 5.28632752,20.0989122 1.88050034,21.8688772 C0.229508848,22.7269892 1.6899002,25.2161254 3.34001537,24.3588873" id="Fill-7"></path>
                    <path d="M24.1672204,8.04645948 C27.8525944,10.2463543 31.4950287,12.5139719 35.094085,14.8506228 C36.6587587,15.8655892 38.1095105,13.3703361 36.5544763,12.3606128 C32.9545437,10.0239618 29.3121095,7.75590733 25.6267354,5.5564494 C24.0261325,4.60090421 22.5701227,7.09309889 24.1672204,8.04645948" id="Fill-9"></path>
                    <path d="M22.5699037,18.2731524 C25.1769629,17.3276564 27.8414213,16.7378137 30.6119147,16.5525594 C32.4583261,16.4289108 32.4727855,13.5443615 30.6119147,13.6688839 C27.5837825,13.871615 24.6546748,14.4579624 21.8009307,15.4925902 C20.0653741,16.1217557 20.8146298,18.9093087 22.5699037,18.2731524" id="Fill-11"></path>
                    <path d="M28.5941823,15.3418526 C28.5367832,18.1180456 28.7361465,20.8575373 29.1401312,23.6035828 C29.4091622,25.432969 32.1963057,24.6552505 31.9285892,22.8367873 C31.5631628,20.3520203 31.4339052,17.8515241 31.4864845,15.3418526 C31.5246046,13.4853773 28.6331787,13.4853773 28.5941823,15.3418526" id="Fill-13"></path>
                    <path d="M19.9503568,18.3251896 C21.1500422,22.3837444 21.0006292,26.4086563 19.554259,30.3820115 C18.918049,32.1292567 21.7113267,32.8820708 22.3427171,31.1488071 C23.9490161,26.7367836 24.0686341,22.0573648 22.7388148,17.558831 C22.2134595,15.7827491 19.4219344,16.5386216 19.9503568,18.3251896" id="Fill-15"></path>
                    <path d="M21.402204,32.5464721 C26.8209438,30.5357639 32.4425523,29.5745387 38.2254041,29.6973134 C40.0871512,29.7366362 40.086713,26.8529608 38.2254041,26.813201 C32.2055071,26.6856202 26.2771858,27.6717498 20.6332311,29.7659099 C18.904685,30.4073092 19.6526262,33.1952991 21.402204,32.5464721" id="Fill-17"></path>
                    <path d="M23.6002836,1.11165689 C19.5148684,7.57458531 16.271599,14.4949695 13.893698,21.7561517 C13.3144489,23.5243691 16.105974,24.2824262 16.682156,22.5229473 C18.9855696,15.4907114 22.1416449,8.82461494 26.0969262,2.56703917 C27.0924285,0.992814511 24.5914043,-0.456013953 23.6002836,1.11165689" id="Fill-20"></path>
                </g>
                <path d="M38.2773438,32.5546875 L37.5351562,32.1835938 C37.2382798,31.7877584 37.0898438,31.3053414 37.0898438,30.7363281 C37.0898438,30.1673149 37.0651044,29.6354191 37.015625,29.140625 L37.015625,22.8320312 L36.9414062,22.7578125 C37.1393239,20.2343624 37.3496083,17.6985804 37.5722656,15.1503906 C37.794923,12.6022008 38.3020794,10.0911582 39.09375,7.6171875 C39.2916677,7.46874926 39.501952,7.34505258 39.7246094,7.24609375 C39.9472667,7.14713492 40.1822904,7.07291691 40.4296875,7.0234375 L43.9179688,7.0234375 L49.8554688,7.46875 C51.8346453,7.61718824 53.7643135,7.8645816 55.6445312,8.2109375 C55.7929695,8.40885516 55.9042965,8.61913951 55.9785156,8.84179688 C56.0527347,9.06445424 56.0651044,9.32421727 56.015625,9.62109375 C55.8671868,10.0169291 55.7434901,10.4251281 55.6445312,10.8457031 C55.5455724,11.2662781 55.4713544,11.6992165 55.421875,12.1445312 L55.421875,17.4882812 C55.8177103,19.6653755 56.20117,21.842437 56.5722656,24.0195313 C56.9433612,26.1966255 57.2526029,28.373687 57.5,30.5507813 C57.4010412,30.7486989 57.3144535,30.9713529 57.2402344,31.21875 C57.1660153,31.4661471 57.0546882,31.6888011 56.90625,31.8867188 C56.4114559,32.1835952 55.8548208,32.3444009 55.2363281,32.3691406 C54.6178354,32.3938803 53.9869824,32.40625 53.34375,32.40625 L47.3320312,31.8867188 L42.359375,31.8867188 L39.9101562,31.7382813 L39.6132812,32.1835938 C39.4153636,32.332032 39.2050792,32.443359 38.9824219,32.5175781 C38.7597645,32.5917972 38.5247408,32.6041669 38.2773438,32.5546875 Z M54.53125,29.5117188 L54.53125,29.140625 L53.1953125,21.2734375 C51.0182183,21.2734375 48.8411567,21.1250015 46.6640625,20.828125 C44.4869683,20.5312485 42.3099067,20.3333338 40.1328125,20.234375 L39.8359375,22.7578125 L39.9101562,22.8320312 L39.9101562,28.84375 L42.359375,28.9921875 L47.3320312,28.9921875 L54.53125,29.5117188 Z M52.6757812,18.3046875 L52.6757812,17.9335938 L52.5273438,17.4882812 L52.5273438,12.1445312 L52.75,10.5859375 L47.109375,10.140625 C45.2291573,9.99218676 43.3489677,9.91796875 41.46875,9.91796875 C41.1223941,11.1054747 40.8502614,12.3300718 40.6523438,13.5917969 C40.4544261,14.8535219 40.3307294,16.1275977 40.28125,17.4140625 C42.3593854,17.4635419 44.4251199,17.6243476 46.4785156,17.8964844 C48.5319113,18.1686212 50.5976459,18.3046875 52.6757812,18.3046875 Z" id="日"></path>
                <g id="每" transform="translate(16.465122, 19.498782) rotate(4.000000) translate(-16.465122, -19.498782) translate(1.965122, 0.998782)">
                    <path d="M4.81882327,2.29280464 C4.26379691,7.21482688 2.74172828,11.9071025 0.370914974,16.2289787 C-0.468916877,17.7600729 1.83950661,19.1344279 2.68014872,17.6029212 C5.29484952,12.8364008 6.88133361,7.71309243 7.49267286,2.29280464 C7.68875517,0.555474744 5.01287993,0.569911246 4.81882327,2.29280464" id="Fill-1"></path>
                    <path d="M7.56346224,9.81974577 C9.71104962,9.59618623 11.8582319,9.37221421 14.005009,9.14865466 C15.0790052,9.03646242 16.1525964,8.92468265 17.2265926,8.81290287 C17.7629831,8.75680675 18.2997786,8.7011231 18.8365742,8.64502698 C19.7740421,8.7634063 19.893555,8.58068143 19.1955182,8.09602743 C19.5342059,9.81232128 22.1120399,9.085959 21.7737575,7.37255245 C21.3293312,5.12004567 18.338671,5.97468658 16.8234895,6.13266316 L7.56346224,7.09743397 C5.86840364,7.27397176 5.85017285,9.99834592 7.56346224,9.81974577" id="Fill-3"></path>
                    <path d="M16.9479386,15.1059929 C19.9240143,15.3390393 20.2144916,17.4830661 20.5288715,20.0894734 C21.1175235,24.9673612 20.6042254,29.8633978 19.174121,34.5461865 C18.6624434,36.2232956 21.2427083,36.9405835 21.7527653,35.270074 C23.5300651,29.4476265 23.8248579,22.6225206 22.579228,16.4226019 C21.3825482,10.4663248 12.0209986,12.6945555 7.67194177,13.431642 C5.97850369,13.7183097 6.69679692,16.3420408 8.38294268,16.0566105 C10.7014944,15.6635252 14.5969766,14.9216182 16.9479386,15.1059929 Z" id="Fill-5"></path>
                    <path d="M2.22657354,26.1861732 C10.6406921,25.4643481 18.9693284,24.041734 27.1488774,21.9043067 C28.8143616,21.4691493 28.1086274,18.8429434 26.4378765,19.2793382 C18.4872252,21.3569571 10.4065277,22.7618349 2.22657354,23.4638614 C0.524627756,23.6098763 0.509232864,26.3334255 2.22657354,26.1861732" id="Fill-8"></path>
                    <path d="M13.0222008,20.316539 L15.4529731,20.316539 C16.1753177,20.316539 16.7903031,19.6908197 16.7903031,18.9553831 C16.7903031,18.2170591 16.1781536,17.5942272 15.4529731,17.5942272 L13.0222008,17.5942272 C12.2998563,17.5942272 11.685276,18.2199464 11.685276,18.9553831 C11.685276,19.693707 12.2974255,20.316539 13.0222008,20.316539" id="Fill-11"></path>
                    <path d="M13.2743596,29.1180847 C14.305007,29.3428816 15.2578698,29.2125406 16.2091121,28.7654215 C16.8459744,28.4655548 17.0542106,27.4797479 16.6887845,26.9027003 C16.2658301,26.2344965 15.5410548,26.0938437 14.8596283,26.4143341 C15.072726,26.3141035 14.7121614,26.4597059 14.6923101,26.4650681 C14.6607101,26.4741424 14.2798891,26.5302386 14.5355253,26.5108524 C14.4050738,26.5207517 14.2758378,26.5174519 14.1449812,26.5186894 C13.8650372,26.5215767 14.282725,26.5578742 13.9853605,26.4931161 C13.3031237,26.3438015 12.5070458,26.6985269 12.3405378,27.4434504 C12.1873992,28.1285656 12.5431022,28.9584582 13.2743596,29.1180847" id="Fill-13"></path>
                    <path d="M6.63194331,14.9354772 C5.81358328,21.0297434 5.0466746,27.1310216 4.33486343,33.2393119 C4.1327042,34.9754044 6.80857944,34.9605554 7.00911816,33.2393119 C7.69216519,27.3727299 8.42463793,21.5123351 9.21018253,15.6589522 C9.44029565,13.9459581 6.86408207,13.2047469 6.63194331,14.9354772" id="Fill-15"></path>
                    <path d="M6.74311064,34.9435616 C12.811939,33.823289 19.0946753,33.6195281 25.2352114,33.0890898 C26.9371572,32.9418374 26.952552,30.2182882 25.2352114,30.366778 C18.8507878,30.9182523 12.3440153,31.1533611 6.03210972,32.318593 C4.34150754,32.6308339 5.05777513,35.2545651 6.74311064,34.9435616" id="Fill-17"></path>
                </g>
            </g>
        </g>
    </g>
</svg>