<?xml version="1.0" standalone="no"?><!DOCTYPE svg PUBLIC "-//W3C//DTD SVG 1.1//EN" "http://www.w3.org/Graphics/SVG/1.1/DTD/svg11.dtd"><svg t="1502262319865" class="icon" style="" viewBox="0 0 1024 1024" version="1.1" xmlns="http://www.w3.org/2000/svg" p-id="997" xmlns:xlink="http://www.w3.org/1999/xlink" width="200" height="200"><defs><style type="text/css"></style></defs><path d="M537.386667 1012.650667C530.944 1019.861333 521.685333 1024 512 1024 502.272 1024 493.056 1019.861333 486.570667 1012.650667 447.232 968.746667 102.4 578.901333 102.4 404.224 102.4 221.141333 285.098667 0 512 0 617.770667 0 720.853333 47.317333 802.261333 133.162667 876.970667 212.010667 921.6 313.344 921.6 404.224 921.6 578.901333 576.725333 968.746667 537.386667 1012.650667ZM512 68.266667C328.149333 68.266667 170.666667 252.970667 170.666667 404.224 170.666667 520.832 397.312 806.058667 512 938.24 626.645333 806.058667 853.333333 520.746667 853.333333 404.224 853.333333 252.970667 695.808 68.266667 512 68.266667ZM512 559.018667C417.877333 559.018667 341.333333 482.432 341.333333 388.352 341.333333 294.229333 417.877333 217.685333 512 217.685333 606.08 217.685333 682.666667 294.229333 682.666667 388.352 682.666667 482.432 606.08 559.018667 512 559.018667ZM512 285.952C455.509333 285.952 409.6 331.861333 409.6 388.352 409.6 444.8 455.509333 490.752 512 490.752 568.448 490.752 614.4 444.8 614.4 388.352 614.4 331.861333 568.448 285.952 512 285.952Z" p-id="998" fill="#ffffff"></path></svg>