<?xml version="1.0" encoding="UTF-8"?>
<svg width="100px" height="53px" viewBox="0 0 100 53" version="1.1" xmlns="http://www.w3.org/2000/svg" xmlns:xlink="http://www.w3.org/1999/xlink">
    <!-- Generator: Sketch 44.1 (41455) - http://www.bohemiancoding.com/sketch -->
    <title>logo</title>
    <desc>Created with Sketch.</desc>
    <defs></defs>
    <g id="Page-1" stroke="none" stroke-width="1" fill="none" fill-rule="evenodd">
        <g id="eat首页" transform="translate(-325.000000, -53.000000)" fill="#D42A1D">
            <g id="Group-26" transform="translate(0.000000, -1.000000)">
                <path d="M418.754407,107 C418.754407,106.932006 418.70341,106.932006 418.70341,106.932006 C418.70341,106.932006 418.754407,106.932006 418.754407,106.727024 L418.754407,107 Z M416.535552,106.727024 L416.432558,106.727024 C416.432558,106.727024 416.432558,106.659031 416.535552,106.659031 L416.535552,106.727024 Z M421.903202,106.11308 L421.800208,106.11308 L421.800208,106.044086 L421.903202,106.044086 L421.903202,106.11308 Z M417.361498,105.908098 C417.206508,105.840104 417.206508,105.840104 417.206508,105.635122 C417.309501,105.635122 417.309501,105.840104 417.361498,105.908098 Z M418.342434,95.5360278 C418.39343,95.5360278 418.39343,95.4680339 418.39343,95.4680339 C418.39343,95.4680339 418.485424,95.4680339 418.497424,95.5360278 L418.39343,95.5360278 C418.600417,95.7410095 418.754407,95.9459911 418.961393,96.0819789 L419.064387,96.0819789 C419.16838,95.9459911 419.16838,95.7410095 419.32237,95.7410095 C419.529356,95.7410095 419.838336,95.7410095 420.045323,95.9459911 C420.252309,96.2189666 420.303306,96.2189666 420.509293,96.0819789 C420.664283,95.9459911 420.664283,95.8779972 420.664283,95.7410095 L420.664283,95.3320461 C420.819272,95.3320461 420.871269,95.3320461 420.871269,95.4680339 C420.923266,95.7410095 421.078256,96.0819789 421.078256,96.559936 C421.078256,96.7649177 421.232245,96.9009055 421.284242,96.9698993 C421.645219,97.173881 421.697215,97.5148504 421.903202,97.719832 C422.058192,98.1977892 422.264178,98.6067525 422.574158,99.0167158 C422.626155,99.0167158 422.626155,99.1527036 422.626155,99.2896913 C422.781145,99.3576852 422.833141,99.5626668 423.039128,99.6986546 C423.194118,99.9036362 423.348108,100.176612 423.194118,100.449587 L423.194118,100.927544 C423.142121,100.790557 423.142121,100.722563 423.039128,100.585575 C423.039128,100.722563 422.935135,100.722563 422.935135,100.722563 C422.935135,100.927544 422.935135,101.131526 423.142121,101.131526 C423.194118,101.20052 423.194118,101.20052 423.194118,101.336508 C423.348108,101.540489 423.348108,101.814465 423.348108,101.882459 L423.348108,102.086441 C423.194118,102.292422 423.142121,102.496404 423.142121,102.701385 C423.041128,103.103349 423.039128,103.308331 423.039128,103.520312 L422.626155,103.520312 C422.561159,103.588306 422.364172,103.593305 422.264178,103.725294 C422.058192,103.793288 421.903202,103.997269 421.697215,104.270245 C421.490229,104.475226 421.490229,104.611214 421.697215,104.816196 C421.800208,104.680208 421.645219,104.611214 421.800208,104.475226 L421.800208,105.226159 C421.800208,105.089171 421.800208,105.089171 421.697215,105.089171 L421.697215,104.88419 C421.647218,105.015178 421.504228,105.083172 421.439232,105.089171 L421.284242,105.089171 C421.284242,104.88419 421.439232,104.816196 421.439232,104.475226 C421.232245,104.611214 421.129252,104.611214 420.923266,104.680208 C420.668282,104.814196 420.514292,104.88219 420.252309,104.88419 L419.890333,104.88419 L419.843336,104.906188 L419.730343,105.000179 C419.713344,105.012178 419.696346,105.021177 419.684346,105.021177 C419.529356,105.089171 419.529356,105.226159 419.47736,105.362147 C419.47736,105.362147 419.336369,105.362147 419.271373,105.431141 L419.16838,105.431141 C419.064387,105.637122 419.062387,105.703116 418.909397,105.703116 C418.909397,105.635122 418.961393,105.635122 418.961393,105.431141 L418.961393,105.362147 C418.911397,105.362147 418.909397,105.233158 418.754407,105.226159 L418.135447,105.226159 C418.025454,105.235158 417.927461,105.365147 417.877464,105.431141 L417.877464,105.635122 C417.877464,105.840104 417.774471,105.840104 417.671478,105.840104 L417.671478,105.635122 C417.567484,105.431141 417.567484,105.431141 417.567484,105.362147 L417.516488,105.226159 C417.206508,105.226159 417.103515,104.816196 416.793535,104.680208 L416.793535,104.611214 C416.742538,104.475226 416.742538,104.407232 416.638545,104.270245 C416.535552,104.270245 416.535552,104.134257 416.535552,104.134257 C416.535552,103.930275 416.432558,103.793288 416.380562,103.725294 C416.226572,103.725294 416.226572,103.588306 416.174575,103.588306 C415.967589,103.384324 415.812599,103.384324 415.606612,103.384324 C415.606612,103.520312 415.451622,103.520312 415.399626,103.520312 C415.399626,103.384324 415.296632,103.31533 415.296632,103.179343 C415.245636,102.974361 415.245636,102.701385 414.987652,102.633391 C414.987652,102.496404 414.832662,102.42841 414.832662,102.42841 C414.780666,102.223428 414.780666,102.086441 414.677673,101.882459 C414.574679,102.018447 414.574679,102.018447 414.471686,102.018447 C414.471686,101.814465 414.471686,101.814465 414.419689,101.609483 C414.264699,101.882459 414.419689,102.086441 414.419689,102.223428 C414.574679,102.292422 414.574679,102.292422 414.471686,102.496404 C414.574679,102.633391 414.677673,102.701385 414.677673,102.838373 C414.677673,102.974361 414.574679,102.974361 414.471686,102.974361 L414.471686,103.110349 C414.574679,103.384324 414.677673,103.725294 414.574679,103.997269 L414.574679,103.930275 C414.574679,103.588306 414.471686,103.31533 414.419689,102.974361 L414.419689,102.838373 C414.212703,102.838373 414.212703,102.633391 414.212703,102.496404 C414.057713,102.42841 414.057713,102.292422 414.057713,102.292422 C413.902723,102.292422 413.902723,102.292422 413.902723,102.42841 C413.851726,102.701385 413.851726,102.701385 414.006716,102.974361 L414.006716,102.701385 C414.006716,102.684387 413.999717,102.663389 413.990717,102.639391 L413.919722,102.490404 C413.909723,102.466406 413.902723,102.445408 413.902723,102.42841 C413.902723,102.496404 414.006716,102.633391 414.057713,102.701385 C414.057713,102.838373 414.057713,102.974361 414.212703,103.110349 C414.212703,103.110349 414.212703,103.179343 414.057713,103.31533 C414.006716,103.179343 413.851726,103.179343 413.696736,102.974361 C413.64474,102.838373 413.49075,102.701385 413.49075,102.496404 L413.49075,101.336508 C413.49075,101.336508 413.64474,101.20052 413.696736,101.20052 C413.696736,100.927544 413.696736,100.585575 413.49075,100.108618 C413.64474,99.9716301 413.64474,99.9036362 413.696736,99.6986546 C413.851726,99.5626668 413.902723,99.3576852 414.057713,99.1527036 C414.212703,99.0167158 414.419689,98.879728 414.471686,98.6747464 C414.574679,98.6067525 414.780666,98.4027708 414.987652,98.1977892 C414.987652,98.0618014 414.780666,98.0618014 414.832662,97.9928076 C415.038649,97.9928076 415.038649,98.1977892 415.090646,98.2657831 C415.090646,98.1977892 415.245636,98.1977892 415.245636,98.0618014 C415.245636,97.9928076 415.245636,97.8568198 415.296632,97.8568198 C415.606612,97.719832 415.657609,97.5838442 415.812599,97.3108687 L415.864595,97.3108687 C416.071582,97.5148504 416.226572,97.3788626 416.432558,97.1058871 C416.535552,97.1058871 416.535552,96.9698993 416.638545,96.9698993 C416.742538,97.1058871 416.793535,96.9698993 416.948525,96.9009055 C417.000521,96.9009055 417.103515,96.6969237 417.206508,96.559936 L417.206508,96.2869605 C417.309501,95.7410095 417.671478,95.6730156 417.929461,95.5360278 L418.342434,95.5360278 Z M395.963892,54.9776642 L396.001889,54.8306774 C396.027888,54.6776911 396.053886,54.4587107 396.260873,54.566701 C396.642848,54.767683 396.980826,54.6076974 397.347802,54.5517024 C397.897766,54.4687098 398.458729,54.4347129 399.015693,54.4177144 C399.137685,54.4147147 399.311674,54.5457029 399.381669,54.6626924 C399.690649,55.1766464 399.871637,55.7405958 399.952632,56.3335426 C400.085623,57.3174544 400.204616,58.3023661 400.337607,59.2862779 C400.392603,59.6852421 400.465599,60.0822065 400.533594,60.4811708 C400.75158,61.7490571 400.678585,63.0319421 400.720582,64.3098275 C400.735581,64.7497881 400.766579,65.1707503 400.935568,65.5897127 C401.194551,66.2346549 401.151554,66.9325923 401.195551,67.6125314 C401.20655,67.7665176 401.127555,67.9315028 401.157553,68.0774897 C401.409537,69.3253778 401.068559,70.5562675 401.070559,71.7951564 C401.070559,71.9811397 401.016563,72.1731225 401.05256,72.3501066 C401.177552,72.9800501 401.149554,73.0560433 401.813511,73.0030481 C402.563462,72.9430535 403.313413,72.8520616 404.064364,72.8360631 C404.846313,72.8200645 405.630262,72.8760595 406.413211,72.9070567 C407.478142,72.948053 408.542072,73.0060478 409.608003,73.0310456 C409.771992,73.0350452 409.983978,72.9400537 410.094971,72.8190646 C410.305957,72.5880853 410.563941,72.6840767 410.798925,72.6610787 C410.88592,72.6530795 411.065908,72.7860675 411.069908,72.8610608 C411.099906,73.4300098 411.374888,73.9279652 411.49388,74.4669168 C411.544877,74.6978961 411.579874,74.9878701 411.483881,75.1838526 C411.290893,75.5738176 411.681868,75.8937889 411.525878,76.2777545 C411.389887,76.6157242 411.089906,76.8757009 411.114905,77.3056623 C411.137903,77.6976272 410.816924,77.9946006 410.452948,78.0695938 C410.42295,78.0755933 410.379953,78.0855924 410.359954,78.0715937 C409.980979,77.7986181 409.760993,78.1545862 409.467012,78.2715757 C408.802055,78.5385518 408.087102,78.6265439 407.388148,78.7685312 C407.331151,78.7795302 407.262156,78.7305346 407.20316,78.7395338 C406.872181,78.7945288 406.534203,78.9335164 406.213224,78.8985195 C405.919243,78.8675223 405.652261,78.6355431 405.35928,78.5295526 C405.277285,78.5005552 405.0523,78.6065457 405.0543,78.6455422 C405.062299,78.8735218 404.992304,79.0305077 404.759319,78.9165179 C404.479337,78.7795302 404.260351,78.8365251 403.98137,78.9255171 C403.636392,79.0355072 403.283415,79.2084917 402.882441,79.0855027 C402.758449,79.0485061 402.59246,79.1584962 402.44247,79.1864937 C402.233483,79.22749 402.023497,79.2744858 401.812511,79.2784854 C401.701518,79.2814852 401.544528,79.1324985 401.485532,79.1704951 C401.36554,79.2484881 401.266546,79.394475 401.21655,79.5334626 C401.144554,79.7374443 401.119556,79.9564247 401.084558,80.1714054 C401.024562,80.5383725 400.970566,80.9053396 400.918569,81.2733066 C400.857573,81.7052679 400.849574,82.1312297 401.006563,82.5521919 C401.081558,82.7541738 401.172553,82.9821534 401.145554,83.1841353 C401.037561,83.9880632 401.134555,84.7989905 401.014563,85.6069181 C400.947567,86.0598774 400.914569,86.5228359 400.817576,86.9737955 C400.798577,87.0657873 400.776578,87.1647784 400.793577,87.2537704 C400.957567,88.0906954 400.671585,88.919621 400.759579,89.756546 C400.788578,90.0325213 400.764579,90.3184956 400.727582,90.5954708 C400.627588,91.3594023 400.668585,92.1333329 400.529594,92.8962645 C400.4416,93.381221 400.388604,93.8851758 400.549593,94.3821313 C400.59559,94.5241186 400.574591,94.6921035 400.564592,94.8470896 C400.504596,95.7340101 400.59759,97.5038514 400.75058,98.2617834 C400.793577,98.478764 400.958566,98.5807548 401.154554,98.4937626 C401.295545,98.4317682 401.419536,98.333777 401.556528,98.2597836 C401.910504,98.0668009 402.249482,97.820823 402.627458,97.6998338 C403.329412,97.474854 403.796382,96.9519009 404.217354,96.4369471 C404.572331,96.0009861 405.013302,95.5550261 405.002303,94.8830864 C404.997303,94.5501162 405.264286,94.3811314 405.595264,94.4351265 C406.244222,94.5401171 406.89418,94.6561067 407.531138,94.8180922 C408.031106,94.9460807 408.513074,95.1450629 409.000043,95.3210471 C409.04204,95.3360458 409.090037,95.4190383 409.083037,95.4610346 C409.075038,95.5050306 409.010042,95.5540262 408.959045,95.5720246 C408.821054,95.6200203 408.596069,95.6130209 408.554072,95.7000131 C408.481076,95.8489998 408.510074,96.0529815 408.517074,96.2319654 C408.521074,96.3229573 408.557071,96.4189487 408.604068,96.4979416 C408.674064,96.6209306 408.804055,96.8409108 408.843053,96.827912 C409.099036,96.7409198 409.012042,96.5479371 408.920048,96.381952 C408.825054,96.2119672 408.840053,96.1069766 409.048039,96.046982 C409.19803,96.0039859 409.360019,95.9559902 409.479011,95.8629985 C409.870986,95.5550261 410.318957,95.746009 410.738929,95.702013 C411.171901,95.6550172 411.1839,95.6890141 411.232897,96.1279748 C411.277894,96.5279389 411.34689,96.9259032 411.075907,97.2808714 C411.109905,98.0937985 410.587939,98.7247419 410.369953,99.4466772 C410.104971,100.322599 409.595004,101.069532 409.294023,101.916456 C409.19603,102.191431 408.353085,103.144346 408.089102,103.438319 C407.621132,103.958273 406.976174,104.235248 406.458208,104.681208 C406.014237,105.063174 405.517269,105.156165 404.998303,104.850193 C404.820315,104.745202 404.708322,104.796198 404.58233,104.896189 C404.342346,105.087171 404.195356,105.471137 403.772383,105.268155 C403.559397,105.533132 403.237418,105.591126 402.939437,105.653121 C401.960501,105.853103 400.967566,105.764111 399.97963,105.740113 C399.340672,105.398144 398.553723,105.700117 397.927764,105.271155 C397.856769,105.223159 397.693779,105.32315 397.574787,105.320151 C397.464794,105.317151 397.346802,105.283154 397.248808,105.230159 C397.06582,105.133167 396.980826,104.977181 397.055821,104.7652 C396.888832,104.792198 396.722842,104.827195 396.554853,104.842193 C396.501857,104.846193 396.418862,104.812196 396.391864,104.7692 C396.158879,104.386234 395.725907,104.338239 395.37293,104.162254 C394.505987,103.728293 393.780034,103.112349 393.08008,102.457407 C392.719103,102.121437 392.350127,101.801466 391.922155,101.53749 C391.356192,101.189521 391.022214,100.597574 390.584242,100.116617 C390.291262,99.794646 390.084275,99.393682 389.778295,99.0897092 C389.452316,98.7657383 389.261329,98.3907719 389.144336,97.9698096 C389.044343,97.6118417 389.000346,97.2468744 388.746362,96.9359023 C388.647369,96.8149132 388.62337,96.5539366 388.683366,96.40395 C388.822357,96.0569811 388.746362,95.7340101 388.704365,95.3930407 C388.515377,93.8481792 388.353388,92.3033177 388.405384,90.7404578 C388.443382,89.589561 388.46938,88.4386642 388.391385,87.2827678 C388.328389,86.3558509 388.464381,85.4159352 388.526377,84.4820189 C388.567374,83.8610746 388.655368,83.2411302 388.508378,82.6191859 C388.47438,82.4761987 388.527376,82.3132134 388.540376,82.1592272 C388.558374,81.9452463 388.598372,81.7292657 388.589372,81.5162848 C388.568374,80.9623345 388.423383,80.4033846 388.667367,79.8614332 C388.695365,78.3875653 388.685366,78.4655583 387.317455,78.3835657 C386.425513,78.6265439 385.510573,78.5095544 384.606632,78.5655494 C384.209658,78.5895472 383.823683,78.6975375 383.41171,78.6555413 C383.214723,78.6355431 382.994737,78.770531 382.79475,78.8555234 C382.535767,78.9665134 382.302782,78.904519 382.072797,78.7845297 C381.859811,78.6735397 381.739819,78.5185536 381.799815,78.2545772 C381.854811,78.0125989 381.87781,77.7636213 381.916807,77.5176433 C381.940806,77.3656569 382.0288,77.1936724 381.984803,77.0646839 C381.679823,76.1417667 382.107795,75.1948516 381.87081,74.2749341 C381.855811,74.2169393 381.87081,74.1499453 381.87881,74.0879508 C381.941806,73.6299919 382.318781,73.3730149 382.672758,73.6359913 C383.092731,73.9479634 383.552701,73.918966 384.005671,73.9959591 C384.126663,74.0159573 384.260654,74.0179571 384.379647,73.9899596 C385.24659,73.7839781 386.118533,73.8039763 387.000476,73.8689704 C387.462446,73.9029674 387.934415,73.8229746 388.401385,73.7869778 C388.618371,73.7709792 388.743362,73.6349914 388.77436,73.4310097 C388.807358,73.2150291 388.812358,72.9960487 388.833357,72.7780683 C388.883353,72.2531153 388.93635,71.7271625 388.986347,71.2022095 C388.998346,71.0772208 389.024344,70.9502321 389.010345,70.829243 C388.879354,69.6073525 389.127337,68.4104598 389.228331,67.2035681 C389.358322,65.6487075 389.526311,64.0938469 389.556309,62.5359865 C389.574308,61.5740728 389.517312,60.6101592 389.589307,59.6452457 C389.669302,58.5873406 389.719299,57.5274356 389.774295,56.4675306 C389.798294,56.0085718 389.885288,55.559612 389.558309,55.124651 C389.356322,54.8556751 389.753297,54.1967342 390.111273,54.0897438 C390.542245,53.9597555 390.975217,53.9897528 391.414188,54.0617463 C392.074145,54.1697366 392.709104,54.4157146 393.38906,54.422714 C393.921025,54.4287134 394.45699,54.5037067 394.982956,54.4547111 C395.466924,54.4097151 395.735907,54.6286955 395.963892,54.9776642 L395.955892,55.0116612 L396.025888,54.9966625 L395.979891,54.9986623 L395.963892,54.9776642 Z M351.848766,82.1712261 C351.981758,81.6642715 352.082751,81.1533174 352.283738,80.6643612 C352.389731,80.4063843 352.434728,80.1234097 352.508723,79.852434 C352.55772,79.6724501 352.572719,79.4704682 352.665713,79.3174819 C353.005691,78.7585321 353.242675,78.1475868 353.570654,77.587637 C354.326605,76.294753 355.108554,75.0158676 355.913501,73.7529808 C356.586458,72.6970755 357.455401,71.8071553 358.423338,71.0112267 C358.660322,70.8172441 358.916306,70.7532498 359.211287,70.8842381 C359.642258,71.0762208 360.089229,71.0162262 360.498203,70.8562406 C360.957173,70.6782565 361.422143,70.6902554 361.889112,70.6812563 C362.328083,70.6722571 362.773055,70.6722571 363.205026,70.7382511 C364.282956,70.9022364 365.319889,70.7082538 366.351821,70.4512769 C366.790793,70.3412867 367.202766,70.3512858 367.647737,70.4582762 C368.091708,70.5642667 368.568677,70.5302698 369.027647,70.5792654 C369.319628,70.6102626 369.604609,70.7012545 369.89659,70.7272521 C370.175572,70.7522499 370.464553,70.6932552 370.740535,70.7322517 C371.536484,70.8462415 372.215439,71.2232077 372.837399,71.7171634 C373.031386,71.8711496 373.234373,72.1091282 373.448359,72.1261267 C373.979324,72.1701228 374.180311,72.5310904 374.398297,72.9050569 C374.426295,72.9540525 374.398297,73.0500439 374.432295,73.0760415 C374.829269,73.3730149 375.215244,73.6899865 375.641216,73.9389642 C375.871201,74.0729522 376.026191,74.2289382 376.167182,74.4439189 C376.50816,74.966872 376.894134,75.4618276 377.224113,75.9907802 C377.553091,76.5167331 377.88207,77.0506852 378.126054,77.6176344 C378.447033,78.357568 378.670019,79.1394979 378.964,79.8924304 C379.098991,80.2363996 379.302977,80.555371 379.477966,80.8843415 C379.917937,81.7092675 380.293913,82.5761898 380.817879,83.3441209 C381.310847,84.0640564 381.767817,84.8029901 382.214788,85.5479233 C382.551766,86.1078731 382.839747,86.6948205 383.144727,87.2737686 C383.317716,87.603739 383.481705,87.938709 383.650694,88.2696793 C383.706691,88.3796695 383.799684,88.4816603 383.823683,88.5976499 C383.965674,89.3025867 384.342649,89.9155318 384.588633,90.5804721 C384.651629,90.749457 384.733624,90.9464393 384.699626,91.1074249 C384.63463,91.4113976 384.764622,91.5753829 384.977608,91.7413681 C385.022605,91.775365 385.029604,91.920352 384.994607,91.9793467 C384.926611,92.0923366 384.618631,91.9613483 384.693626,92.2073263 C384.723624,92.3063174 384.93661,92.366312 385.076601,92.4143077 C385.336584,92.5032997 385.486575,92.6942826 385.607567,92.9182625 C385.673562,93.0382518 385.680562,93.1482419 385.538571,93.2342342 C385.494574,93.2612318 385.287588,93.2442333 385.456577,93.3862206 C385.55057,93.4652135 385.698561,93.5012103 385.760557,93.5962018 C386.026539,94.0101646 386.364517,94.407129 386.136532,94.9680788 C386.085536,95.0930675 386.095535,95.3370457 386.296522,95.3390455 C386.656498,95.344045 386.674497,95.5930227 386.753492,95.8290016 C387.012475,96.5969327 387.282458,97.3598643 387.541441,98.1277955 C387.590437,98.2707826 387.598437,98.4277686 387.640434,98.5727556 C387.70043,98.7767373 387.766426,98.9777193 387.843421,99.1747016 C387.990411,99.5486681 388.235395,99.9086358 388.274393,100.291601 C388.31639,100.705564 388.47538,101.024536 388.758361,101.258515 C389.169335,101.598484 389.256329,102.038445 389.291327,102.510403 C389.309325,102.75738 389.287327,103.009358 389.269328,103.258335 C389.253329,103.482315 389.074341,103.557309 388.894353,103.623303 C388.724364,103.687297 388.589372,103.630302 388.47538,103.505313 C388.433383,103.459317 388.394385,103.409322 388.353388,103.361326 C387.976412,102.921366 387.980412,102.932365 387.438447,103.136346 C386.972478,103.311331 386.506508,103.53731 386.02254,103.596305 C385.339584,103.677298 384.925611,104.081262 384.522637,104.54722 C384.403645,104.685208 384.310651,104.850193 384.17466,104.968182 C383.953674,105.162165 383.71569,105.284154 383.416709,105.066173 C383.194724,104.903188 383.018735,105.031177 382.852746,105.21216 C382.042799,106.097081 381.501834,105.942095 381.058863,104.796198 C380.991867,104.623213 380.962869,104.43223 380.871875,104.273244 C380.588894,103.779289 380.425904,103.249336 380.312912,102.696386 C380.270914,102.495404 380.321911,102.150435 379.906938,102.332418 C379.890939,102.339418 379.789946,102.234427 379.798945,102.213429 C379.955935,101.876459 379.676953,101.619482 379.610957,101.332508 C379.540962,101.020536 379.350974,100.673567 379.10499,100.473585 C378.612022,100.073621 378.230047,99.5956639 377.849072,99.103708 C377.460098,98.601753 376.978129,98.2117879 376.35417,98.0268045 C376.272175,98.0038066 376.176181,97.9998069 376.091187,98.0158055 C376.04019,98.0258046 375.986194,98.0837994 375.959195,98.1337949 C375.949196,98.1527932 376.003192,98.233786 376.04219,98.2467848 C376.232178,98.311779 376.317172,98.4257687 376.152183,98.5777551 C375.864202,98.8427314 375.675214,99.1897003 375.231243,99.3216884 C374.917263,99.41568 374.480292,99.6156621 374.585285,100.141615 C374.591284,100.168612 374.437295,100.272603 374.371299,100.261604 C374.063319,100.209609 373.88833,100.397592 373.758339,100.606573 C373.524354,100.985539 373.323367,101.377504 372.777403,101.349507 C372.721406,101.346507 372.66141,101.472496 372.600414,101.53549 C372.141444,102.010447 371.552482,102.31642 370.946522,102.481405 C370.538549,102.592395 370.107577,102.664389 369.687604,102.771379 C369.272631,102.87637 368.82566,102.862371 368.392688,102.890368 C367.927719,102.921366 367.462749,102.953363 366.997779,102.962362 C365.267892,102.996359 364.665931,102.884369 363.182028,102.31642 C362.657062,102.115438 362.110098,101.970451 361.589132,101.76147 C361.275152,101.635481 360.945174,101.483495 360.705189,101.256515 C360.070231,100.658569 359.334279,100.164613 358.812313,99.448677 C358.724318,99.3286878 358.595327,99.2086985 358.458336,99.158703 C358.026364,98.9967176 357.762381,98.6767462 357.503398,98.3187783 C357.138422,97.8148235 356.795444,97.2838711 356.24948,96.9379021 C356.198483,96.9049051 356.156486,96.8519099 356.121488,96.8009144 C355.396535,95.7200113 354.422599,94.8110928 353.930631,93.5672044 C353.799639,93.2372339 353.612651,92.8812659 353.227676,92.7222801 C352.943695,92.6052906 352.799704,92.3613125 352.699711,92.0933365 C352.241741,90.8694462 351.773771,89.6505555 351.722775,88.3166751 C351.687777,87.3827588 351.583784,86.4518423 351.541786,85.9208899 C351.578784,84.3950267 351.558785,83.2811266 351.848766,82.1712261 Z M350.437858,95.7490087 C351.116814,95.9709888 351.756772,96.2749616 352.342734,96.6749257 C352.738708,96.9449015 352.800704,97.4508562 352.522722,97.8278224 C352.448727,97.9268135 352.331735,97.9978071 352.267739,98.1017978 C352.000756,98.5317592 351.510788,98.8067346 351.463791,99.4006813 C351.444793,99.6436596 351.201808,99.8936371 351.008821,100.090619 C350.856831,100.247605 350.731839,100.382593 350.655844,100.601574 C350.591848,100.788557 350.390861,100.935544 350.231872,101.081531 C350.050883,101.247516 349.840897,101.382504 349.659909,101.550489 C349.479921,101.716474 349.348929,101.907457 349.047949,101.929455 C348.812964,101.945453 348.609977,102.121437 348.469986,102.358416 C348.227002,102.771379 347.855027,103.033356 347.409056,103.240337 C346.758098,103.54231 346.139138,103.907277 345.425185,104.059264 C345.335191,104.078262 345.245197,104.121258 345.168202,104.171254 C344.338256,104.707206 343.384318,104.907188 342.455378,105.175164 C342.036406,105.296153 341.623433,105.43414 341.20246,105.54513 C340.89948,105.624123 340.5925,105.689118 340.27452,105.577128 C340.162528,105.537131 340.019537,105.526132 339.907544,105.558129 C339.704558,105.614124 339.501571,105.804107 339.321583,105.77811 C338.676625,105.687118 338.031667,105.563129 337.404707,105.387145 C336.471768,105.126168 335.551828,104.818196 334.630888,104.514223 C334.426901,104.447229 334.245913,104.312241 334.047926,104.220249 C333.438966,103.935275 332.957997,103.382324 332.225045,103.353327 C331.649082,102.889369 330.862134,102.752381 330.359166,102.162434 C330.201177,101.97645 329.965192,101.857461 329.782204,101.689476 C329.553219,101.478495 329.318234,101.266514 329.130247,101.022536 C328.500288,100.207609 327.925325,99.348686 327.260368,98.5647563 C326.829396,98.0538021 326.654408,97.4678546 326.584412,96.861909 C326.537416,96.4499459 326.403424,96.0899782 326.241435,95.73501 C325.930455,95.055071 325.733468,94.3401351 325.532481,93.6261991 C325.515482,93.5662044 325.479484,93.4902113 325.500483,93.4442154 C325.746467,92.9072635 325.459486,92.4133078 325.383491,91.9043534 C325.369492,91.8113618 325.345493,91.7173702 325.346493,91.6253785 C325.359492,90.8774455 325.216502,90.1425114 325.153506,89.4045776 C325.052512,88.2316827 324.886523,87.0447891 325.114508,85.8568956 C325.267498,85.060967 325.379491,84.2560392 325.469485,83.4511113 C325.54748,82.752174 325.85246,82.139229 326.116443,81.5072856 C326.295431,81.0783241 326.47542,80.6483626 326.640409,80.2144015 C326.805398,79.7814404 326.937389,79.33948 327.250369,78.9725129 C327.410359,78.7865296 327.500353,78.5415515 327.621345,78.3225712 C327.832331,77.9396055 328.037318,77.5606395 328.376296,77.2586665 C328.582282,77.074683 328.754271,76.8327047 328.878263,76.5857269 C329.148245,76.048775 329.591217,75.6538104 329.962192,75.1998511 C330.971127,73.9659618 332.191047,72.9360541 333.311974,71.8091551 C333.618954,71.5001828 333.98993,71.2542049 334.331908,70.9792295 C334.624889,70.7442506 334.926869,70.5202707 335.20985,70.2732928 C335.422837,70.0873095 335.614824,69.8963266 335.915804,69.836332 C336.090793,69.8013351 336.309779,69.713343 336.397773,69.5773552 C336.624758,69.2243869 336.879742,69.1843905 337.270716,69.2853814 C338.011668,69.4763643 338.766619,69.2693828 339.51357,69.2443851 C340.020537,69.2273866 340.508505,69.2333861 340.998473,69.3533753 C341.239458,69.41237 341.485442,69.4493667 341.730426,69.4963625 C341.914414,69.5313593 342.109401,69.5393586 342.28139,69.6053527 C343.529308,70.0893093 344.827224,70.4142802 346.105141,70.8032453 C346.311127,70.8662397 346.509114,70.9782296 346.689102,71.0992188 C347.890024,71.9031467 348.898958,72.9120562 349.8029,74.0289561 C349.859896,74.0999497 349.906893,74.1829423 349.94389,74.2669348 C350.301867,75.055864 350.656844,75.8447933 351.011821,76.6347225 C351.062818,76.7487123 351.134813,76.8587024 351.157811,76.9786916 C351.392796,78.1705848 351.63678,79.361478 351.460792,80.588368 C351.3378,81.4482909 351.298802,82.3222126 350.942825,83.1391393 C350.72084,83.6500935 350.591848,84.2010441 350.353864,84.7019992 C350.10788,85.2209527 349.783901,85.7029094 349.49192,86.2018647 L349.497919,86.2078642 C349.101945,87.0397896 348.501984,87.7107294 347.80103,88.295677 C347.693037,88.3856689 347.525048,88.4156662 347.379058,88.4466634 C347.250066,88.4726611 347.135073,88.48566 347.150072,88.6566446 C347.176071,88.9566177 347.021081,89.1176033 346.740099,89.1805976 C346.57811,89.5985602 346.219133,89.7275486 345.831158,89.6835526 C345.531178,89.6505555 345.34219,89.734548 345.1942,89.9605277 C344.953216,90.325495 344.643236,90.5514747 344.182266,90.5324764 C344.094272,90.5284768 343.95728,90.5414756 343.922283,90.5964707 C343.542308,91.1944171 342.74036,91.0944261 342.287389,91.5873819 C342.163397,91.7223698 341.885415,91.7683656 341.679429,91.7653659 C341.456443,91.7623662 341.260456,91.7883638 341.04447,91.8463586 C340.74849,91.9273514 340.43051,91.9243516 340.12053,91.9483495 C339.589565,91.9903457 339.0586,92.0303421 338.527634,92.0603395 C337.940673,92.0933365 337.351711,92.0913367 336.767749,92.1493315 C336.302779,92.1953274 336.125791,92.4243068 336.265782,92.8422693 C336.557763,93.7151911 336.483767,94.6361085 336.678755,95.523029 C336.766749,95.9219932 336.821745,96.3129582 337.031732,96.6699262 C337.110727,96.8039142 337.196721,96.939902 337.238718,97.0878887 C337.573696,98.2597836 338.473638,98.8377318 339.534569,99.2346962 C339.698558,99.2956908 339.905544,99.2676933 340.089532,99.2506948 C341.073468,99.1577031 341.843418,98.6167516 342.58937,98.0368036 C342.762358,97.9018157 342.914348,97.7418301 343.084337,97.6028425 C343.210329,97.5008517 343.34432,97.5008517 343.516309,97.5278493 C343.96928,97.5968431 344.049274,97.552847 344.145268,97.1208857 C344.199265,96.8749078 344.327256,96.7149221 344.512244,96.6139312 C344.88722,96.4069497 345.122205,96.0979774 345.335191,95.7400095 C345.488181,95.4800329 345.725165,95.2680519 345.925152,95.0340728 C346.126139,94.8010937 346.326126,94.5671147 346.531113,94.3351355 C346.592109,94.2661417 346.665104,94.207147 346.7321,94.1421528 C346.906088,93.973168 346.812094,93.5542055 347.126074,93.5652045 C347.550046,93.5812031 347.981018,93.6261991 348.358994,93.9181729 C348.896959,94.3341356 349.473921,94.7001028 350.047884,95.06607 C350.313866,95.2350548 350.431859,95.4550351 350.437858,95.7490087 Z M416.071582,105.362147 L415.864595,105.362147 L415.864595,105.226159 L415.967589,105.226159 C415.967589,105.226159 416.066582,105.226159 416.071582,105.362147 Z M421.284242,105.362147 L421.284242,105.089171 C421.284242,105.226159 421.439232,105.226159 421.284242,105.362147 Z M416.380562,104.816196 C416.24757,104.819196 416.229571,104.866191 416.226572,104.816196 L416.380562,104.816196 Z M423.607091,104.611214 L423.710084,104.611214 L423.710084,104.475226 C423.710084,104.611214 423.710084,104.611214 423.607091,104.611214 Z M414.677673,104.270245 L414.677673,104.407232 C414.677673,104.270245 414.574679,104.270245 414.574679,104.270245 L414.677673,104.270245 Z M423.710084,103.997269 L423.607091,103.930275 L423.710084,103.930275 L423.710084,103.997269 Z M414.264699,103.725294 L414.212703,103.725294 L414.212703,103.588306 C414.212703,103.622303 414.216703,103.639301 414.220702,103.648301 L414.2567,103.665299 L414.264699,103.725294 Z M345.486181,102.589395 C345.528178,102.572397 345.571175,102.554399 345.613173,102.5374 C345.599173,102.516402 345.585174,102.479405 345.570175,102.478405 C345.545177,102.478405 345.519179,102.501403 345.49418,102.514402 C345.491181,102.5394 345.488181,102.564398 345.486181,102.589395 Z M346.26413,101.793467 L346.26813,101.786467 L346.313127,101.747471 L346.245131,101.76247 L346.26413,101.793467 C346.153137,101.970451 346.031145,102.138436 345.946151,102.323419 C345.920153,102.378414 345.985148,102.5344 346.038145,102.552399 C346.139138,102.584396 346.281129,102.584396 346.369123,102.5334 C346.501115,102.458407 346.602108,102.331419 346.487116,102.155434 L346.26413,101.793467 Z M413.902723,102.018447 C413.851726,102.086441 413.902723,102.086441 414.006716,102.086441 C414.057713,102.086441 414.057713,102.086441 414.057713,102.018447 C414.057713,101.882459 414.057713,101.882459 414.006716,101.814465 C414.006716,101.882459 413.902723,101.882459 413.902723,102.018447 Z M413.438753,100.927544 L413.33576,100.927544 C413.282763,100.937544 413.271764,100.995538 413.128773,100.995538 L413.128773,101.336508 C413.283763,101.404502 413.283763,101.540489 413.283763,101.609483 C413.077777,101.404502 413.077777,101.404502 413.128773,100.790557 C413.283763,100.722563 413.33576,100.722563 413.438753,100.585575 L413.438753,100.927544 Z M402.584461,99.5426686 L402.656456,99.5736658 L402.659456,99.5126713 L402.584461,99.5426686 Z M403.854378,99.0747106 L403.781383,99.0797101 C403.709387,99.0727107 403.636392,99.0647115 403.563397,99.0577121 C403.540398,99.0497128 403.5174,99.0417135 403.494401,99.0337142 C403.5104,99.0497128 403.526399,99.0667113 403.541398,99.0827098 C403.629392,99.0887093 403.716387,99.0947088 403.803381,99.1017081 L403.854378,99.0747106 L404.238353,99.0497128 C404.263351,99.047713 404.28435,99.013716 404.307348,98.9947177 C404.268351,98.9617207 404.213354,98.891727 404.191356,98.9007262 L403.854378,99.0747106 Z M414.212703,95.9459911 L414.057713,95.9459911 L414.057713,95.8779972 L414.212703,95.8779972 L414.212703,95.9459911 Z M350.437858,95.7490087 L350.426859,95.7450091 L350.41286,95.791005 L350.438858,95.7630075 L350.437858,95.7490087 Z M347.849027,95.3820416 C347.845027,95.4050396 347.870026,95.4330371 347.882025,95.4590347 C347.899024,95.4360368 347.930022,95.4130389 347.929022,95.3910408 C347.926022,95.3360458 347.908023,95.2820506 347.896024,95.2270555 C347.879025,95.2790509 347.857026,95.3290464 347.849027,95.3820416 Z M362.742057,91.6763739 C362.742057,91.8013627 362.717058,91.931351 362.746056,92.0493404 C363.018039,93.1462421 363.565003,94.1151552 364.191962,95.0420721 C364.276957,95.1690607 364.405948,95.2720515 364.52994,95.3660431 C364.598936,95.4180384 364.720928,95.478033 364.782924,95.4520354 C365.207896,95.2700517 365.695864,95.1470627 366.024843,94.8520892 C366.52981,94.3991298 366.932783,93.8301808 367.362755,93.2972286 C367.588741,93.0182536 367.833725,92.7742754 367.90772,92.3623124 C367.962716,92.05434 368.223699,91.7763649 368.171703,91.4053982 C368.155704,91.2964079 368.2077,91.1314227 368.288695,91.0624289 C368.621673,90.7754547 368.572677,90.2315034 369.024647,90.024522 C369.171638,89.9565281 369.041646,89.8885342 368.968651,89.8535373 C368.694669,89.7185494 368.693669,89.511568 368.872657,89.3255846 C369.081643,89.1076042 369.119641,88.8786247 369.157639,88.5866509 C369.206635,88.2186839 369.052645,87.771724 369.429621,87.4707509 C369.449619,87.4557523 369.412622,87.3297636 369.369625,87.2847676 C369.047646,86.9547972 369.033647,86.9497977 369.247633,86.6198272 C369.310629,86.521836 369.473618,86.4378436 369.324628,86.3408523 C369.025647,86.1458697 369.234633,85.8928924 369.191636,85.6719122 C369.145639,85.4369333 369.000649,85.2219526 368.936653,84.9879735 C368.567677,83.6400944 368.564677,82.2102226 368.007713,80.9033398 C367.960716,80.7933496 367.973716,80.6583617 367.946717,80.5373726 C367.824725,79.9934213 367.743731,79.4354714 367.559743,78.9125183 C367.374755,78.3865654 367.085774,77.8976093 366.841789,77.3916546 C366.800792,77.3076621 366.769794,77.2156704 366.712798,77.1436768 C366.510811,76.8866999 366.089838,76.8667017 365.900851,77.130678 C365.75886,77.3276604 365.60587,77.5626393 365.589871,77.7906188 C365.555873,78.246578 365.337887,78.6205444 365.174898,79.0225084 C365.034907,79.3684774 364.845919,79.718446 364.818921,80.0774138 C364.780924,80.5863682 364.67793,81.0543262 364.460945,81.5152849 C364.236959,81.993242 364.056971,82.4901975 363.869983,82.9841532 C363.704994,83.4201141 363.603,83.8860723 363.388014,84.2940358 C363.177028,84.6920001 363.070035,85.1019633 362.99004,85.5319248 C362.84505,86.2968562 362.678061,87.0587879 362.54207,87.8257191 C362.461075,88.2806783 362.356082,88.7376374 362.54007,89.2045955 C362.654062,89.4935696 362.665062,89.8005421 362.620064,90.1235131 C362.578067,90.4224863 362.640063,90.7404578 362.676061,91.0474303 C362.700059,91.2554116 362.757056,91.4593933 362.799053,91.6653749 C362.780054,91.6693745 362.761055,91.6733741 362.742057,91.6763739 Z M420.303306,93.2842297 C420.303306,93.3522236 420.303306,93.4892113 420.252309,93.4892113 C420.097319,93.3522236 420.097319,93.3522236 420.097319,93.2842297 C420.097319,93.1482419 420.097319,93.1482419 420.252309,93.080248 C420.303306,93.1482419 420.303306,93.2842297 420.303306,93.2842297 Z M368.281696,92.645287 L368.230699,92.6352879 L368.249698,92.6952825 L368.281696,92.645287 Z M368.416687,92.1063353 L368.476683,92.1153345 L368.454684,92.043341 L368.416687,92.1063353 Z M420.819272,91.0324316 C420.504293,91.2374132 420.24731,91.2364133 419.838336,91.1694193 C419.529356,90.8284499 419.16838,90.7594561 418.754407,90.4184867 C418.70341,90.4184867 418.600417,90.4184867 418.600417,90.3494928 C418.497424,89.9405295 418.187444,89.8725356 417.929461,89.8725356 C417.671478,89.8725356 417.567484,89.7365478 417.361498,89.6685539 C417.361498,89.5315662 417.309501,89.5315662 417.309501,89.5315662 C417.000521,89.4635723 416.948525,89.2585907 416.793535,89.053609 C416.742538,88.9176212 416.638545,88.8486274 416.432558,88.6446457 C416.380562,88.6446457 416.226572,88.5766518 416.226572,88.4396641 C416.071582,88.2356824 415.967589,88.1676885 415.657609,88.2356824 L415.657609,88.1676885 C415.812599,87.9617069 415.812599,87.7577252 415.606612,87.6207375 C415.451622,87.5527436 415.451622,87.5527436 415.451622,87.347762 C415.399626,87.2797681 415.399626,87.1427804 415.296632,87.0757864 C415.245636,87.0757864 415.090646,86.9387986 415.038649,86.8018109 C414.987652,86.733817 414.987652,86.5978292 414.832662,86.5298353 C414.780666,86.3928476 414.780666,86.3238538 414.780666,86.1198721 C414.832662,85.8468965 414.832662,85.5049272 414.987652,85.2329516 L414.987652,82.6391841 C414.987652,81.8892514 414.987652,81.4112942 415.038649,80.7283555 L415.038649,77.7946185 C415.038649,76.9756919 414.987652,76.293753 414.987652,75.4058327 L414.987652,73.7689794 C414.832662,73.2910223 414.832662,72.9500528 414.832662,72.5410895 C414.780666,71.9951385 414.780666,71.3811935 414.780666,70.6982547 L414.780666,69.7433403 C414.780666,69.1973893 414.780666,68.7194321 414.987652,68.3094689 C415.038649,68.0364934 415.090646,67.9684995 415.245636,67.8325117 C415.399626,67.5595361 415.657609,67.2185667 415.864595,66.9445913 C415.967589,66.7406096 415.967589,66.7406096 416.071582,66.6726157 C416.071582,66.5356279 416.174575,66.467634 416.226572,66.467634 C416.380562,66.3306463 416.432558,66.3306463 416.535552,66.2626524 C416.742538,66.0576708 416.948525,65.8526892 417.206508,65.7167014 C417.309501,65.7167014 417.361498,65.7167014 417.361498,65.5797136 C417.774471,65.3757319 418.135447,65.3757319 418.39343,65.3757319 L418.600417,65.3757319 C418.754407,65.5797136 418.961393,65.5797136 419.271373,65.5797136 C419.47736,65.5797136 419.735343,65.5797136 419.890333,65.7167014 C420.045323,65.7167014 420.097319,65.8526892 420.252309,65.8526892 C420.303306,65.8526892 420.303306,65.921683 420.406299,65.921683 C420.509293,65.921683 420.613286,66.0576708 420.664283,66.1266646 L420.819272,66.0576708 C420.871269,66.0576708 420.871269,66.1266646 420.923266,66.1266646 C421.078256,65.921683 421.129252,65.921683 421.232245,66.1266646 C421.232245,66.1266646 421.232245,66.2626524 421.284242,66.2626524 C421.439232,66.2626524 421.490229,66.1266646 421.490229,66.1266646 C421.645219,66.2626524 421.697215,66.2626524 421.697215,66.3306463 C421.800208,66.467634 421.800208,66.5356279 421.800208,66.6726157 C421.903202,66.7406096 422.006195,66.7406096 422.006195,66.7406096 C422.006195,67.0135851 422.058192,67.2185667 422.213182,67.4225484 L422.213182,67.62753 C422.368171,68.0364934 422.574158,68.7194321 422.833141,69.1973893 C422.935135,69.4023709 422.935135,69.7433403 423.039128,69.9473221 C423.142121,70.0843098 423.142121,70.1523037 423.142121,70.3572853 C422.935135,70.0843098 422.833141,69.8793282 422.781145,69.4023709 L422.781145,69.7433403 C422.833141,70.1523037 422.935135,70.6982547 423.039128,71.1762119 C423.039128,71.3811935 423.142121,71.6531691 423.142121,71.8581507 C423.194118,72.268114 423.194118,72.5410895 423.194118,72.9500528 C423.348108,73.973961 423.348108,74.8608815 423.348108,75.8157959 C423.400104,76.7707103 423.400104,77.7946185 423.400104,78.8185267 L423.400104,81.2753064 C423.400104,82.0932331 423.503098,83.0491474 423.503098,83.9360679 C423.503098,84.2090434 423.503098,84.414025 423.607091,84.6180067 C423.710084,85.02797 423.607091,85.3009455 423.503098,85.5049272 C423.400104,85.6419149 423.400104,85.7109087 423.400104,85.8468965 C423.503098,86.0518782 423.400104,86.1198721 423.400104,86.3928476 C423.400104,86.5978292 423.348108,86.9387986 423.400104,87.2797681 L423.400104,87.347762 C423.348108,87.7577252 423.348108,88.0307007 423.348108,88.3716702 L423.348108,88.6446457 C423.194118,88.9176212 423.142121,89.1226028 423.142121,89.4635723 L423.039128,89.5315662 C422.833141,89.6685539 422.781145,89.8725356 422.574158,89.9405295 C422.471165,90.1455111 422.264178,90.213505 422.213182,90.4184867 C422.006195,90.6234683 421.800208,90.7594561 421.645219,90.7594561 C421.287242,90.7594561 421.132252,90.8264501 420.871269,91.0324316 L420.819272,91.0324316 Z M372.488421,89.9485288 L372.548418,89.9755264 L372.549418,89.9245309 L372.488421,89.9485288 Z M370.21657,89.6915518 C370.20657,89.6465559 370.152574,89.6105591 370.118576,89.5705627 C370.097577,89.6105591 370.05158,89.6575549 370.06058,89.6905519 C370.072579,89.7385476 370.123576,89.778544 370.162573,89.8265397 C370.183572,89.778544 370.225569,89.7295484 370.21657,89.6915518 Z M424.897007,89.4635723 L425,89.5315662 C424.897007,89.5315662 424.897007,89.6685539 424.897007,89.5315662 L424.794013,89.5315662 L424.897007,89.4635723 Z M413.64474,89.1226028 L413.49075,89.1226028 L413.49075,89.053609 L413.64474,89.053609 L413.64474,89.1226028 Z M370.495551,88.9276203 C370.547548,88.9226208 370.596545,88.8786247 370.646541,88.8516271 C370.622543,88.8176302 370.590545,88.7516361 370.575546,88.7546358 C370.500551,88.7726342 370.429556,88.808631 370.335562,88.8466276 C370.410557,88.8876239 370.455554,88.93162 370.495551,88.9276203 Z M424.174054,87.7577252 L424.174054,87.6207375 C424.174054,87.6207375 424.174054,87.5527436 424.22605,87.5527436 C424.22605,87.6207375 424.22605,87.6207375 424.174054,87.7577252 Z M424.22605,87.1427804 C424.329044,87.0757864 424.329044,87.1427804 424.329044,87.2797681 C424.329044,87.347762 424.329044,87.5527436 424.22605,87.5527436 L424.22605,87.1427804 Z M346.851092,77.8816107 C346.758098,77.4306511 346.672104,77.0096889 346.585109,76.5897265 C346.219133,76.5207327 345.854157,76.450739 345.489181,76.3827451 C345.458183,76.3767456 345.427185,76.3707461 345.396187,76.3687463 C344.929217,76.3257502 344.530243,76.4407399 344.233262,76.8317048 C343.96928,77.1786737 343.724296,77.5526402 343.409316,77.8496136 C342.58737,78.625544 341.921413,79.5254633 341.247457,80.4203831 C340.89548,80.8863413 340.43251,81.2873053 340.340516,81.9122493 C340.327517,81.9972417 340.259521,82.0842339 340.195526,82.150228 C339.491571,82.875163 339.074599,83.7960804 338.510635,84.6160069 C338.089663,85.227952 337.716687,85.8738941 337.346711,86.5188363 C337.242718,86.6998201 337.21572,86.9287995 337.168723,87.1397806 C337.124726,87.3347631 337.236718,87.447753 337.438705,87.3627606 C338.182657,87.0507886 339.015602,87.001793 339.733556,86.6528243 C340.710492,86.176867 341.640431,85.6069181 342.58637,85.0689663 C342.719361,84.993973 342.838353,84.881983 342.941347,84.7669934 C343.398317,84.258039 343.913283,83.7860813 344.279259,83.2181322 C344.663234,82.6231856 345.334191,82.2342204 345.50618,81.4982864 C345.979149,81.0093303 346.181136,80.3813866 346.370123,79.7564426 C346.558111,79.1354983 346.695102,78.4995553 346.851092,77.8826106 L346.851092,77.8816107 Z M349.49192,86.2018647 L349.464922,86.1788668 L349.474921,86.2288623 L349.49192,86.2018647 Z M414.161706,84.5500128 C414.161706,84.6870005 414.161706,84.8229883 414.10971,84.9599761 C414.057713,84.8229883 414.10971,84.6870005 414.161706,84.5500128 Z M414.161706,83.80008 L414.10971,83.868074 L414.10971,83.80008 C414.10971,83.7310862 414.10971,83.6630923 414.161706,83.6630923 C414.212703,83.7310862 414.161706,83.7310862 414.161706,83.80008 Z M414.10971,81.6162758 C414.057713,81.547282 414.10971,81.3433003 414.10971,81.2063126 C414.10971,81.1383187 414.212703,81.001331 414.316696,80.934337 L414.316696,81.1383187 C414.316696,81.2063126 414.212703,81.2753064 414.367693,81.4112942 C414.367693,81.4112942 414.367693,81.6162758 414.316696,81.6842697 C414.212703,81.6162758 414.212703,81.547282 414.212703,81.4112942 C414.161706,81.547282 414.161706,81.547282 414.10971,81.6162758 Z M414.161706,79.9104288 L414.161706,80.5923676 C414.10971,80.1824044 413.95472,79.7734411 414.10971,79.2964838 L414.10971,79.2284899 C414.10971,78.9545145 414.161706,78.7505328 414.367693,78.5455512 C414.419689,78.8185267 414.367693,78.8865206 414.316696,79.5004655 C414.212703,79.5684594 414.161706,79.7054472 414.161706,79.9104288 Z M414.367693,79.7054472 C414.316696,79.6364534 414.316696,79.5684594 414.316696,79.5004655 L414.367693,79.7054472 Z M346.956085,78.692538 L346.891089,78.692538 L346.923087,78.7615318 L346.956085,78.692538 Z M383.10073,77.1906726 C383.008736,77.1876729 382.914742,77.2836643 382.821748,77.3366595 C382.898743,77.4136526 382.964739,77.5336419 383.054733,77.5556399 C383.140727,77.576638 383.25172,77.4966452 383.462706,77.4216519 C383.275719,77.2956632 383.188724,77.1926725 383.10073,77.1906726 Z M385.922546,76.9796915 C385.955544,76.9946902 385.988542,77.0096889 386.02154,77.0246875 C386.01454,77.0036894 386.008541,76.9816914 386.001541,76.9596933 C385.975543,76.9656928 385.948544,76.9726922 385.922546,76.9796915 Z M414.522683,74.6558999 L414.419689,74.6558999 L414.522683,74.5869061 L414.522683,74.6558999 Z M422.006195,66.5356279 L422.058192,66.5356279 L422.058192,66.6726157 C422.058192,66.6726157 422.058192,66.7406096 422.006195,66.7406096 L422.006195,66.5356279 Z M399.204681,57.1034736 C399.155684,57.1744672 399.075689,57.2424611 399.06969,57.3164545 C399.06369,57.3834485 399.140685,57.456442 399.181682,57.5264357 C399.230679,57.4644412 399.279676,57.400447 399.345672,57.3174544 C399.289675,57.233462 399.246678,57.1674679 399.204681,57.1034736 Z" id="logo"></path>
            </g>
        </g>
    </g>
</svg>