<?xml version="1.0" encoding="UTF-8"?>
<svg width="46px" height="46px" viewBox="0 0 46 46" version="1.1" xmlns="http://www.w3.org/2000/svg" xmlns:xlink="http://www.w3.org/1999/xlink">
    <!-- Generator: Sketch 44.1 (41455) - http://www.bohemiancoding.com/sketch -->
    <title>我的_se</title>
    <desc>Created with Sketch.</desc>
    <defs></defs>
    <g id="icon" stroke="none" stroke-width="1" fill="none" fill-rule="evenodd">
        <g id="优集客icon规范" transform="translate(-689.000000, -541.000000)">
            <path d="M729.110199,567.124137 C727.388969,573.909469 719.106709,582.470244 710.441207,582.015059 C696.308669,581.2727 694.335362,566.823569 692.933451,561.854665 C692.109879,558.935613 695.176537,552.056459 698.392166,552.17985 C701.607795,552.303241 693.176533,562.818499 704.59946,570.549986 C715.046251,576.50255 727.712908,569.688172 729.110199,567.124137 Z" id="Shape-Copy" fill="#FFD2CF" transform="translate(710.954035, 567.105342) rotate(27.000000) translate(-710.954035, -567.105342) "></path>
            <path d="M714.012453,564.395989 C716.337119,564.897078 725.501028,566.984535 730.659094,568.163668 C728.719542,576.0117 720.740174,582.284732 712.293052,582.284732 C702.352143,582.284732 694.293052,574.225641 694.293052,564.284732 C694.293052,554.343822 703.243149,545.830741 713.184059,545.830741 C715.420601,545.830741 719.204958,546.372782 721.430949,547.290469 C721.010013,548.483676 718.878224,554.099422 716.565748,560.050181" id="Shape-Copy-2" stroke="#D42A1D" stroke-width="3" stroke-linecap="round" stroke-linejoin="round" transform="translate(712.476073, 564.057736) rotate(27.000000) translate(-712.476073, -564.057736) "></path>
            <circle id="Oval-4-Copy" fill="#D42A1D" cx="712.5" cy="556.062446" r="2.5"></circle>
        </g>
    </g>
</svg>