<?xml version="1.0" encoding="UTF-8"?>
<svg width="196px" height="114px" viewBox="0 0 196 114" version="1.1" xmlns="http://www.w3.org/2000/svg" xmlns:xlink="http://www.w3.org/1999/xlink">
    <!-- Generator: Sketch 44.1 (41455) - http://www.bohemiancoding.com/sketch -->
    <title>纯粹味道3</title>
    <desc>Created with Sketch.</desc>
    <defs>
        <polygon id="path-1" points="0 38.8845655 0 0.286320822 15.308579 0.286320822 15.308579 38.8845655"></polygon>
        <polygon id="path-3" points="1.99556038 67.8317757 0.20937639 67.8317757 0.20937639 0.21201807 1.99556038 0.21201807 1.99556038 67.8317757"></polygon>
        <polygon id="path-5" points="3.44770993e-17 5.35260647 3.44770993e-17 0.0927621412 0.620536203 0.0927621412 0.620536203 5.35260647 0 5.35260647"></polygon>
        <polygon id="path-7" points="6.55394737e-17 13.2346165 6.55394737e-17 0.227207139 3.67477696 0.227207139 3.67477696 13.2346165"></polygon>
        <polygon id="path-9" points="7.19113686e-21 0.235424118 7.19113686e-21 7.14705882 25.8251633 7.14705882 25.8251633 0.235424118"></polygon>
    </defs>
    <g id="Page-1" stroke="none" stroke-width="1" fill="none" fill-rule="evenodd" opacity="0.7">
        <g id="eat首页" transform="translate(-190.000000, -3445.000000)">
            <g id="纯粹味道" transform="translate(0.000000, 1644.000000)">
                <g id="纯粹味道3" transform="translate(190.000000, 1801.000000)">
                    <g id="Page-1">
                        <path d="M12.8268152,5.26790093 C13.0899239,4.18472336 12.2974022,3.27378879 11.1874457,3.15091028 C9.67696739,2.98328411 8.77082246,4.48410654 8.25490217,5.67560187 C5.99735145,10.8904804 4.69849638,16.7151346 3.92053261,22.3238636 C3.55729348,24.9416019 3.32791667,27.5767421 3.24376449,30.218985 C3.19653986,31.7027607 2.68026449,34.5104991 3.96598188,35.6771346 C7.06860507,38.4933963 9.0836413,28.5668729 9.40143116,27.1296206 C10.8842138,20.4206673 11.9991413,13.6367794 12.7877572,6.81205047 C12.8271703,6.47218131 12.2942065,6.47466729 12.2551486,6.81205047 C11.6319964,12.2062748 10.8029022,17.5735084 9.74478623,22.8999009 C9.24910507,25.3968916 8.77472826,27.9269103 8.05641667,30.3713402 C7.71199638,31.5433028 7.2990471,32.7039009 6.72453986,33.7853028 C6.53138043,34.1528729 6.32046739,34.5101439 6.0921558,34.8567607 C5.35609058,34.7512841 4.62002536,34.6454523 3.88360507,34.5396206 C3.65351812,34.269714 3.73909058,32.8860879 3.73873551,32.5099944 C3.73163406,27.5167234 4.25536594,22.5152841 5.26909783,17.6278449 C5.75661232,15.277172 6.35668478,12.9499383 7.06931522,10.6575084 C7.45776449,9.40777009 7.87390942,8.16406916 8.33514855,6.93954579 C8.58476449,6.27685421 8.80632971,5.58468598 9.18448188,4.98165794 C9.84207609,3.93505981 12.8388877,2.96162056 12.3130254,5.12655514 C12.2324239,5.4593215 12.7458587,5.60137757 12.8268152,5.26790093" id="Fill-1" fill="#000000"></path>
                        <path d="M8.83711449,6.3607028 C9.84907101,6.08617944 10.7545058,5.58578692 11.5303391,4.88083364 C11.784571,4.64999252 11.407129,4.27389907 11.1536072,4.50402991 C10.4441725,5.14896449 9.62040435,5.59644112 8.69544058,5.84717009 C8.36486812,5.93702056 8.50512174,6.45090841 8.83711449,6.3607028" id="Fill-3" fill="#000000"></path>
                        <path d="M7.42875507,9.41824673 C8.8067913,8.54992897 10.2448348,7.80484486 11.7535377,7.1900972 C12.0667116,7.06224673 11.9296536,6.54693832 11.6118638,6.67620935 C10.0612623,7.30835888 8.57705942,8.06516262 7.15996522,8.95834019 C6.87058116,9.14088224 7.13759565,9.60185421 7.42875507,9.41824673" id="Fill-5" fill="#000000"></path>
                        <path d="M6.29696159,12.8077047 C8.08439638,11.7046393 9.90343261,10.6591065 11.7562007,9.67004112 C12.0587225,9.50845234 11.7899326,9.04854579 11.4874109,9.21013458 C9.63464275,10.1988449 7.81560652,11.2447327 6.02817174,12.3477981 C5.73701232,12.5274991 6.00438188,12.988471 6.29696159,12.8077047" id="Fill-7" fill="#000000"></path>
                        <path d="M6.10468986,15.371 C7.94822609,14.4270374 9.79211739,13.4830748 11.6360087,12.538757 C11.9410159,12.3828505 11.671871,11.9229439 11.3668638,12.0788505 C9.52332754,13.0231682 7.6797913,13.9671308 5.8359,14.9110935 C5.53053768,15.0673551 5.80003768,15.5269065 6.10468986,15.371" id="Fill-9" fill="#000000"></path>
                        <path d="M4.80700652,18.5152336 C7.06100652,17.2058318 9.31465145,15.8964299 11.5686514,14.5866729 C11.8647819,14.414785 11.5970572,13.9541682 11.2998616,14.1271215 C9.04586159,15.4365234 6.79186159,16.7459252 4.53821667,18.0553271 C4.24208623,18.227215 4.50981087,18.6878318 4.80700652,18.5152336" id="Fill-11" fill="#000000"></path>
                        <path d="M5.02612174,20.5642505 C7.21407826,19.233185 9.40203478,17.9017645 11.5899913,16.5703439 C11.8822159,16.3924187 11.6148464,15.9314467 11.3212014,16.1104374 C9.13324493,17.4418579 6.94528841,18.7729234 4.75733188,20.1043439 C4.46475217,20.2822692 4.73212174,20.7432411 5.02612174,20.5642505" id="Fill-13" fill="#000000"></path>
                        <path d="M4.80178696,23.071043 C6.78593188,21.8859402 8.76972174,20.7011925 10.7538667,19.5160897 C11.0478667,19.3406505 10.7804971,18.8796785 10.4850768,19.0561832 C8.50093188,20.2409308 6.51714203,21.4260336 4.5329971,22.6107813 C4.2389971,22.7865757 4.50636667,23.2471925 4.80178696,23.071043" id="Fill-15" fill="#000000"></path>
                        <path d="M4.20001014,25.7103028 C6.16746667,24.735443 8.08698841,23.6774804 9.96212609,22.5349944 C10.2543507,22.3570692 9.98698116,21.8960972 9.69333623,22.0750879 C7.81819855,23.2175738 5.89867681,24.2755364 3.93122029,25.2503963 C3.62408261,25.4023963 3.89358261,25.8623028 4.20001014,25.7103028" id="Fill-17" fill="#000000"></path>
                        <path d="M3.53130217,28.4352579 C5.46325145,27.2512206 7.39520072,26.0671832 9.32715,24.8831458 C9.61901957,24.7041551 9.35165,24.2431832 9.05800507,24.4228841 C7.12641087,25.6069215 5.19446159,26.791314 3.26251232,27.9753514 C2.97064275,28.1543421 3.23801232,28.615314 3.53130217,28.4352579" id="Fill-19" fill="#000000"></path>
                        <path d="M4.16808913,29.9803308 C5.92463261,28.8286112 7.72485,27.751471 9.56980652,26.7474897 C9.87126304,26.5841252 9.60247319,26.1238636 9.30101667,26.2879383 C7.45570507,27.2912093 5.65584275,28.3683495 3.89929928,29.5204243 C3.61382101,29.707228 3.88012536,30.1689103 4.16808913,29.9803308" id="Fill-21" fill="#000000"></path>
                        <path d="M4.00962029,32.5609925 C5.51903333,31.657871 7.0280913,30.7551047 8.53750435,29.8523383 C8.83150435,29.6765439 8.56377971,29.215572 8.26871449,29.3924318 C6.75930145,30.2951981 5.25024348,31.1979645 3.74083043,32.1007308 C3.44718551,32.2765252 3.71455507,32.7374972 4.00962029,32.5609925" id="Fill-23" fill="#000000"></path>
                        <path d="M4.32623841,34.3259327 C5.50223841,33.7395963 6.67823841,33.1532598 7.85423841,32.5669234 C8.16102101,32.4138579 7.89152101,31.9543065 7.58544855,32.1070168 C6.40944855,32.6933533 5.23344855,33.2796897 4.05744855,33.8660262 C3.75066594,34.0190916 4.02016594,34.478643 4.32623841,34.3259327" id="Fill-25" fill="#000000"></path>
                        <g id="Group-29" transform="translate(0.000000, 0.068897)">
                            <mask id="mask-2" fill="white">
                                <use xlink:href="#path-1"></use>
                            </mask>
                            <g id="Clip-28"></g>
                            <path d="M15.0496399,8.49513084 C15.3709804,6.17890654 15.6962268,3.47557944 14.0167341,1.56705607 C12.4980891,-0.158214953 10.2309514,-0.028588785 8.49145145,1.28933645 C6.35213986,2.91019626 5.2787558,5.5758785 4.45037174,8.0441028 C3.28963986,11.5024579 2.50563986,15.1188505 1.81502391,18.6965327 C1.16985725,22.0380467 0.67311087,25.407972 0.322654348,28.7931682 C0.0439224638,31.4858411 -0.538396377,34.7900654 1.19187174,37.1481963 C2.40408913,38.7999533 4.38752391,39.333729 6.25698043,38.4874299 C8.4946471,37.4749252 9.8176471,35.2006075 10.6946761,33.0204019 C12.1714225,29.3507383 12.9007413,25.2911308 13.5831906,21.4101589 C14.2773572,17.4624206 14.7354007,13.4805888 14.9910529,9.481 C15.0127123,9.13864486 14.4801036,9.13971028 14.4584442,9.481 C14.0273862,16.2300841 13.0346036,22.9891121 11.2706036,29.524757 C10.4283717,32.6446636 9.09436449,36.9873178 5.65832826,38.1614112 C1.0079442,39.7510187 0.421719565,33.8265701 0.664944203,30.811785 C1.20429928,24.1223645 2.38669058,17.4443084 4.13719783,10.9661963 C4.94960362,7.95886916 5.86782101,4.47174766 8.18857464,2.24430841 C9.87232826,0.628775701 12.4075457,0.140457944 13.8984949,2.28479439 C15.1309514,4.05694393 14.8138717,6.35043925 14.5362051,8.35378505 C14.4896906,8.68868224 15.0027703,8.83357944 15.0496399,8.49513084" id="Fill-27" fill="#000000" mask="url(#mask-2)"></path>
                        </g>
                        <path d="M13.7252551,1.96239813 C37.9614362,18.7591084 67.5538855,25.3132206 96.0669145,30.6847159 C118.296936,34.8728841 140.640581,38.4157626 162.962922,42.0666037 C173.818907,43.8419495 184.680929,45.5938561 195.510994,47.5204916 C195.846538,47.5801551 195.989987,47.0669776 195.652668,47.0069589 C175.193038,43.3671271 154.6489,40.1985664 134.146661,36.8119495 C108.690806,32.6070897 82.9320739,28.6756879 58.1245812,21.4620804 C42.5578493,16.9358187 27.3728203,10.7741364 13.9940449,1.50249159 C13.7117623,1.30680935 13.4451029,1.76813645 13.7252551,1.96239813" id="Fill-30" fill="#000000"></path>
                        <path d="M5.72277391,39.3852953 C33.4922812,27.1549776 64.5188681,32.2146598 93.4792884,36.2920243 C115.752629,39.4279121 138.02597,42.5645103 160.29931,45.7007533 C171.758564,47.3141551 183.218172,48.9279121 194.677781,50.541314 C195.01297,50.5885477 195.157839,50.0753701 194.819455,50.0277813 C172.623165,46.9025477 150.42723,43.7769589 128.230941,40.6513701 C117.303941,39.1129028 106.376586,37.5740804 95.4492304,36.0356131 C81.5836507,34.0834075 67.6999623,31.9053327 53.6934188,31.3040804 C37.3054043,30.6005477 20.5949841,32.2569215 5.45398406,38.9250336 C5.14081014,39.0631832 5.41173043,39.5223794 5.72277391,39.3852953" id="Fill-32" fill="#000000"></path>
                        <path d="M63.2443355,23.0682729 C65.0857413,23.3190019 64.3312123,27.3107776 64.19735,28.5076 C64.0975746,29.3997121 63.9612268,30.291114 63.7875964,31.1718617 C63.7087703,31.5848897 63.6185819,31.9954318 63.5159659,32.4027776 C63.3561833,33.8229832 62.5153717,34.002329 60.9935312,32.9415252 C61.2367558,32.6989645 60.8600239,32.3225159 60.6167993,32.5647215 C59.9524587,33.2267028 60.0327051,34.3453944 60.9125746,34.8173757 C62.2004225,35.5077682 63.3945312,34.2033383 63.8337558,33.1507028 C64.7338645,30.9921607 64.8819297,28.0615439 64.9216978,25.7470953 C64.9426471,24.5282542 64.9099804,22.7621421 63.3860094,22.5547402 C63.050821,22.5092822 62.9055964,23.0224598 63.2443355,23.0682729" id="Fill-34" fill="#000000"></path>
                        <path d="M151.750301,40.2401888 C152.765809,39.5959645 153.762142,40.4955346 154.042294,41.4700393 C154.237229,42.1476467 154.183968,42.9889738 154.074251,43.6790112 C153.996135,44.1701701 153.865468,44.6897402 153.604135,45.1183944 C153.307294,45.6056467 152.879077,45.9618523 152.288236,45.9252729 C151.677867,45.887628 150.848062,45.4664318 151.161946,44.6165813 C151.280896,44.2948243 150.766396,44.1556093 150.648157,44.4752355 C150.281722,45.4678523 151.1062,46.3340393 152.075548,46.4846187 C153.205388,46.6597028 154.001816,45.7217776 154.354048,44.757572 C154.814577,43.4975346 154.969388,41.5474598 154.156628,40.4071047 C153.538801,39.5402075 152.401149,39.1967869 151.481512,39.7799271 C151.192838,39.9631794 151.459852,40.4245065 151.750301,40.2401888" id="Fill-36" fill="#000000"></path>
                        <path d="M61.1220319,35.7665944 C84.5841551,39.1610243 108.124749,42.0021458 131.72251,44.267585 C138.491257,44.9178467 145.264619,45.5190991 152.041532,46.0770243 C152.383112,46.1050804 152.381336,45.5723701 152.041532,45.544314 C128.555974,43.611286 105.116575,41.126015 81.7496116,38.0750056 C74.9144667,37.1821832 68.085713,36.2399963 61.2637058,35.2530617 C60.9285174,35.2044075 60.7836478,35.717585 61.1220319,35.7665944" id="Fill-38" fill="#000000"></path>
                        <path d="M6.11978043,14.0669607 C8.23565725,13.3790542 10.1963674,12.3587364 12.1521065,11.3103626 C12.4542732,11.1484187 12.1854833,10.688157 11.8829616,10.8504561 C9.96841087,11.8771664 8.05101957,12.879372 5.97846159,13.553428 C5.65357029,13.6589047 5.79240362,14.1735028 6.11978043,14.0669607" id="Fill-40" fill="#000000"></path>
                        <path d="M7.17494928,10.709785 C8.83704348,9.79458879 10.5825797,9.12408411 12.4282464,8.68690654 C12.7616594,8.60771028 12.6206957,8.09417757 12.2865725,8.17301869 C10.3965217,8.62085047 8.60731159,9.31301869 6.90615942,10.2498785 C6.60576812,10.4153738 6.8742029,10.8756355 7.17494928,10.709785" id="Fill-42" fill="#000000"></path>
                        <path d="M7.90416159,7.81283551 C9.43239348,7.15547103 10.9766036,6.53894766 12.536437,5.95971402 C12.854937,5.84180748 12.7171688,5.32649907 12.394763,5.44618131 C10.7916109,6.04139626 9.20621232,6.67745234 7.63537174,7.35292897 C7.32113261,7.48788224 7.59240797,7.9470785 7.90416159,7.81283551" id="Fill-44" fill="#000000"></path>
                        <path d="M5.43566232,16.796071 C7.39530725,15.6130991 9.41531449,14.5544262 11.5027855,13.6161458 C11.8152493,13.4758654 11.5446841,13.0166692 11.2343507,13.1562393 C9.14652464,14.0945196 7.12651739,15.1531925 5.16687246,16.3361645 C4.87358261,16.5130243 5.14130725,16.9739963 5.43566232,16.796071" id="Fill-46" fill="#000000"></path>
                        <path d="M4.90252101,19.5224112 C7.07627464,18.0045421 9.37785435,16.7285234 11.816492,15.689028 C12.1307312,15.5551402 11.8598109,15.0959439 11.5477022,15.2291215 C9.10906449,16.2686168 6.80712971,17.5446355 4.63373116,19.0621495 C4.3546442,19.2571215 4.62059348,19.7191589 4.90252101,19.5224112" id="Fill-48" fill="#000000"></path>
                        <path d="M4.77441087,21.6539271 C6.87857029,20.3285439 8.98272971,19.0028056 11.0868891,17.6774224 C11.3762732,17.4948804 11.1092587,17.0335533 10.8180993,17.2171607 C8.71393986,18.5425439 6.60978043,19.8686374 4.50562101,21.1940206 C4.21623696,21.3762075 4.48325145,21.8375346 4.77441087,21.6539271" id="Fill-50" fill="#000000"></path>
                        <path d="M4.21559783,24.4867383 C6.09357609,23.3296916 8.04611957,22.3267757 10.0845906,21.4829626 C10.3970543,21.3540467 10.2599964,20.8383832 9.94291667,20.9694299 C7.86183696,21.8302897 5.86490942,22.8449252 3.94680797,24.0268318 C3.65529348,24.2061776 3.92266304,24.6671495 4.21559783,24.4867383" id="Fill-52" fill="#000000"></path>
                        <path d="M3.67865725,26.9245271 C5.60634565,26.0618916 7.53367899,25.1992561 9.46136739,24.3362654 C9.77383116,24.1963402 9.50326594,23.7371439 9.19257754,23.8763589 C7.2652442,24.7389944 5.3375558,25.6016299 3.40986739,26.4646206 C3.0977587,26.6045458 3.36796884,27.0637421 3.67865725,26.9245271" id="Fill-54" fill="#000000"></path>
                        <path d="M3.82707754,29.139643 C5.52396884,27.8863533 7.32489638,26.8163159 9.23731667,25.9256243 C9.54765,25.7810822 9.27743986,25.3215308 8.96852681,25.4657178 C7.05610652,26.3560542 5.25482391,27.4264467 3.55828768,28.6797364 C3.28559203,28.8811009 3.55083116,29.3438486 3.82707754,29.139643" id="Fill-56" fill="#000000"></path>
                        <path d="M3.81337174,31.5746262 C5.6217558,30.3447757 7.49689348,29.2310561 9.44198043,28.2320467 C9.74698768,28.0754299 9.47784275,27.6158785 9.17319058,27.7721402 C7.22810362,28.7711495 5.35261087,29.884514 3.54458188,31.1147196 C3.26265435,31.3061402 3.5289587,31.7681776 3.81337174,31.5746262" id="Fill-58" fill="#000000"></path>
                        <path d="M3.87423116,33.5386579 C5.28528913,32.5318355 6.81210072,31.7906579 8.47881087,31.3115738 C8.80760797,31.2174617 8.66770942,30.7032187 8.33713696,30.7980411 C6.63136884,31.2884897 5.0509413,32.0474243 3.6054413,33.0783963 C3.32883986,33.2762093 3.59443406,33.7382467 3.87423116,33.5386579" id="Fill-60" fill="#000000"></path>
                        <path d="M4.76137971,35.3698318 C5.42785072,34.9585794 6.12982899,34.6449907 6.88187246,34.4258692 C7.21031449,34.3299813 7.07077101,33.8157383 6.74055362,33.9123364 C5.94696667,34.1431776 5.19563333,34.4755888 4.49258986,34.9099252 C4.20143043,35.0896262 4.46844493,35.5505981 4.76137971,35.3698318" id="Fill-62" fill="#000000"></path>
                        <path d="M9.10636594,5.60397009 C9.83888043,5.3159514 10.5245254,4.94909159 11.1618804,4.48669907 C11.4367065,4.28782056 11.1711123,3.82542804 10.8930906,4.02714766 C10.2940833,4.46112897 9.65388768,4.81982056 8.96469203,5.09008224 C8.64903261,5.21402617 8.78644565,5.72968972 9.10636594,5.60397009" id="Fill-64" fill="#000000"></path>
                        <path d="M60.6885949,35.3362 C60.6161601,54.7510037 60.8086094,74.1537327 61.3046457,93.5617888 C61.467979,99.956443 61.6419645,106.351097 61.8120442,112.745396 C61.820921,113.087751 62.3535297,113.089172 62.3446529,112.745396 C61.8283775,93.3405364 61.2844065,73.9381626 61.2112616,54.5258449 C61.1874717,48.1290598 61.1974138,41.732985 61.2212036,35.3362 C61.2226239,34.9934897 60.6900152,34.9927794 60.6885949,35.3362" id="Fill-66" fill="#000000"></path>
                        <g id="Group-70" transform="translate(152.326087, 45.881981)">
                            <mask id="mask-4" fill="white">
                                <use xlink:href="#path-3"></use>
                            </mask>
                            <g id="Clip-69"></g>
                            <path d="M0.209776812,0.468785047 C0.765465217,11.6439813 1.33748696,22.825215 1.44471884,34.0160374 C1.55195072,45.2061495 1.16882754,56.3941308 0.750552174,67.5750093 C0.737769565,67.9177196 1.27037826,67.9173645 1.28316087,67.5750093 C1.70143623,56.3941308 2.08455942,45.2061495 1.97732754,34.0160374 C1.87009565,22.825215 1.29807391,11.6439813 0.742385507,0.468785047 C0.725342029,0.127495327 0.192733333,0.125364486 0.209776812,0.468785047" id="Fill-68" fill="#000000" mask="url(#mask-4)"></path>
                        </g>
                    </g>
                    <g id="Page-1" transform="translate(71.000000, 98.000000)">
                        <path d="M0.54145342,3.47142609 C1.40896482,3.1968087 2.28443062,3.08938261 3.18858046,3.14435652 C3.53736873,3.16553913 3.53616352,2.59814783 3.18858046,2.57696522 C2.2376684,2.51946957 1.30869121,2.63597391 0.397310098,2.92446087 C0.0641895765,3.02986957 0.206163518,3.5775913 0.54145342,3.47142609" id="Fill-1" fill="#000000"></path>
                        <g id="Group-5" transform="translate(0.000000, 3.271452)">
                            <mask id="mask-6" fill="white">
                                <use xlink:href="#path-5"></use>
                            </mask>
                            <g id="Clip-4"></g>
                            <path d="M0.0306605863,0.366433913 C-0.0223687296,1.93873826 -0.0067009772,3.50852087 0.0776638436,5.07931217 C0.0971882736,5.44244261 0.639774593,5.44496435 0.620009121,5.07931217 C0.5356443,3.50852087 0.519976547,1.93873826 0.573005863,0.366433913 C0.585299023,0.00128608696 0.0429537459,0.00179043478 0.0306605863,0.366433913" id="Fill-3" fill="#000000" mask="url(#mask-6)"></path>
                        </g>
                        <path d="M0.771094463,6.10644174 L2.86020847,6.10644174 C3.20899674,6.10644174 3.20971987,5.53905043 2.86020847,5.53905043 L0.771094463,5.53905043 C0.422065147,5.53905043 0.421583062,6.10644174 0.771094463,6.10644174" id="Fill-6" fill="#000000"></path>
                        <path d="M3.43514267,5.37798696 C3.39778111,6.53092609 3.46503192,7.67075217 3.62628925,8.81183913 C3.67714919,9.1716913 4.19997003,9.01887391 4.14935114,8.66103913 C3.99532508,7.57139565 3.94181368,6.47847391 3.97748795,5.37798696 C3.98929902,5.01283913 3.44695375,5.01334348 3.43514267,5.37798696" id="Fill-8" fill="#000000"></path>
                        <path d="M4.2032241,6.23991739 C4.58840977,5.8909087 5.22693094,5.37092609 5.73191466,5.80340435 C5.99995375,6.03288261 6.38586254,5.6336913 6.11541303,5.40219565 C5.34070293,4.73872609 4.46692443,5.25215217 3.81972573,5.8387087 C3.55554332,6.07802174 3.94048795,6.47796957 4.2032241,6.23991739" id="Fill-10" fill="#000000"></path>
                        <path d="M7.43364951,7.0570113 C8.31923909,7.19495043 9.41839218,6.52164609 9.02067231,5.44864609 C8.59402736,4.29772435 7.44907622,4.79400261 6.912757,5.54068957 C6.30533029,6.38673304 6.12599479,7.73334174 6.93035309,8.51810696 C7.59779935,9.16947217 8.74491987,9.22696783 9.34897199,8.46615913 C9.57024886,8.18700261 9.18867883,7.78352435 8.96547362,8.06495043 C8.170757,9.06658522 6.8529785,8.07680261 6.93878958,6.97026348 C6.98024886,6.43414174 7.23961042,5.89978522 7.63275049,5.54926348 C8.06228795,5.16671565 8.82229446,5.51522 8.48170163,6.1484287 C8.30718697,6.47297652 7.89669186,6.55947217 7.57779283,6.50979391 C7.23647687,6.45658522 7.08895896,7.00329826 7.43364951,7.0570113" id="Fill-12" fill="#000000"></path>
                        <path d="M11.6713186,5.07681565 C10.8616573,4.45722435 9.37707752,4.99738087 9.82638046,6.22319826 C10.0078853,6.71796348 10.4808104,6.84833739 10.9421655,6.86901565 C11.1335531,6.87784174 11.394602,6.83522435 11.5746606,6.91718087 C12.0825368,7.14792 11.7956964,7.47448522 11.5582697,7.71758087 C11.189716,8.09483304 10.7143805,8.26732 10.2074684,8.28068522 C9.85892117,8.28976348 9.85771596,8.85740696 10.2074684,8.84807652 C11.0108625,8.82689391 12.4949603,8.21965913 12.419273,7.14413739 C12.3881785,6.70258087 12.0148039,6.44637217 11.6373316,6.35054609 C11.3598919,6.28018957 11.0660612,6.35483304 10.7932013,6.28624174 C9.8203544,6.04163304 10.6116964,4.96560696 11.3974945,5.56653739 C11.679755,5.78239826 11.9504456,5.29040696 11.6713186,5.07681565" id="Fill-14" fill="#000000"></path>
                        <path d="M12.6521922,1.17427304 C12.7645179,3.69576 12.8768436,6.21724696 12.9889283,8.73873391 C13.0050782,9.1023687 13.5476645,9.10438609 13.5312736,8.73873391 C13.4191889,6.21724696 13.3068632,3.69576 13.1945375,1.17427304 C13.1783876,0.810890435 12.6360423,0.808873043 12.6521922,1.17427304" id="Fill-16" fill="#000000"></path>
                        <path d="M13.2872906,5.32109652 C13.6734404,5.16172261 14.1504632,4.95821826 14.5715642,4.9733487 C15.1874274,4.99528783 15.2633557,5.35715739 15.367486,5.9399313 C15.5282612,6.84019217 15.5482678,7.74070522 15.4663134,8.65029652 C15.4332906,9.0139313 15.9758769,9.01140957 16.0086586,8.65029652 C16.1070039,7.5601487 16.1865479,5.84435739 15.6526391,4.84020087 C15.191284,3.97221826 13.8038443,4.50127913 13.1431472,4.77387913 C12.8220788,4.90627043 12.9618834,5.45525304 13.2872906,5.32109652" id="Fill-18" fill="#000000"></path>
                        <path d="M21.0314749,4.93322783 C20.2218137,4.3138887 18.7372339,4.85404522 19.1865368,6.07986261 C19.3678007,6.57462783 19.8407257,6.70474957 20.3023218,6.72542783 C20.4937094,6.73425391 20.7547583,6.6918887 20.9348169,6.77359304 C21.4426932,7.00458435 21.1558528,7.33114957 20.9184261,7.57424522 C20.5498723,7.95124522 20.0745368,8.12398435 19.5676248,8.13734957 C19.2190775,8.14642783 19.2178723,8.71381913 19.5676248,8.70474087 C20.3707779,8.68355826 21.8548756,8.07632348 21.7791883,7.00054957 C21.7480938,6.55924522 21.3747192,6.30278435 20.9972469,6.20721043 C20.7200482,6.13660174 20.4262176,6.21149739 20.1531166,6.14290609 C19.1805107,5.89804522 19.9718528,4.82201913 20.7576508,5.42294957 C21.0396704,5.63906261 21.310602,5.14681913 21.0314749,4.93322783" id="Fill-20" fill="#000000"></path>
                        <path d="M24.3756964,4.97486174 C24.0469147,4.18908783 23.1350515,4.50228783 22.7790319,5.07447043 C22.2889928,5.86226174 21.9095922,7.22727913 22.4902632,8.05844435 C22.8843674,8.62280957 23.7306671,8.91961826 24.2713251,8.40014 C24.9030971,7.79315739 24.9052664,6.61651391 24.7584717,5.81409652 C24.6929081,5.45575739 24.1700873,5.60756609 24.2354098,5.96489652 C24.3489407,6.58474 24.2959114,8.53051391 23.2664195,8.01204435 C22.7033446,7.72860087 22.6922567,7.06008783 22.8180808,6.4987487 C22.8670124,6.27986174 23.5351818,4.37140957 23.9075922,5.26107913 C24.0471557,5.59470522 24.5145368,5.30621826 24.3756964,4.97486174" id="Fill-22" fill="#000000"></path>
                        <path d="M25.2590202,5.06670348 C25.2243101,5.64897304 25.235157,6.22594696 25.3098801,6.80468609 C25.3674893,7.25128609 25.4077433,7.8234687 25.6258866,8.21610348 C26.0286684,8.94059913 27.2926945,8.39312957 27.8321472,8.17550348 C28.1541798,8.04563391 28.0143752,7.49690348 27.6880039,7.62853826 C27.3881472,7.74958174 27.0846749,7.85448609 26.7686684,7.91702522 C26.2229485,8.02495565 26.0653068,7.90794696 25.9496065,7.35694696 C25.7912417,6.60219043 25.7558085,5.83633826 25.8013655,5.06670348 C25.8230593,4.70206 25.280714,4.70357304 25.2590202,5.06670348" id="Fill-24" fill="#000000"></path>
                        <path d="M27.4128541,4.81427739 C27.4461179,6.02294696 27.5278313,7.22682522 27.6582352,8.42843391 C27.697043,8.78727739 28.2398704,8.79131217 28.2005805,8.42843391 C28.0701765,7.22682522 27.9884632,6.02294696 27.9551993,4.81427739 C27.9450756,4.44988609 27.4027303,4.44837304 27.4128541,4.81427739" id="Fill-26" fill="#000000"></path>
                        <path d="M28.5035466,4.87363913 C28.466185,6.02657826 28.5334358,7.16640435 28.6946932,8.3074913 C28.7455531,8.66734348 29.2683739,8.51452609 29.217755,8.1566913 C29.063729,7.06704783 29.0102176,5.97412609 29.0458919,4.87363913 C29.0577029,4.5084913 28.5153577,4.50899565 28.5035466,4.87363913" id="Fill-28" fill="#000000"></path>
                        <path d="M29.271628,5.73556957 C29.6568137,5.38656087 30.2953349,4.86657826 30.8003186,5.29905652 C31.0683577,5.52853478 31.4542664,5.12934348 31.1838169,4.89784783 C30.4091068,4.23437826 29.5353283,4.74780435 28.8881296,5.33436087 C28.6239472,5.57367391 29.0088919,5.97362174 29.271628,5.73556957" id="Fill-30" fill="#000000"></path>
                        <path d="M33.5674365,4.63180435 C33.132355,4.23614348 32.5364984,4.24597826 32.0823746,4.6207087 C31.4797687,5.1185 31.3524984,6.12164783 31.3327329,6.87236957 C31.3136906,7.59535217 31.5195407,8.38112609 32.2103681,8.68272609 C32.7360814,8.91245652 33.2738469,8.7909087 33.6040749,8.30446522 C33.8067915,8.00639565 33.3365179,7.7227 33.1359707,8.01824783 C32.8315342,8.4661087 32.2585765,8.14055217 32.0594756,7.79986522 C31.8589283,7.45615217 31.857,7.05191739 31.8880945,6.65978696 C31.9131629,6.34482174 31.9611303,6.01144783 32.0527264,5.70883913 C32.1836124,5.27686522 32.6777492,4.57279565 33.1839381,5.03301304 C33.4461922,5.27156957 33.8313779,4.87187391 33.5674365,4.63180435" id="Fill-32" fill="#000000"></path>
                        <path d="M34.5067785,5.47822609 C34.6328436,6.37193043 34.7591498,7.26563478 34.885215,8.15933913 C34.9360749,8.5191913 35.4586547,8.36612174 35.4082769,8.00828696 C35.2819707,7.11458261 35.1559055,6.22087826 35.0298404,5.32717391 C34.9789805,4.96757391 34.4564007,5.1203913 34.5067785,5.47822609" id="Fill-34" fill="#000000"></path>
                        <path d="M34.4724059,3.79821826 C34.6866925,3.96641826 34.9009792,4.13436609 35.1152658,4.30256609 C35.2324124,4.39460957 35.418256,4.32223565 35.48623,4.20094 C35.5672202,4.05568783 35.5064775,3.90488783 35.3888489,3.81284435 C35.1745622,3.64464435 34.9602756,3.47644435 34.7459889,3.30849652 C34.6288423,3.21620087 34.4429987,3.28857478 34.3750248,3.41012261 C34.2940345,3.55512261 34.3547772,3.70617478 34.4724059,3.79821826" id="Fill-36" fill="#000000"></path>
                        <path d="M36.2723414,4.70445565 C36.2258202,5.8291513 36.2395596,6.95132522 36.3138007,8.07450783 C36.3376638,8.43688174 36.8802502,8.43965565 36.8561459,8.07450783 C36.7819049,6.95132522 36.7681655,5.8291513 36.8146866,4.70445565 C36.8298723,4.33930783 36.287286,4.34006435 36.2723414,4.70445565" id="Fill-38" fill="#000000"></path>
                        <path d="M36.6065948,4.81405043 C36.9927446,4.6549287 37.4697674,4.45142435 37.8908684,4.46630261 C38.5067316,4.48849391 38.5826599,4.85036348 38.6867902,5.43313739 C38.8475655,6.33339826 38.867572,7.23365913 38.7856176,8.14350261 C38.7525948,8.50713739 39.2951811,8.50461565 39.3279629,8.14350261 C39.4263081,7.05310261 39.5058521,5.33756348 38.9719433,4.33315478 C38.5105883,3.46542435 37.1231485,3.99423304 36.4624515,4.26708522 C36.1413831,4.39947652 36.2811876,4.94845913 36.6065948,4.81405043" id="Fill-40" fill="#000000"></path>
                        <path d="M42.5726339,4.57589739 C42.1847967,4.02741913 41.5238586,3.88065391 40.9275199,4.15224522 C40.1706469,4.49721913 39.8982691,5.40277565 39.8799498,6.20292348 C39.8630769,6.93876696 40.0243342,7.81229739 40.7440866,8.12877565 C41.3642886,8.40162783 42.0659629,8.14894957 42.4345166,7.58004522 C42.6309661,7.27718435 42.1611746,6.99298435 41.9661713,7.29382783 C41.7297088,7.65872348 41.2030313,7.79943652 40.8385752,7.54650609 C40.4391681,7.26961913 40.4121713,6.64851478 40.4222951,6.20292348 C40.432901,5.73438435 40.5348619,5.17783652 40.8855785,4.8454713 C41.212914,4.53554957 41.8135915,4.4510713 42.1042886,4.86236696 C42.3096567,5.15261913 42.7806534,4.86993217 42.5726339,4.57589739" id="Fill-42" fill="#000000"></path>
                        <path d="M42.2825153,4.90170609 C42.0400267,6.51839304 43.015284,10.7584452 40.4086521,10.7589496 C40.0596228,10.7589496 40.0591407,11.3263409 40.4086521,11.3263409 C43.5026717,11.3258365 42.5204241,6.95213217 42.8055772,5.05275826 C42.8590886,4.69542783 42.3367498,4.54160174 42.2825153,4.90170609" id="Fill-44" fill="#000000"></path>
                        <path d="M45.261413,5.22605217 C45.3874782,6.11975652 45.5137844,7.01346087 45.6398495,7.90716522 C45.6907094,8.26701739 46.2132893,8.11394783 46.1629114,7.75611304 C46.0366052,6.8624087 45.9105401,5.96870435 45.7844749,5.075 C45.733615,4.7154 45.2110352,4.86821739 45.261413,5.22605217" id="Fill-46" fill="#000000"></path>
                        <path d="M45.2270404,3.54604435 C45.441327,3.71424435 45.6556137,3.88219217 45.8699003,4.05039217 C45.9870469,4.14243565 46.1728906,4.07006174 46.2408645,3.94876609 C46.3218547,3.80351391 46.2611121,3.65271391 46.1434834,3.56067043 C45.9291967,3.39247043 45.7149101,3.22427043 45.5008645,3.05632261 C45.3834769,2.96402696 45.1976332,3.03640087 45.1296593,3.1579487 C45.0486691,3.3029487 45.1094117,3.45400087 45.2270404,3.54604435" id="Fill-48" fill="#000000"></path>
                        <path d="M48.7513446,4.68105391 C47.9416834,4.06171478 46.4571036,4.6018713 46.9064065,5.8276887 C47.0876704,6.32245391 47.5605954,6.45257565 48.0221915,6.47325391 C48.2135792,6.48208 48.474628,6.43971478 48.6546866,6.52141913 C49.1625629,6.75241043 48.8757225,7.07897565 48.6382958,7.3220713 C48.269742,7.6990713 47.7944065,7.87181043 47.2874945,7.88517565 C46.9389472,7.89425391 46.937742,8.46164522 47.2874945,8.45256696 C48.0906476,8.43138435 49.5747453,7.82414957 49.499058,6.74837565 C49.4679635,6.3070713 49.0945889,6.05061043 48.7171166,5.95503652 C48.4399179,5.88442783 48.1460873,5.95932348 47.8729863,5.89073217 C46.9003805,5.6458713 47.6917225,4.56984522 48.4775205,5.17077565 C48.7595401,5.3868887 49.0304717,4.89464522 48.7513446,4.68105391" id="Fill-50" fill="#000000"></path>
                        <path d="M54.6431186,5.08763391 C54.4158156,4.38608609 53.7011251,4.02421652 53.0189752,4.24890348 C52.2469166,4.50309478 51.804845,5.38469478 51.6869752,6.1684513 C51.5683824,6.95901652 51.7544671,7.86532957 52.4158873,8.34647739 C53.028858,8.79232087 53.8310469,8.76786 54.383757,8.24409478 C54.6431186,7.99822522 54.258656,7.59802522 54.0002586,7.84263391 C53.0274117,8.76458174 52.112415,7.3420687 52.2081088,6.38406 C52.2527016,5.93670348 52.4057635,5.47018174 52.7024866,5.13378174 C53.0758612,4.71063391 53.8901023,4.52881652 54.1202977,5.23868609 C54.2316593,5.58239913 54.7556853,5.43487739 54.6431186,5.08763391" id="Fill-52" fill="#000000"></path>
                        <path d="M53.7792228,1.73034174 C54.1082456,3.88315043 54.2417831,6.04251565 54.190441,8.22129826 C54.1820046,8.58644609 54.7243498,8.58619391 54.7327863,8.22129826 C54.7853336,5.99031565 54.6387798,3.78303739 54.3022847,1.57954174 C54.247327,1.22019391 53.7245062,1.37250696 53.7792228,1.73034174" id="Fill-54" fill="#000000"></path>
                        <path d="M55.6262339,5.47822609 C55.752299,6.37193043 55.8786052,7.26563478 56.0046704,8.15933913 C56.0555303,8.5191913 56.5781101,8.36612174 56.5277322,8.00828696 C56.4014261,7.11458261 56.2753609,6.22087826 56.1492958,5.32717391 C56.0984358,4.96757391 55.575856,5.1203913 55.6262339,5.47822609" id="Fill-56" fill="#000000"></path>
                        <path d="M55.5918612,3.79821826 C55.8061479,3.96641826 56.0204345,4.13436609 56.2347212,4.30256609 C56.3518678,4.39460957 56.5377114,4.32223565 56.6056853,4.20094 C56.6866756,4.05568783 56.6259329,3.90488783 56.5083042,3.81284435 C56.2940176,3.64464435 56.0797309,3.47644435 55.8656853,3.30849652 C55.7482977,3.21620087 55.5624541,3.28857478 55.4944801,3.41012261 C55.4134899,3.55512261 55.4742326,3.70617478 55.5918612,3.79821826" id="Fill-58" fill="#000000"></path>
                        <path d="M57.1875857,4.87363913 C57.1502241,6.02657826 57.2174749,7.16640435 57.3787322,8.3074913 C57.4295922,8.66734348 57.952413,8.51452609 57.9017941,8.1566913 C57.7477681,7.06704783 57.6942567,5.97412609 57.7299309,4.87363913 C57.741742,4.5084913 57.1993967,4.50899565 57.1875857,4.87363913" id="Fill-60" fill="#000000"></path>
                        <path d="M57.9556671,5.73556957 C58.3408528,5.38656087 58.9793739,4.86657826 59.4843577,5.29905652 C59.7523967,5.52853478 60.1383055,5.12934348 59.867856,4.89784783 C59.0931459,4.23437826 58.2193674,4.74780435 57.5721687,5.33436087 C57.3079863,5.57367391 57.6929309,5.97362174 57.9556671,5.73556957" id="Fill-62" fill="#000000"></path>
                        <path d="M61.1860925,6.30048957 C62.0716821,6.4384287 63.1708352,5.76512435 62.7731153,4.69212435 C62.3464704,3.54120261 61.2015192,4.03748087 60.6652,4.78416783 C60.0577733,5.6302113 59.8784378,6.97682 60.6827961,7.76158522 C61.3502423,8.41295043 62.4973629,8.47044609 63.101415,7.70963739 C63.3226919,7.43048087 62.9411218,7.02700261 62.7179166,7.3084287 C61.9232,8.31006348 60.6054215,7.32028087 60.6912326,6.21374174 C60.7326919,5.67762 60.9920534,5.14326348 61.3851935,4.79274174 C61.8147309,4.41019391 62.5747375,4.75869826 62.2341446,5.39190696 C62.05963,5.71645478 61.6491349,5.80295043 61.3302358,5.75327217 C60.9889199,5.70006348 60.841402,6.24677652 61.1860925,6.30048957" id="Fill-64" fill="#000000"></path>
                        <path d="M65.6260684,4.12745652 C65.190987,3.73179565 64.5951303,3.74163043 64.1410065,4.11636087 C63.5384007,4.61415217 63.4111303,5.6173 63.3913648,6.36802174 C63.3723225,7.09100435 63.5781726,7.87677826 64.269,8.17837826 C64.7947134,8.4081087 65.3324788,8.28656087 65.6627068,7.80011739 C65.8654235,7.50204783 65.3951498,7.21835217 65.1946026,7.5139 C64.8901661,7.96176087 64.3172085,7.63620435 64.1181075,7.29551739 C63.9175603,6.95180435 63.9156319,6.54756957 63.9467264,6.15543913 C63.9717948,5.84047391 64.0197622,5.5071 64.1113583,5.2044913 C64.2422443,4.77251739 64.7363811,4.06844783 65.24257,4.52866522 C65.5048241,4.76722174 65.8900098,4.36752609 65.6260684,4.12745652" id="Fill-66" fill="#000000"></path>
                        <path d="M66.27763,4.71159217 C67.1762358,4.73706174 68.0512195,4.60240087 68.9047505,4.30609652 C69.2344964,4.19135739 69.0932456,3.64338348 68.7606072,3.75887913 C67.951187,4.04005304 67.1304378,4.16840957 66.27763,4.14420087 C65.9283596,4.13436609 65.9286007,4.70175739 66.27763,4.71159217" id="Fill-68" fill="#000000"></path>
                        <path d="M67.1456476,3.41206435 C67.1376932,4.09343826 67.1297388,4.77481217 67.1217844,5.45618609 C67.1145531,6.08586435 67.0145205,6.78741217 67.1454065,7.40549043 C67.2707485,7.99709043 67.7195694,8.39628174 68.3004814,8.19353391 C68.6297453,8.07854261 68.4884945,7.53031652 68.1560971,7.64631652 C67.4645466,7.88789913 67.6612371,5.72349043 67.6641296,5.45618609 C67.672084,4.77481217 67.6800384,4.09343826 67.6879928,3.41206435 C67.6923316,3.04691652 67.1499863,3.04666435 67.1456476,3.41206435" id="Fill-70" fill="#000000"></path>
                        <path d="M69.3091472,0.525606087 C69.421473,3.04709304 69.5337987,5.56858 69.6458834,8.09006696 C69.6620332,8.45344957 70.2046195,8.45571913 70.1882287,8.09006696 C70.076144,5.56858 69.9638182,3.04709304 69.8514925,0.525606087 C69.8353427,0.162223478 69.2929974,0.159953913 69.3091472,0.525606087" id="Fill-72" fill="#000000"></path>
                        <path d="M70.8004762,4.14026696 C70.9383524,5.37062348 70.804815,7.28764957 72.1327173,7.83688435 C72.4574013,7.97104087 72.59817,7.42281478 72.2768606,7.28966696 C71.3189583,6.89350174 71.4411668,5.0185887 71.3428215,4.14026696 C71.3025674,3.78192783 70.7597401,3.77789304 70.8004762,4.14026696" id="Fill-74" fill="#000000"></path>
                        <path d="M73.2457303,3.9693687 C73.0034827,6.57129913 72.1771896,8.99116 70.8073459,11.1764991 C70.6152352,11.4828904 71.0847857,11.7673426 71.2756912,11.4629687 C72.6995283,9.19138609 73.5366684,6.6721687 73.7880756,3.9693687 C73.8218215,3.60623826 73.2792352,3.60850783 73.2457303,3.9693687" id="Fill-76" fill="#000000"></path>
                    </g>
                    <g id="Page-1" transform="translate(68.000000, 76.000000)">
                        <g id="Group-3" transform="translate(0.000000, 1.165875)">
                            <mask id="mask-8" fill="white">
                                <use xlink:href="#path-7"></use>
                            </mask>
                            <g id="Clip-2"></g>
                            <path d="M0.000188552187,12.9076607 C-0.0218989899,13.5076607 1.52773064,13.1881071 1.55762963,12.6998036 C1.81109764,8.56757143 2.51493603,4.49989286 3.66483502,0.521142857 C3.81325253,0.00766071429 2.25311785,0.224625 2.10739394,0.728732143 C0.957225589,4.70748214 0.253656566,8.77542857 0.000188552187,12.9076607 Z" id="Fill-1" fill="#000000" mask="url(#mask-8)"></path>
                        </g>
                        <path d="M5.09586532,14.1639107 C5.09586532,14.1639107 5.00514099,14.081875 5.171875,14.3125 C5.53982113,14.8208929 6.78529293,14.414625 6.65707744,13.7481964 C5.87727946,9.69578571 4.9997037,5.664 4.02461953,1.65364286 C3.8533064,0.948642857 2.29020875,1.35632143 2.46367677,2.069625 C3.43876094,6.07998214 4.31606734,10.1115 5.09586532,14.1639107 Z" id="Fill-4" fill="#000000"></path>
                        <path d="M0.474397306,9.98710714 C1.80880808,11.0904107 3.83305051,11.0577321 5.18820202,9.983625 C6.01432997,9.32925 4.72409428,9.00460714 4.19345455,9.42514286 C3.49311785,9.98014286 2.60422896,9.91853571 1.91601347,9.34933929 C1.45055892,8.96442857 -0.0123367003,9.58451786 0.474397306,9.98710714" id="Fill-6" fill="#000000"></path>
                        <path d="M6.82672054,1.65605357 C6.96651852,5.30935714 7.10604714,8.96239286 7.24557576,12.6156964 C7.27628283,13.4195357 8.8520404,13.1736429 8.82591246,12.49275 C8.68638384,8.83944643 8.54658586,5.18641071 8.40705724,1.53310714 C8.37635017,0.729267857 6.80059259,0.974892857 6.82672054,1.65605357" id="Fill-8" fill="#000000"></path>
                        <path d="M8.79811448,8.06188393 C10.16,7.11045536 11.3327946,9.18715179 11.1983838,10.3156339 C10.9990572,11.9870625 9.54208754,12.8200982 7.95717172,12.5677768 C7.62747475,12.5155446 7.0793266,12.5800982 6.85360269,12.8621518 C6.67232323,13.0882232 6.62491582,13.3509911 7.00148148,13.4109911 C9.41683502,13.7953661 12.6704377,12.6784018 12.7822222,9.82813393 C12.8848485,7.20099107 9.75784512,6.25438393 7.82949495,7.6014375 C6.96754209,8.2033125 8.3043771,8.40661607 8.79811448,8.06188393" id="Fill-10" fill="#000000"></path>
                        <path d="M17.2632458,6.86410714 C17.0377912,6.035625 15.8784646,6.27616071 15.2802155,6.54267857 C14.3595421,6.95330357 13.5762424,8.23580357 13.6002155,9.23892857 C13.6430438,10.9992857 15.7639865,10.1836607 16.4664781,11.3228571 C16.7428418,11.77125 16.7802828,12.5279464 16.4982626,12.9803571 C15.8472189,14.0258036 14.7194074,12.7224107 14.4193401,12.0669643 C14.2536835,11.7045536 12.742303,12.2295536 12.8581279,12.4829464 C13.7033805,14.3295536 16.8788687,14.7147321 17.9759731,12.8258036 C18.4613603,11.9898214 18.2994747,10.7890179 17.4019663,10.3076786 C16.7417643,9.95383929 15.721697,10.1766964 15.2958384,9.44705357 C14.8239192,8.63785714 15.7979259,7.63178571 15.702303,7.28008929 C15.7917306,7.60875 17.3537508,7.19651786 17.2632458,6.86410714" id="Fill-12" fill="#000000"></path>
                        <path d="M19.5384242,7.08707143 C18.2201751,8.22332143 18.212633,11.0492143 18.8348552,12.52725 C19.4670438,14.0296607 21.1440808,14.2511786 22.2834747,13.1299286 C23.7487946,11.6880536 23.5435943,10.654375 23.1875,8.828125 C23.0530892,8.14 21.4878367,8.53482143 21.6262879,9.24410714 C21.787096,10.0688393 21.8239461,10.046875 21.8239461,10.5327857 C21.8239461,10.8984367 21.536,12.8607321 20.8165387,12.6946607 C20.1312862,12.5363571 20.109468,10.7867143 20.1054276,10.34475 C20.1011178,9.91671429 20.1207811,9.48091071 20.1754613,9.05582143 C20.1978182,8.84635714 20.2333737,8.63930357 20.2818586,8.434125 C20.2990976,7.92305357 20.5377508,7.81698214 20.9978182,8.11671429 C20.9617239,8.89805357 22.5450236,8.65885714 22.576,7.98653571 C22.649266,6.39225 20.5003098,6.25778571 19.5384242,7.08707143 Z" id="Fill-14" fill="#000000"></path>
                        <path d="M24.060633,13.9332054 C24.0563232,14.2867768 25.1656944,14.05625 25.28125,14 C25.7165362,13.7875893 25.3988838,14 25.5431919,13.84375 C25.6875,13.6875 25.6215758,13.703125 25.6215758,13.5174911 C25.674101,9.05740179 25.6479731,4.59784821 25.5431919,0.1385625 C25.5359192,-0.1745625 23.970936,0.0764196429 23.9822492,0.5548125 C24.0870303,5.0135625 24.1128889,9.47338393 24.060633,13.9332054 Z" id="Fill-16" fill="#000000"></path>
                        <path d="M26.4617374,7.36475893 C26.4730505,8.44395536 26.5592458,9.51859821 26.7601886,10.5801161 C26.9207273,11.4278839 27.0669899,12.6016339 27.7694815,13.2077946 C29.0871919,14.3451161 30.8240269,13.0537768 31.7331178,12.0474375 C32.3984377,11.3113661 30.9180337,10.9706518 30.4110976,11.5318125 C30.0843636,11.8934196 29.5028148,12.6418125 28.9323098,12.2327946 C28.6236229,12.0110089 28.5215354,11.0978839 28.4458451,10.7662768 C28.1821414,9.6136875 28.0617374,8.4493125 28.0490774,7.26833036 C28.0399192,6.41466964 26.4536566,6.61208036 26.4617374,7.36475893" id="Fill-18" fill="#000000"></path>
                        <path d="M30.8801347,7.27974107 L31.2262626,13.5135804 C31.2443098,13.8382232 32.8133333,13.5668839 32.7872054,13.0975982 C32.6719192,11.0198304 32.556633,8.94179464 32.4413468,6.86375893 C32.4232997,6.53911607 30.8540067,6.81072321 30.8801347,7.27974107" id="Fill-20" fill="#000000"></path>
                        <path d="M33.5204848,7.53846429 C35.2772525,7.44739286 37.0340202,7.35632143 38.7907879,7.26525 C39.1932121,7.24435714 40.4947609,6.61757143 39.474963,6.67033929 C37.7181953,6.76141071 35.9614276,6.85221429 34.2046599,6.94328571 C33.8025051,6.96417857 32.5006869,7.59123214 33.5204848,7.53846429" id="Fill-22" fill="#000000"></path>
                        <path d="M35.1626667,4.36941964 C35.1066397,6.1340625 35.0484579,7.89870536 34.9943165,9.66334821 C34.9574141,10.8617411 34.8372795,12.2398661 35.5912189,13.2657589 C36.5485253,14.5686161 39.0737778,14.5008482 39.6348552,12.8564732 C39.9260337,12.0022768 38.3669764,12.0012054 38.139367,12.6684375 C37.9502761,13.2229018 37.3038114,12.8931696 37.0648889,12.6178125 C36.8353939,12.3526339 36.7249562,12.0162054 36.6465724,11.6789732 C36.469064,10.9145089 36.5609158,10.0621875 36.585697,9.28566964 C36.6387609,7.60915179 36.6920943,5.93263393 36.7454276,4.25638393 C36.7715556,3.4378125 35.1852929,3.6553125 35.1626667,4.36941964" id="Fill-24" fill="#000000"></path>
                        <path d="M45.2316229,7.84749107 C45.3848889,5.49516964 42.9603771,4.78641964 41.3442155,6.12838393 C39.2900741,7.8335625 39.5462357,10.9752589 40.2640808,13.2651696 C41.019367,15.6748125 44.4006465,14.1150804 45.858963,13.2745446 C46.7685926,12.7500804 45.4131717,12.4599911 44.8779529,12.7682946 C44.0335084,13.2549911 43.3897374,13.6447232 42.4717576,13.2689196 C41.6828013,12.9456161 41.7757306,12.6999911 41.6116902,11.9060625 C41.3786936,10.7786518 41.1774815,9.57570536 41.4468418,8.43490179 C41.6141145,7.72561607 42.1883906,6.04588393 43.0982896,6.54383036 C44.5285926,7.32677679 44.3700741,10.1090089 42.6472458,9.52909821 C42.122532,9.35258036 40.8201751,10.1130268 41.7015219,10.4098125 C43.5757306,11.0403482 45.0907475,10.0123125 45.2316229,7.84749107 Z" id="Fill-26" fill="#000000"></path>
                        <path d="M49.5845118,1.7604375 C52.1725253,1.69722321 54.7605387,1.63400893 57.3485522,1.57079464 C58.2624916,1.5485625 58.5272727,0.3373125 57.4681481,0.363026786 C54.8798653,0.426241071 52.2918519,0.489455357 49.7038384,0.552401786 C48.789899,0.574633929 48.5251178,1.78615179 49.5845118,1.7604375" id="Fill-28" fill="#000000"></path>
                        <path d="M52.3660337,13.5420536 C52.3660337,14.0560714 53.3917256,13.8628571 53.5625,13.71875 L53.9272458,13.5420536 C53.928862,13.5420536 53.928862,13.4033929 53.9272458,13.1260714 C53.9280539,9.29651786 53.9285926,5.46669643 53.92967,1.63714286 C53.92967,1.17776786 52.3684579,1.4625 52.3684579,2.053125 C52.3676498,5.88267857 52.3668418,9.7125 52.3660337,13.5420536 Z" id="Fill-30" fill="#000000"></path>
                        <path d="M61.5481481,7.1623125 C60.4661279,6.43722321 58.8887542,6.80713393 57.9333333,7.61016964 C56.6078114,8.72391964 56.6183165,11.1265982 56.9857239,12.6715982 C57.3318519,14.1287411 58.7090909,14.6507946 60.0488889,14.1113304 C61.7878788,13.4116875 62.1636364,10.7191875 62.2414815,9.10695536 C62.2557576,8.80936607 60.7047811,9.02016964 60.6805387,9.5229375 C60.6304377,10.5584732 60.4348822,11.5567768 60.0311111,12.5143661 C59.9085522,12.8052589 59.7186532,13.5158839 59.2612795,13.4408839 C58.9358923,13.3875804 58.6684175,12.6774911 58.5859933,12.4289196 C58.3252525,11.6432946 58.2519865,6.48704464 60.0836364,7.71490179 C60.4712458,7.97445536 61.832862,7.35302679 61.5481481,7.1623125" id="Fill-32" fill="#000000"></path>
                        <path d="M60.7353266,8.01870536 C60.5912189,10.0967411 60.5634747,12.1729018 60.6512862,14.2536161 C60.663138,14.5375446 62.2313535,14.2844196 62.212229,13.8379018 C62.1244175,11.7569196 62.152431,9.68075893 62.2962694,7.60272321 C62.312431,7.36888393 60.7679192,7.5459375 60.7353266,8.01870536" id="Fill-34" fill="#000000"></path>
                        <path d="M66.9381279,7.50707143 C65.7610236,6.66573214 63.35833,7.07769643 62.9225051,8.61975 C62.6636498,9.53555357 63.1910572,10.2568929 63.9546936,10.6752857 C64.4907205,10.969125 64.9227744,11.2624286 65.1080943,11.8806429 C65.3128081,12.5634107 65.1293737,14.1718929 63.8868148,13.597875 C63.4604175,13.401 62.1963098,14.0398393 62.4204175,14.1432321 C63.762101,14.7633214 66.0341549,14.3468036 66.6305185,12.8259107 C66.9348956,12.0496607 66.7097104,11.107875 66.0969158,10.5437679 C65.5845926,10.0720714 64.8899125,10.0375179 64.5674882,9.34296429 C64.2536835,8.66716071 64.5109226,7.36617857 65.4717306,8.05269643 C65.8410236,8.31653571 67.2082963,7.70046429 66.9381279,7.50707143" id="Fill-36" fill="#000000"></path>
                        <path d="M67.6689832,7.94153571 C69.2862222,8.13010714 70.8848754,8.00635714 72.4614411,7.60698214 C72.6448754,7.56064286 73.2339663,7.369125 73.1580067,7.08814286 C73.0825859,6.80796429 72.4560539,6.94457143 72.293899,6.98582143 C71.0903973,7.290375 69.8863569,7.35171429 68.6545724,7.20814286 C68.3159865,7.1685 67.8058182,7.25930357 67.550734,7.50198214 C67.3422492,7.70046429 67.3233939,7.90135714 67.6689832,7.94153571" id="Fill-38" fill="#000000"></path>
                        <path d="M68.6242424,6.45211607 C68.7163636,8.06166964 68.6835017,9.66024107 68.5124579,11.2639018 C68.4009428,12.3106875 68.2094276,13.5347946 69.036633,14.3552411 C70.0012121,15.3117589 72.3901684,14.8510446 72.5703704,13.3842589 C72.6239731,12.9457768 71.0748822,13.2364018 71.0255892,13.6392589 C70.9178451,14.5180982 70.1967677,13.4102411 70.07367,13.0269375 C69.8140067,12.2193482 70.0381145,11.2981875 70.113266,10.4812232 C70.250101,8.99863393 70.2705724,7.52220536 70.1851852,6.03586607 C70.1665993,5.70934821 68.5973064,5.98229464 68.6242424,6.45211607" id="Fill-40" fill="#000000"></path>
                        <path d="M79.0178047,7.72741071 C79.1713401,5.37508929 76.7465589,4.66633929 75.1303973,6.00830357 C73.0762559,7.71348214 73.3324175,10.8551786 74.0502626,13.1450893 C74.8055488,15.5547321 78.1865589,13.995 79.6448754,13.1544643 C80.5547744,12.63 79.1990842,12.3399107 78.6641347,12.6484821 C77.8194209,13.1349107 77.1756498,13.5246429 76.2579394,13.1488393 C75.4689832,12.8255357 75.5619125,12.5799107 75.3978721,11.7859821 C75.1648754,10.6585714 74.9636633,9.455625 75.2330236,8.31482143 C75.4002963,7.60553571 75.9745724,5.92580357 76.8844714,6.42375 C78.3145051,7.20669643 78.1562559,9.98892857 76.4334276,9.40901786 C75.9084444,9.2325 74.6063569,9.99294643 75.4877037,10.2897321 C77.3616431,10.9202679 78.8769293,9.89223214 79.0178047,7.72741071 Z" id="Fill-42" fill="#000000"></path>
                    </g>
                    <g id="Page-1" transform="translate(94.000000, 52.000000)">
                        <path d="M2.29688776,7.41157941 C1.72647959,4.87807941 3.49315306,2.62622647 5.7265,1.63093235 C8.00362245,0.616314706 10.6927653,0.563638235 13.1513571,0.477344118 C17.5766633,0.321961765 23.6495204,1.41916765 24.5560714,6.68972647 C24.6566224,7.27340294 24.6672347,7.89943235 24.5425408,8.48152059 C24.3472755,9.39105 23.6375816,9.63960882 22.8697857,9.97975588 C22.0698878,10.3339324 21.5825204,11.2736382 20.6924184,11.4152559 C19.7879898,11.5589912 18.8294388,11.1232853 17.9141327,11.1367853 C16.6138673,11.1561088 15.4741122,11.6720206 14.1396224,11.5073735 C11.8526837,11.2251971 9.62968367,10.8429618 7.31170408,10.84005 C6.16319388,10.8381971 4.95684694,11.0017853 3.82478571,10.7730794 C2.42715306,10.4911676 0.739010204,9.01040294 1.81376531,7.48278529 C2.02627551,7.18049118 1.48796939,7.06746176 1.32692857,7.29643235 C0.477418367,8.50402059 1.09531633,10.0504324 2.31413265,10.7606382 C4.21478571,11.8679029 7.09096939,11.2222853 9.16858163,11.3414029 C11.3995408,11.4692559 13.8111735,12.3292853 16.0254184,11.9062853 C16.8985408,11.7397853 17.6955204,11.5587265 18.593051,11.6413147 C19.1300306,11.6910794 19.6526837,11.8472559 20.1947041,11.8620794 C20.8248061,11.8798147 21.4063571,11.7649324 21.9027449,11.3657559 C22.4651939,10.9136382 22.789398,10.5687265 23.5457857,10.2539912 C23.8291327,10.1361971 24.102398,10.0859029 24.3533776,9.89160882 C24.9094592,9.46013824 25.1068469,8.74119706 25.1851122,8.07016765 C25.4116837,6.13437353 24.4801939,4.24728529 23.1449082,2.89596176 C19.8718265,-0.416567647 14.7360306,-0.152655882 10.4529286,0.198344118 C8.15537755,0.38655 5.67237755,0.762961765 3.82584694,2.25749118 C2.23003061,3.54899118 1.25847959,5.51469706 1.72011224,7.56563824 C1.7832551,7.84569706 2.36056122,7.69507941 2.29688776,7.41157941" id="Fill-1" fill="#000000"></path>
                        <path d="M12.0937939,2.79150882 C11.8475898,2.78118529 11.7780796,2.49159706 11.7921408,2.28671471 C11.8138959,1.97065588 12.0367531,1.80786176 12.3567122,1.83777353 C12.8992633,1.88859706 13.6697122,2.37486176 13.8448143,2.90930294 C13.9265286,3.15865588 13.9172429,3.64333235 13.525651,3.63671471 C13.340202,3.63380294 13.1064673,3.41515588 12.9504673,3.32409706 C12.6265286,3.13536176 12.323549,3.03927353 11.9515898,3.13350882 C11.5976714,3.22350882 11.6937122,3.58271471 12.0478959,3.49271471 C12.4028755,3.40271471 12.8491204,3.90195 13.1863245,3.99962647 C13.5084061,4.09306765 13.8684265,4.03271471 14.1278959,3.81645 C14.8659776,3.20047941 14.2841612,2.30471471 13.6649367,1.88700882 C13.0478347,1.47036176 11.9722837,1.15165588 11.4098347,1.84121471 C11.0201,2.31900882 11.2050184,3.15045 11.8863245,3.17956765 C12.1463245,3.19042059 12.4835286,2.80818529 12.0937939,2.79150882" id="Fill-3" fill="#000000"></path>
                        <path d="M1.81551633,10.4274 C0.204312245,11.5171941 1.73990408,13.1835176 3.09906735,13.4765471 C4.41790408,13.7605765 5.84498571,13.7221941 7.18637347,13.8148412 C8.88910816,13.9329 10.5918429,14.0634 12.2961694,14.1616059 C15.1235367,14.3244 18.0188224,14.3566941 20.7708429,13.5959294 C22.4613735,13.1287235 25.3773531,12.0270176 24.4885776,9.73678235 C24.4036796,9.51734118 23.8319449,9.68463529 23.9120673,9.89084118 C25.6142714,14.2772824 14.4753939,13.9236353 12.2717612,13.7918118 C10.2079449,13.6684588 8.14572041,13.5104294 6.08349592,13.3677529 C5.1684551,13.3044882 4.15631224,13.3375765 3.26514898,13.0964294 C2.3562102,12.8502529 0.890393878,11.5007824 2.18137347,10.6275176 C2.50425102,10.4091353 2.01582245,10.2921353 1.81551633,10.4274" id="Fill-5" fill="#000000"></path>
                        <g id="Group-9" transform="translate(0.000000, 10.670029)">
                            <mask id="mask-10" fill="white">
                                <use xlink:href="#path-9"></use>
                            </mask>
                            <g id="Clip-8"></g>
                            <path d="M1.48438776,1.60668529 C0.678387755,1.63765588 -0.0509387755,2.07362647 0.00265306122,2.98845 C0.093122449,4.52586176 2.05002041,5.49150882 3.33038776,5.87268529 C5.05195918,6.38515588 6.85365306,6.28059706 8.62616327,6.25121471 C9.76140816,6.23242059 10.8995714,6.23347941 12.0194286,6.44868529 C12.9267755,6.62286176 13.8006939,6.94897941 14.7170612,7.08027353 C16.3640816,7.31586176 18.0177347,6.88306765 19.6082449,6.49156765 C21.0164898,6.14453824 22.4549796,5.70830294 23.6462041,4.85277353 C24.7148571,4.08539118 25.9082041,2.69462647 25.8206531,1.27950882 C25.7630816,0.349067647 25.1833878,0.03195 24.4227551,0.362567647 C24.076,0.513185294 24.6164286,0.500744118 24.7557143,0.440391176 C25.3998776,0.160332353 25.1167959,2.23297941 25.1340408,2.16521471 C25.0082857,2.66153824 24.7750816,3.12927353 24.4832449,3.54856765 C23.5411429,4.90253824 22.0116531,5.62200882 20.4665102,6.07333235 C19.181898,6.44868529 17.7720612,6.82774412 16.4325306,6.90397941 C14.9722857,6.98683235 13.6600816,6.42565588 12.249449,6.18318529 C10.0866735,5.81127353 7.89683673,6.18953824 5.72371429,5.99736176 C4.57812245,5.89597941 3.39830612,5.64080294 2.39491837,5.05580294 C1.95106122,4.79718529 1.52020408,4.47821471 1.18353061,4.08697941 C0.84844898,3.69706765 -0.0986938776,1.89124412 1.23526531,1.84015588 C1.39153061,1.83406765 1.8632449,1.59212647 1.48438776,1.60668529" id="Fill-7" fill="#000000" mask="url(#mask-10)"></path>
                        </g>
                        <path d="M2.75963469,9.17520882 C3.10957347,9.30279706 3.45977755,9.43038529 3.80998163,9.55797353 C3.93467551,9.60323824 4.10473673,9.55956176 4.2159,9.49550294 C4.27957347,9.45897353 4.40373673,9.35017941 4.27532857,9.30332647 C3.92512449,9.17573824 3.57492041,9.04841471 3.22471633,8.92082647 C3.10002245,8.87529706 2.92996122,8.91923824 2.81879796,8.98303235 C2.75485918,9.01982647 2.63122653,9.12835588 2.75963469,9.17520882" id="Fill-10" fill="#000000"></path>
                        <path d="M5.6842102,9.84291176 L6.56847551,9.84291176 C6.68865918,9.84291176 6.88153673,9.79442647 6.95025102,9.66502941 C7.01976122,9.53470588 6.89108776,9.48745588 6.79849592,9.48745588 L5.91423061,9.48745588 C5.79404694,9.48745588 5.60143469,9.53594118 5.53272041,9.66533824 C5.4632102,9.79566176 5.59188367,9.84291176 5.6842102,9.84291176" id="Fill-12" fill="#000000"></path>
                        <path d="M8.33573265,10.0117059 L9.57391633,10.0117059 C9.68375306,10.0117059 9.89891633,9.96383824 9.95622245,9.83660294 C10.0151204,9.70597059 9.90607959,9.66983824 9.80712041,9.66983824 L8.56893673,9.66983824 C8.45883469,9.66983824 8.24393673,9.71739706 8.18663061,9.84494118 C8.12773265,9.97526471 8.23677347,10.0117059 8.33573265,10.0117059" id="Fill-14" fill="#000000"></path>
                        <path d="M10.918302,10.3254353 L11.9795265,10.3254353 C12.114302,10.3254353 12.2748122,10.2899206 12.387302,10.1982 C12.4695469,10.1314941 12.4740571,10.0521265 12.3536082,10.0521265 L11.2923837,10.0521265 C11.1576082,10.0521265 10.997098,10.0876412 10.8846082,10.1793618 C10.8026286,10.2460676 10.7978531,10.3254353 10.918302,10.3254353" id="Fill-16" fill="#000000"></path>
                        <path d="M13.9504061,10.3542353 C14.416549,10.4672647 14.8903857,10.4212059 15.3127531,10.1842941 C15.6531408,9.99317647 15.3451204,9.67129412 15.0543449,9.83461765 C14.8153041,9.96882353 14.5523857,10.0244118 14.2809776,9.95876471 C14.1395694,9.92435294 13.9703041,9.94605882 13.8734673,10.0675588 C13.7970592,10.1633824 13.8121816,10.3206176 13.9504061,10.3542353" id="Fill-18" fill="#000000"></path>
                        <path d="M17.0094653,10.2231441 L17.8937306,10.2231441 C18.0200163,10.2231441 18.2067918,10.1780559 18.2733837,10.0353794 C18.3365265,9.90042353 18.2195265,9.81982059 18.1128735,9.81982059 L17.2286082,9.81982059 C17.1025878,9.81982059 16.9155469,9.86521765 16.8492204,10.0078941 C16.7858122,10.14285 16.9030776,10.2231441 17.0094653,10.2231441" id="Fill-20" fill="#000000"></path>
                        <path d="M19.8125306,10.14345 C20.1072857,10.0846853 20.4023061,10.0259206 20.6967959,9.96689118 C20.7859388,9.94915588 20.9764286,9.85756765 20.9448571,9.73924412 C20.9111633,9.61377353 20.7005102,9.64871471 20.6158776,9.66565588 C20.3211224,9.72442059 20.0263673,9.78318529 19.7316122,9.84195 C19.6424694,9.85995 19.4519796,9.95153824 19.4838163,10.0698618 C19.5175102,10.1953324 19.7281633,10.1603912 19.8125306,10.14345" id="Fill-22" fill="#000000"></path>
                        <path d="M22.4710306,9.10929706 C22.9098469,9.00367941 23.292949,8.76306176 23.5709898,8.40862059 C23.6577449,8.29797353 23.4969694,8.23391471 23.4120714,8.22888529 C23.2741122,8.22067941 23.1178469,8.27917941 23.0318878,8.38850294 C22.8668673,8.59894412 22.6498469,8.74373824 22.3895816,8.80620882 C22.3009694,8.82765 22.1096837,8.91394412 22.1423163,9.03491471 C22.1754796,9.15853235 22.3871939,9.12941471 22.4710306,9.10929706" id="Fill-24" fill="#000000"></path>
                    </g>
                </g>
            </g>
        </g>
    </g>
</svg>