<?xml version="1.0" encoding="UTF-8"?>
<svg width="139px" height="35px" viewBox="0 0 139 35" version="1.1" xmlns="http://www.w3.org/2000/svg" xmlns:xlink="http://www.w3.org/1999/xlink">
    <!-- Generator: Sketch 46.1 (44463) - http://www.bohemiancoding.com/sketch -->
    <title>买手推荐</title>
    <desc>Created with Sketch.</desc>
    <defs></defs>
    <g id="Page-1" stroke="none" stroke-width="1" fill="none" fill-rule="evenodd">
        <g id="eat首页" transform="translate(-303.000000, -4286.000000)" fill="#444444">
            <g id="买手推荐" transform="translate(303.000000, 4283.000000)">
                <path d="M46.4765625,35.5976563 L45.734375,35.2265625 C45.5859368,35.0781243 45.4869794,34.8925792 45.4375,34.6699219 C45.3880206,34.4472645 45.3385419,34.2369802 45.2890625,34.0390625 C45.3385419,33.8411448 45.4003903,33.6555998 45.4746094,33.4824219 C45.5488285,33.3092439 45.6354162,33.1484382 45.734375,33 C45.9817721,32.8515618 46.2291654,32.7278651 46.4765625,32.6289062 C46.7239596,32.5299474 46.9466136,32.3567721 47.1445312,32.109375 C47.9362019,30.7734308 48.5175763,29.350919 48.8886719,27.8417969 C49.2597675,26.3326747 49.4700518,24.8112056 49.5195312,23.2773438 L44.9921875,23.2773438 C43.7552021,23.2773438 42.530605,23.3391921 41.3183594,23.4628906 C40.1061137,23.5865892 38.8815166,23.7226555 37.6445312,23.8710938 L36.9023438,23.5 C36.7539055,23.3020823 36.6425785,23.091798 36.5683594,22.8691406 C36.4941403,22.6464833 36.4817706,22.4114596 36.53125,22.1640625 L36.9023438,21.421875 C38.1888085,21.0260397 39.512363,20.7662767 40.8730469,20.6425781 C42.2337308,20.5188796 43.6067639,20.4322919 44.9921875,20.3828125 L49.59375,20.3828125 L49.59375,17.4140625 L49.296875,16.078125 L48.40625,15.9296875 L42.46875,15.9296875 L38.3125,16.2265625 L37.5703125,15.8554688 C37.4218743,15.6575511 37.3105472,15.4472667 37.2363281,15.2246094 C37.162109,15.001952 37.1497393,14.7669283 37.1992188,14.5195313 L37.5703125,13.7773438 C38.3125037,13.4309879 39.1165321,13.2578125 39.9824219,13.2578125 C40.8483116,13.2578125 41.6770794,13.1835945 42.46875,13.0351563 L48.40625,13.0351563 L48.5546875,13.109375 L48.6289062,13.0351563 C48.3815092,12.5898415 48.1835945,12.1197941 48.0351562,11.625 C47.886718,11.1302059 47.7630213,10.6106798 47.6640625,10.0664063 L46.8476562,9.6953125 C46.699218,9.49739484 46.587891,9.28711049 46.5136719,9.06445313 C46.4394528,8.84179576 46.4270831,8.60677207 46.4765625,8.359375 L46.5507812,8.28515625 L46.4765625,8.2109375 L43.1367188,8.2109375 L39.2773438,8.65625 L38.5351562,8.28515625 C38.386718,8.08723859 38.275391,7.87695424 38.2011719,7.65429688 C38.1269528,7.43163951 38.1145831,7.19661582 38.1640625,6.94921875 L38.5351562,6.20703125 C39.227868,5.86067535 39.9700481,5.66276066 40.7617188,5.61328125 C41.5533894,5.56380184 42.3450481,5.46484449 43.1367188,5.31640625 L52.6367188,5.31640625 L53.2304688,5.46484375 C53.4283864,5.51432316 53.6015618,5.61328051 53.75,5.76171875 C53.8984382,5.95963641 54.0097653,6.16992076 54.0839844,6.39257813 C54.1582035,6.61523549 54.1705732,6.85025918 54.1210938,7.09765625 L53.75,7.83984375 L53.0078125,8.2109375 L50.0390625,8.2109375 L49.9648438,8.28515625 C50.2617202,9.07682688 50.5585923,9.89322496 50.8554688,10.734375 C51.1523452,11.575525 51.4244779,12.3919231 51.671875,13.1835938 C52.513025,13.2825526 53.3541625,13.3567706 54.1953125,13.40625 C55.0364625,13.4557294 55.803382,13.7526014 56.4960938,14.296875 C56.644532,14.4947927 56.755859,14.705077 56.8300781,14.9277344 C56.9042972,15.1503917 56.9166669,15.3854154 56.8671875,15.6328125 L56.4960938,16.375 C56.2981761,16.5234382 56.0878917,16.6347653 55.8652344,16.7089844 C55.642577,16.7832035 55.382814,16.7955732 55.0859375,16.7460938 C54.6901022,16.4492173 54.2447941,16.2760419 53.75,16.2265625 C53.2552059,16.1770831 52.7604191,16.1523438 52.265625,16.1523438 L52.265625,16.4492188 L52.4882812,17.4140625 L52.4882812,20.4570313 L55.9023438,20.6054688 C57.0403703,20.6549482 58.1289011,20.9023415 59.1679688,21.3476563 C59.316407,21.5455739 59.427734,21.7558583 59.5019531,21.9785156 C59.5761722,22.201173 59.5885419,22.4361967 59.5390625,22.6835938 L59.1679688,23.4257813 C59.0195305,23.5742195 58.8463552,23.6731768 58.6484375,23.7226563 L58.0546875,23.8710938 C57.164058,23.6731761 56.2487026,23.5494794 55.3085938,23.5 C54.3684849,23.4505206 53.4283901,23.3763026 52.4882812,23.2773438 C52.339843,25.1575615 52.042971,27.0501207 51.5976562,28.9550781 C51.1523415,30.8600356 50.3606828,32.6041587 49.2226562,34.1875 C48.7773415,34.4843765 48.3567728,34.8059879 47.9609375,35.1523438 C47.5651022,35.4986996 47.0703155,35.6471357 46.4765625,35.5976563 Z M88.6328125,34.0390625 L87.890625,33.6679687 L87.4453125,33.1484375 C87.2968743,32.9505198 87.1855472,32.7402355 87.1113281,32.5175781 C87.037109,32.2949208 87.0247393,32.0598971 87.0742188,31.8125 L87.1484375,31.5898437 C86.6041639,29.3632701 86.1959649,27.1243602 85.9238281,24.8730469 C85.6516913,22.6217335 85.3424496,20.3580843 84.9960938,18.0820312 L83.5117188,20.3828125 C83.3138011,20.5312507 83.1035167,20.6425778 82.8808594,20.7167969 C82.658202,20.791016 82.4231783,20.8033857 82.1757812,20.7539062 L81.4335938,20.3828125 C81.2851555,20.1848948 81.1738285,19.9746105 81.0996094,19.7519531 C81.0253903,19.5292958 81.0130206,19.2695327 81.0625,18.9726562 C82.2500059,17.0429591 83.4993424,15.1503999 84.8105469,13.2949219 C86.1217513,11.4394438 87.4947845,9.64584199 88.9296875,7.9140625 C89.226564,7.61718602 89.5481754,7.34505332 89.8945312,7.09765625 C90.2408871,6.85025918 90.6367165,6.75130184 91.0820312,6.80078125 L91.8242188,7.171875 C91.972657,7.36979266 92.083984,7.58007701 92.1582031,7.80273437 C92.2324222,8.02539174 92.2447919,8.26041543 92.1953125,8.5078125 L91.8242188,9.25 L90.9335938,9.91796875 L87.6679688,14.2226562 L87.890625,14.296875 C89.0781309,14.0989573 90.2903584,14 91.5273438,14 C92.7643291,14 93.9765566,13.925782 95.1640625,13.7773437 L94.71875,13.4804687 C94.5703118,13.2825511 94.4589847,13.0722667 94.3847656,12.8496094 C94.3105465,12.626952 94.2981768,12.367189 94.3476562,12.0703125 C94.7434916,10.932286 95.1269513,9.79427652 95.4980469,8.65625 C95.8691425,7.51822348 96.3020809,6.40495336 96.796875,5.31640625 C96.9947927,5.16796801 97.205077,5.056641 97.4277344,4.98242187 C97.6503917,4.90820275 97.8854154,4.89583309 98.1328125,4.9453125 L98.875,5.31640625 C99.0234382,5.51432391 99.1347653,5.72460826 99.2089844,5.94726562 C99.2832035,6.16992299 99.2955732,6.42968602 99.2460938,6.7265625 C98.8502584,7.86458902 98.4667987,9.00259848 98.0957031,10.140625 C97.7246075,11.2786515 97.2916691,12.3919216 96.796875,13.4804687 L96.3515625,13.7773437 L97.09375,13.8515625 L97.1679688,13.7773437 L101.769531,13.7773437 L102.511719,14.1484375 C102.660157,14.3463552 102.771484,14.5566395 102.845703,14.7792969 C102.919922,15.0019542 102.932292,15.2369779 102.882812,15.484375 L102.511719,16.2265625 C102.363281,16.3750007 102.190105,16.4739581 101.992188,16.5234375 L101.398438,16.671875 L97.1679688,16.671875 L96.5,16.7460937 L96.5,18.8242187 L96.5742188,19.640625 C97.31641,19.5911456 98.05859,19.6158849 98.8007812,19.7148438 C99.5429725,19.8138026 100.235674,20.0117173 100.878906,20.3085937 C101.027344,20.5065114 101.138672,20.7167958 101.212891,20.9394531 C101.28711,21.1621105 101.299479,21.3971342 101.25,21.6445312 L100.878906,22.3867187 C100.680989,22.535157 100.458335,22.646484 100.210938,22.7207031 C99.9635404,22.7949222 99.6914077,22.8072919 99.3945312,22.7578125 C98.9492165,22.6093743 98.4915388,22.5351562 98.0214844,22.5351562 L96.5742188,22.5351562 L96.5742188,23.1289062 L96.7226562,24.4648437 C97.3164092,24.4648437 97.8977836,24.5019528 98.4667969,24.5761719 C99.0358101,24.650391 99.5677059,24.8111967 100.0625,25.0585937 C100.210938,25.2565114 100.322265,25.4667958 100.396484,25.6894531 C100.470703,25.9121105 100.483073,26.1471342 100.433594,26.3945312 L100.0625,27.1367187 C99.8645823,27.3346364 99.6295587,27.4583331 99.3574219,27.5078125 C99.0852851,27.5572919 98.8007827,27.5572919 98.5039062,27.5078125 L96.9453125,27.359375 L96.9453125,28.3984375 L97.0195312,30.8476562 C97.9596401,30.9466151 98.9244742,30.9837241 99.9140625,30.9589844 C100.903651,30.9342447 101.819006,31.1197897 102.660156,31.515625 C102.808594,31.7135427 102.919922,31.923827 102.994141,32.1464844 C103.06836,32.3691417 103.080729,32.6041654 103.03125,32.8515625 L102.660156,33.59375 C102.511718,33.7421882 102.326173,33.8411456 102.103516,33.890625 C101.880858,33.9401044 101.670574,33.9895831 101.472656,34.0390625 C100.186191,33.9401037 98.9121157,33.853516 97.6503906,33.7792969 C96.3886656,33.7050778 95.1145898,33.5937507 93.828125,33.4453125 L90.1171875,33.4453125 L89.96875,33.6679687 C89.7708323,33.816407 89.560548,33.927734 89.3378906,34.0019531 C89.1152333,34.0761722 88.8802096,34.0885419 88.6328125,34.0390625 Z M77.9453125,33.890625 L77.203125,33.5195312 C76.6588514,32.1341077 76.3248704,30.6868565 76.2011719,29.1777344 C76.0774733,27.6686122 75.9661463,26.1718824 75.8671875,24.6875 L75.4960938,24.6875 C74.7539025,24.8359382 73.9993528,24.9967439 73.2324219,25.1699219 C72.465491,25.3430998 71.6862019,25.5039055 70.8945312,25.6523437 L70.1523438,25.28125 C70.0039055,25.0833323 69.8925785,24.873048 69.8183594,24.6503906 C69.7441403,24.4277333 69.7317706,24.1927096 69.78125,23.9453125 L70.1523438,23.203125 C71.0429732,22.7578103 71.9706983,22.4609382 72.9355469,22.3125 C73.9003954,22.1640618 74.8775992,21.9908864 75.8671875,21.7929688 L75.8671875,13.7773438 C75.1249963,13.7773438 74.3951859,13.7526044 73.6777344,13.703125 C72.9602829,13.6536456 72.2799511,13.4557309 71.6367188,13.109375 C71.4882805,12.9114573 71.3769535,12.701173 71.3027344,12.4785156 C71.2285153,12.2558583 71.2161456,12.0208346 71.265625,11.7734375 L71.6367188,11.03125 C71.8346364,10.8828118 72.0449208,10.7714847 72.2675781,10.6972656 C72.4902355,10.6230465 72.7252592,10.6106768 72.9726562,10.6601562 C73.417971,10.7591151 73.8756487,10.8209634 74.3457031,10.8457031 C74.8157576,10.8704428 75.2981746,10.8828125 75.7929688,10.8828125 L75.7929688,9.84375 L75.5703125,7.6171875 C75.6197919,7.41926984 75.6816403,7.23372482 75.7558594,7.06054688 C75.8300785,6.88736893 75.9166662,6.72656324 76.015625,6.578125 C76.2135427,6.42968676 76.423827,6.31835975 76.6464844,6.24414062 C76.8691417,6.1699215 77.1041654,6.15755184 77.3515625,6.20703125 L78.09375,6.578125 C78.4401059,7.22135738 78.6132812,7.93879812 78.6132812,8.73046875 C78.6132812,9.52213938 78.6380206,10.3137981 78.6875,11.1054688 C79.3802118,11.2044276 80.1100222,11.2539062 80.8769531,11.2539062 C81.643884,11.2539062 82.3489551,11.4270816 82.9921875,11.7734375 C83.1406257,11.9713552 83.2519528,12.1816395 83.3261719,12.4042969 C83.400391,12.6269542 83.4127607,12.8619779 83.3632812,13.109375 L82.9921875,13.8515625 C82.8437493,14.0000007 82.6705739,14.0989581 82.4726562,14.1484375 L81.8789062,14.296875 L78.8359375,14 L78.7617188,14.0742188 L78.7617188,21.1992188 L78.9101562,21.1992188 L80.3945312,20.9765625 L81.1367188,21.3476562 C81.285157,21.5455739 81.396484,21.7558583 81.4707031,21.9785156 C81.5449222,22.201173 81.5572919,22.4361967 81.5078125,22.6835938 L81.1367188,23.4257813 C80.7903629,23.6731783 80.4069031,23.8216143 79.9863281,23.8710938 C79.5657531,23.9205732 79.1575541,23.9947912 78.7617188,24.09375 L78.7617188,25.2070313 C78.8606776,26.493496 78.9720046,27.7675718 79.0957031,29.0292969 C79.2194017,30.2910219 79.4049467,31.5403584 79.6523438,32.7773438 L79.28125,33.5195312 C79.0833323,33.6679695 78.873048,33.7792965 78.6503906,33.8535156 C78.4277333,33.9277347 78.1927096,33.9401044 77.9453125,33.890625 Z M94.1992188,30.5507812 L93.9765625,27.2109375 L92.9375,27.2109375 L89.2265625,27.5078125 L89.2265625,27.8046875 L89.8203125,30.5507812 L93.828125,30.5507812 L94.125,30.625 L94.1992188,30.5507812 Z M93.828125,24.2421875 L93.6796875,22.5351562 L92.4921875,22.5351562 L88.5585938,22.90625 L88.5585938,23.2773438 L88.78125,24.6875 L89.2265625,24.6875 L93.828125,24.2421875 Z M93.6796875,19.640625 L93.6796875,18.8984375 L93.6054688,16.8203125 L92.5664062,16.8203125 L87.890625,17.1914062 L87.8164062,17.4882812 L88.2617188,19.9375 L88.7070312,20.0117188 L93.6796875,19.640625 Z M128.859375,37.453125 L128.117188,37.0820312 C127.968749,36.8841136 127.857422,36.6738292 127.783203,36.4511719 C127.708984,36.2285145 127.696614,35.9687515 127.746094,35.671875 C128.04297,35.078122 128.302733,34.484378 128.525391,33.890625 C128.748048,33.296872 128.933593,32.6783886 129.082031,32.0351562 L129.007812,31.8125 L123.441406,31.8125 L122.699219,31.4414063 C122.550781,31.2434886 122.439453,31.0332042 122.365234,30.8105469 C122.291015,30.5878895 122.278646,30.3528658 122.328125,30.1054688 L122.699219,29.3632813 C123.243492,29.0169254 123.874345,28.8684893 124.591797,28.9179688 C125.309248,28.9674482 125.98958,28.9427088 126.632812,28.84375 C126.533854,28.6953118 126.459636,28.5468757 126.410156,28.3984375 L126.261719,27.953125 C126.410157,27.0624955 126.608072,26.1471401 126.855469,25.2070313 C127.102866,24.2669224 127.523435,23.425785 128.117188,22.6835938 L126.1875,22.0898438 C125.544268,21.8919261 124.876306,21.7929688 124.183594,21.7929688 L123.441406,21.8671875 L122.699219,21.4960938 C122.550781,21.2981761 122.439453,21.0878917 122.365234,20.8652344 C122.291015,20.642577 122.278646,20.4075533 122.328125,20.1601563 L122.699219,19.4179688 C122.996095,19.2200511 123.342446,19.0839847 123.738281,19.0097656 C124.134117,18.9355465 124.529946,18.8984375 124.925781,18.8984375 C126.063808,19.0963552 127.214187,19.3561182 128.376953,19.6777344 C129.539719,19.9993506 130.61588,20.4817676 131.605469,21.125 C131.753907,21.3229177 131.865234,21.533202 131.939453,21.7558594 C132.013672,21.9785167 132.026042,22.2135404 131.976562,22.4609375 L131.605469,23.203125 C131.209633,23.5000015 130.863283,23.8463522 130.566406,24.2421875 C130.26953,24.6380228 130.022136,25.0338522 129.824219,25.4296875 C129.72526,25.7760434 129.613933,26.1223941 129.490234,26.46875 C129.366536,26.8151059 129.279948,27.1861959 129.230469,27.5820313 L130.417969,28.9179688 L135.464844,28.9179688 L136.578125,28.84375 L137.320312,29.2148438 C137.468751,29.4127614 137.580078,29.6230458 137.654297,29.8457031 C137.728516,30.0683605 137.740886,30.3033842 137.691406,30.5507813 L137.320312,31.2929688 C137.072915,31.4908864 136.788413,31.6145831 136.466797,31.6640625 C136.145181,31.7135419 135.8112,31.7630206 135.464844,31.8125 L131.902344,31.8125 L131.902344,31.9609375 L131.976562,32.7773438 L131.234375,35.0039062 C130.986978,35.7460975 130.640627,36.4387989 130.195312,37.0820312 C129.997395,37.2304695 129.78711,37.3417965 129.564453,37.4160156 C129.341796,37.4902347 129.106772,37.5026044 128.859375,37.453125 Z M117.503906,35.5234375 L116.761719,35.1523437 C116.069007,33.5195231 115.648438,31.8248786 115.5,30.0683594 C115.351562,28.3118402 115.227865,26.5429777 115.128906,24.7617187 C114.584633,25.3554717 114.126955,25.9986945 113.755859,26.6914062 C113.384764,27.384118 113.026043,28.0768195 112.679688,28.7695312 C112.48177,28.9179695 112.271485,29.0292965 112.048828,29.1035156 C111.826171,29.1777347 111.591147,29.1901044 111.34375,29.140625 L110.601562,28.7695312 C110.453124,28.5716136 110.341797,28.3613292 110.267578,28.1386719 C110.193359,27.9160145 110.180989,27.6562515 110.230469,27.359375 C110.97266,25.6770749 111.937494,24.1061271 113.125,22.6464844 C114.312506,21.1868417 115.524733,19.7890692 116.761719,18.453125 L116.6875,18.3789062 L113.496094,18.3789062 C113.100258,18.3789062 112.716799,18.4283849 112.345703,18.5273437 C111.974608,18.6263026 111.591148,18.6757812 111.195312,18.6757812 L110.453125,18.3046875 C110.304687,18.1067698 110.19336,17.8964855 110.119141,17.6738281 C110.044922,17.4511708 110.032552,17.2161471 110.082031,16.96875 L110.453125,16.2265625 C110.89844,15.929686 111.380857,15.7317713 111.900391,15.6328125 C112.419924,15.5338537 112.95182,15.484375 113.496094,15.484375 L119.433594,15.484375 L122.921875,11.6992187 C123.119793,11.5507805 123.330077,11.4394535 123.552734,11.3652344 C123.775392,11.2910153 124.010415,11.2786456 124.257812,11.328125 L125,11.6992187 L125.445312,12.1445312 C125.593751,12.3424489 125.705078,12.5527333 125.779297,12.7753906 C125.853516,12.998048 125.865886,13.2330717 125.816406,13.4804687 L125.445312,14.2226562 C125.197915,14.4700533 124.888674,14.59375 124.517578,14.59375 C124.146483,14.59375 123.86198,14.7669254 123.664062,15.1132812 L123.367188,15.484375 C125.544282,15.6822927 127.746083,15.8059893 129.972656,15.8554687 C132.19923,15.9049482 134.376291,16.1770809 136.503906,16.671875 C136.652344,16.8697927 136.763672,17.080077 136.837891,17.3027344 C136.91211,17.5253917 136.924479,17.7604154 136.875,18.0078125 L136.503906,18.75 C136.256509,18.9479177 135.984376,19.0592447 135.6875,19.0839844 C135.390624,19.1087241 135.069012,19.1210937 134.722656,19.1210937 C132.397124,18.9231761 130.059257,18.7623704 127.708984,18.6386719 C125.358712,18.5149733 123.020845,18.4283857 120.695312,18.3789062 L117.578125,21.8671875 C118.02344,23.9453229 118.258463,26.0481664 118.283203,28.1757812 C118.307943,30.3033961 118.617185,32.3815003 119.210938,34.4101562 L118.839844,35.1523437 C118.641926,35.300782 118.431642,35.412109 118.208984,35.4863281 C117.986327,35.5605472 117.751303,35.5729169 117.503906,35.5234375 Z M127.078125,14.7421875 L126.335938,14.3710938 C126.187499,14.1731761 126.076172,13.9628917 126.001953,13.7402344 C125.927734,13.517577 125.915364,13.257814 125.964844,12.9609375 L127.449219,9.02734375 L123.886719,8.73046875 C122.699213,8.63150992 121.486985,8.58203125 120.25,8.58203125 L120.175781,11.6992188 C120.27474,11.9960952 120.373697,12.2805976 120.472656,12.5527344 C120.571615,12.8248712 120.596354,13.1341129 120.546875,13.4804688 L120.175781,14.2226563 C119.977864,14.3710945 119.767579,14.4824215 119.544922,14.5566406 C119.322265,14.6308597 119.087241,14.6432294 118.839844,14.59375 L118.097656,14.2226563 C117.850259,13.8268209 117.664714,13.4186219 117.541016,12.9980469 C117.417317,12.5774719 117.30599,12.1445335 117.207031,11.6992188 L117.355469,8.58203125 L115.945312,8.58203125 L113.125,8.65625 C112.828124,8.55729117 112.518882,8.48307316 112.197266,8.43359375 C111.875649,8.38411434 111.591147,8.26041766 111.34375,8.0625 C111.195312,7.86458234 111.083985,7.65429799 111.009766,7.43164062 C110.935547,7.20898326 110.923177,6.97395957 110.972656,6.7265625 L111.34375,5.984375 C111.541668,5.83593676 111.751952,5.72460975 111.974609,5.65039062 C112.197267,5.5761715 112.43229,5.56380184 112.679688,5.61328125 C113.174482,5.71224008 113.694008,5.76171875 114.238281,5.76171875 L115.871094,5.76171875 L118.023438,5.61328125 C118.122396,5.26692535 118.246093,4.92057465 118.394531,4.57421875 C118.542969,4.22786285 118.716145,3.90625148 118.914062,3.609375 C119.11198,3.46093676 119.322265,3.34960975 119.544922,3.27539062 C119.767579,3.2011715 120.002603,3.18880184 120.25,3.23828125 L120.992188,3.609375 C121.140626,3.80729266 121.251953,4.01757701 121.326172,4.24023438 C121.400391,4.46289174 121.412761,4.72265477 121.363281,5.01953125 L121.140625,5.6875 L128.5625,6.1328125 L129.527344,4.3515625 C129.725261,4.20312426 129.935546,4.09179725 130.158203,4.01757812 C130.38086,3.943359 130.615884,3.93098934 130.863281,3.98046875 L131.605469,4.3515625 C131.753907,4.54948016 131.865234,4.75976451 131.939453,4.98242188 C132.013672,5.20507924 132.026042,5.46484227 131.976562,5.76171875 L131.753906,6.28125 C132.842453,6.42968824 133.955723,6.51627592 135.09375,6.54101562 C136.231777,6.56575533 137.320307,6.75130035 138.359375,7.09765625 C138.507813,7.29557391 138.61914,7.50585826 138.693359,7.72851562 C138.767578,7.95117299 138.779948,8.18619668 138.730469,8.43359375 L138.359375,9.17578125 C138.013019,9.47265773 137.59245,9.60872408 137.097656,9.58398437 C136.602862,9.55924467 136.108075,9.546875 135.613281,9.546875 L130.566406,9.17578125 C130.170571,10.0169313 129.82422,10.882808 129.527344,11.7734375 C129.230467,12.664067 128.859377,13.5299437 128.414062,14.3710938 C128.216145,14.519532 128.00586,14.630859 127.783203,14.7050781 C127.560546,14.7792972 127.325522,14.7916669 127.078125,14.7421875 Z" id="手推荐"></path>
                <g id="买" transform="translate(0.000000, 3.000000)">
                    <path d="M1.3646709,4.89792857 C6.30723175,4.33178571 11.2558667,3.82907143 16.2123111,3.40178571 C17.3451259,3.30407143 18.4783746,3.20978571 19.6120571,3.11978571 C20.5140571,3.04778571 22.6330413,2.4465 23.4387238,2.82878571 C25.4874222,3.80164286 22.5692635,7.39864286 21.5392741,8.19064286 C20.0862688,9.3075 22.1262899,11.2965 23.5636762,10.1907857 C26.4158878,7.99821429 29.3995598,-0.0593571429 23.4387238,0.000214285714 C16.1229354,0.0735 8.62535873,1.23792857 1.3646709,2.06935714 C-0.444101587,2.27635714 -0.465360847,5.1075 1.3646709,4.89792857" id="Fill-1"></path>
                    <path d="M3.95469947,10.1542286 C5.36952487,10.1773714 6.69671005,10.5125143 7.94276296,11.1759429 C9.56540847,12.0395143 11.0127735,9.59837143 9.38795873,8.73351429 C7.69806455,7.83394286 5.87540847,7.35694286 3.95469947,7.32565714 C2.11165185,7.29565714 2.11121799,10.1242286 3.95469947,10.1542286" id="Fill-3"></path>
                    <path d="M3.95383175,15.7785857 C5.03067831,15.7605857 6.02552487,15.9868714 6.97177884,16.5003 C8.5879164,17.3767286 10.0344138,14.9351571 8.4169746,14.0578714 C7.03946138,13.3108714 5.52701693,12.9238714 3.95383175,12.9500143 C2.1133873,12.9808714 2.10774709,15.8094429 3.95383175,15.7785857" id="Fill-5"></path>
                    <path d="M14.1271683,9.30647143 C10.6363111,16.2381857 8.06827937,23.5419 6.50811005,31.1306143 C6.14279788,32.9074714 8.90216296,33.6677571 9.26964444,31.8823286 C10.7803534,24.5336143 13.2173587,17.4493286 16.5993164,10.7340429 C17.4180148,9.10932857 14.9489037,7.6749 14.1271683,9.30647143" id="Fill-7"></path>
                    <path d="M15.312654,24.8304857 C19.1111196,26.3142 22.3338497,28.7386286 24.9092571,31.8564857 C26.0750455,33.2677714 28.0899026,31.2560571 26.9340931,29.8567714 C24.0293841,26.3399143 20.3363471,23.7680571 16.0736487,22.1030571 C14.3598921,21.4336286 13.6162519,24.1679143 15.312654,24.8304857" id="Fill-9"></path>
                    <path d="M1.94426772,21.3604714 C9.65704021,20.9717571 17.3620032,20.4536143 25.0574212,19.8064714 C26.8800772,19.6530429 26.896564,16.8231857 25.0574212,16.9774714 C17.3620032,17.6250429 9.65704021,18.1431857 1.94426772,18.5319 C0.110331217,18.6244714 0.0994846561,21.4534714 1.94426772,21.3604714" id="Fill-12"></path>
                </g>
            </g>
        </g>
    </g>
</svg>