<?xml version="1.0" encoding="UTF-8"?>
<svg width="90px" height="27px" viewBox="0 0 90 27" version="1.1" xmlns="http://www.w3.org/2000/svg" xmlns:xlink="http://www.w3.org/1999/xlink">
    <!-- Generator: Sketch 44.1 (41455) - http://www.bohemiancoding.com/sketch -->
    <title>海鲜_nor</title>
    <desc>Created with Sketch.</desc>
    <defs>
        <polygon id="path-1" points="0.114449438 0.0571666667 87.5391317 0.0571666667 87.5391317 15.4644824 0.114449438 15.4644824"></polygon>
    </defs>
    <g id="Page-1" stroke="none" stroke-width="1" fill="none" fill-rule="evenodd" opacity="0.7">
        <g id="海鲜_nor">
            <g id="Group-3" transform="translate(1.000000, 0.109383)">
                <mask id="mask-2" fill="white">
                    <use xlink:href="#path-1"></use>
                </mask>
                <g id="Clip-2"></g>
                <path d="M3.44635526,14.7077 C8.20332895,8.31903333 19.5634605,8.16853333 26.9801711,7.22003333 C35.1962237,6.17003333 43.3613553,5.94253333 51.5395132,7.3892 C56.7239868,8.3062 61.5804342,8.98636667 66.8181974,7.95736667 C69.7763553,7.37753333 72.5035921,6.37303333 75.2260921,5.12236667 C76.3179342,4.6207 77.5672763,3.6757 78.7396447,3.4167 C80.0920132,2.18703333 81.1495132,2.40986667 81.9156974,4.08636667 C84.1491184,5.41403333 83.7595132,6.6507 80.7433289,7.79403333 C78.7609605,8.95836667 81.7735921,9.3807 82.8583289,8.7437 C86.1468816,6.81286667 90.8055658,0.2597 84.1728026,0.0602 C80.5941184,-0.0459666667 76.9858289,2.41686667 73.88675,3.79236667 C65.6256974,7.46153333 58.9053026,6.20036667 50.3612237,5.0512 C39.7696447,3.62786667 29.0987237,4.9847 18.6421447,6.75803333 C11.7843816,7.92003333 4.64951316,8.7717 0.260828947,14.6680333 C-0.628513158,15.8615333 2.79859211,15.5780333 3.44635526,14.7077" id="Fill-1" fill="#000000" mask="url(#mask-2)"></path>
            </g>
            <path d="M1.78413158,16.5483 C7.66610526,18.7066333 12.4988684,22.7176333 18.2186053,25.1676333 C22.8642632,27.1579667 27.5004474,27.2594667 32.4468947,26.5198 C38.6521579,25.5934667 44.7851842,23.9893 50.724,22.0164667 C57.6646579,19.7111333 65.7232105,14.2768 73.0096579,13.8486333 C74.1429474,13.7821333 76.6783421,11.9983 74.3975526,12.1313 C70.4588684,12.3634667 67.1809737,13.5208 63.6082105,15.1144667 C56.8961053,18.1081333 50.2242632,20.8381333 43.0858421,22.7211333 C35.1966316,24.8013 26.9758421,26.6528 19.3258421,22.8669667 C14.2811053,20.3691333 9.87465789,16.9846333 4.54689474,15.0293 C3.62084211,14.6898 0.501631579,16.0781333 1.78413158,16.5483" id="Fill-4" fill="#000000"></path>
            <path d="M74.1401053,13.4186 C77.5790526,14.3892667 80.6319474,16.8019333 84.2947105,16.9407667 C85.8318158,16.9979333 88.5637895,16.5966 89.4732632,15.1312667 C90.7972105,13.0009333 87.0255,10.6011 85.4114211,9.94426667 C83.1282632,9.01676667 80.7503684,9.19526667 78.4826053,10.0341 C77.3481316,10.4529333 78.4044474,10.7924333 79.1066842,10.5322667 C81.3341842,9.7086 83.7416842,10.2406 85.6127368,11.5612667 C86.0520789,11.8716 86.4653684,12.2181 86.8301053,12.6124333 C87.1095789,12.8702667 87.3416842,13.1654333 87.5311579,13.4956 C88.9107632,15.0414333 87.6389211,15.8557667 83.7168158,15.9397667 C80.8770789,15.5536 78.2895789,13.4804333 75.5339211,12.7034333 C75.0981316,12.5809333 73.5669474,13.2564333 74.1401053,13.4186" id="Fill-6" fill="#000000"></path>
            <path d="M28.9411579,6.61518333 C30.4344474,5.37501667 32.0118158,4.28535 33.7739211,3.44535 C34.6703684,3.01835 35.5668158,2.65085 36.5236579,2.36151667 C37.1181316,2.18185 39.6890526,1.98468333 39.8110263,1.76301667 C40.473,1.54368333 41.1349737,1.32435 41.7969474,1.10501667 C41.7306316,1.09801667 41.6643158,1.09101667 41.598,1.08401667 C40.8069474,1.00118333 38.5877368,2.28685 40.0147105,2.43618333 C40.0810263,2.44318333 40.1485263,2.45018333 40.2148421,2.45718333 C40.7951053,2.51785 41.8762895,2.39535 42.2019474,1.79918333 C42.2386579,1.73151667 42.2753684,1.66501667 42.3120789,1.59851667 C42.4103684,1.41651667 42.4612895,1.26251667 42.3120789,1.08868333 C40.8105,-0.658983333 37.1512895,0.800516667 35.3666842,1.39201667 C32.2202368,2.43501667 29.4124737,4.12201667 26.8841842,6.22435 C25.7674737,7.15185 28.3158947,7.13551667 28.9411579,6.61518333" id="Fill-8" fill="#000000"></path>
            <path d="M40.4525132,3.16698333 C43.5658026,2.47865 48.4340921,2.97915 51.4325132,4.02098333 C51.1376447,3.91948333 53.5830395,4.95315 53.3343553,4.80731667 C53.7002763,4.85748333 54.0661974,4.90065 54.4344868,4.93915 C55.2965921,4.83648333 55.4090921,5.54465 54.7684342,7.06248333 C53.6505395,7.46965 54.6606711,8.11831667 55.4659342,7.82665 C58.1588289,6.84665 58.7343553,4.40365 55.6696184,3.88098333 C52.9909342,3.42481667 51.1329079,2.10531667 48.4471184,2.06331667 C45.4936974,2.01548333 43.1004079,1.60948333 40.2026447,2.24998333 C39.15225,2.48331667 39.4080395,3.39798333 40.4525132,3.16698333" id="Fill-10" fill="#000000"></path>
            <path d="M19.5450395,9.91743333 C19.0630658,12.7291 21.9774079,19.3184333 17.6266184,20.3964333 C16.6271447,20.6437667 16.7574079,21.1734333 17.7699079,20.9237667 C19.3828026,20.5236 20.6960921,19.6182667 21.3853026,18.0782667 C22.5955658,15.3692667 20.7541184,12.4397667 21.2372763,9.6211 C21.3047763,9.22676667 19.6160921,9.50443333 19.5450395,9.91743333" id="Fill-12" fill="#000000"></path>
            <path d="M22.6419868,11.7808333 C22.5792237,12.9043333 22.8456711,14.022 23.6379079,14.8678333 C23.9943553,15.2481667 24.5544868,15.3963333 24.8919868,15.7556667 C25.8050132,16.7286667 23.4436974,17.5231667 22.7793553,17.613 C21.8817237,17.7343333 21.4175132,18.8835 22.59225,18.7248333 C23.9221184,18.5451667 26.7902763,17.6841667 26.9525132,16.0251667 C27.0318553,15.2143333 26.3071184,14.932 25.7458026,14.5598333 C24.7238289,13.882 24.3034342,12.8075 24.3709342,11.6175 C24.4159342,10.8148333 22.6798816,11.1006667 22.6419868,11.7808333" id="Fill-14" fill="#000000"></path>
            <path d="M27.6066711,18.21745 C28.6996974,17.6352833 29.7844342,17.03795 30.8881184,16.4732833 C31.62825,16.0941167 32.4074605,15.6216167 33.2245658,15.4197833 C34.1210132,15.1981167 37.2828553,15.01845 36.5533816,16.5946167 C36.4610132,16.7941167 36.7511447,16.9142833 36.8849605,16.9457833 C38.9668026,17.4451167 38.7927237,19.5486167 36.8861447,20.5997833 C35.90325,21.1411167 34.5129868,21.2426167 33.42825,21.2531167 C31.3108816,21.2741167 29.3841711,20.6896167 27.5190395,19.7282833 C27.0252237,19.4751167 25.4490395,20.1832833 26.1524605,20.54495 C29.3948289,22.21445 33.02325,22.7266167 36.5545658,21.6462833 C38.2681184,21.12245 41.3352237,19.5112833 40.0325921,17.2222833 C39.6844342,16.61095 38.9679868,16.6541167 38.6186447,16.2061167 C38.3687763,15.8841167 38.6660132,15.7861167 38.4374605,15.3101167 C38.0312763,14.4677833 37.4012763,14.1772833 36.4669342,14.06995 C32.9498289,13.6651167 29.4623289,16.1641167 26.54325,17.7181167 C25.5295658,18.2571167 27.0441711,18.5161167 27.6066711,18.21745" id="Fill-16" fill="#000000"></path>
            <path d="M12.9208026,12.86035 C12.3144868,13.16835 11.8277763,13.8240167 12.2979079,14.46335 C12.7858026,15.1306833 13.9261974,14.9906833 14.5265921,14.5940167 C15.0855395,14.2265167 15.4715921,13.4646833 14.8948816,12.92335 C14.2601447,12.3260167 13.2890921,12.6025167 12.6436974,13.00735 C12.1688289,13.3060167 12.0231711,13.99785 12.51225,14.3455167 C13.0711974,14.7421833 13.8373816,14.5275167 14.3596184,14.1996833 C14.3927763,14.1786833 14.4259342,14.1576833 14.4579079,14.13785 C14.1358026,14.2545167 13.8136974,14.3711833 13.4904079,14.4890167 C13.5283026,14.48435 13.5638289,14.4785167 13.5993553,14.47385 C13.38975,14.4481833 13.1801447,14.42135 12.9705395,14.3956833 C13.0036974,14.4120167 13.0392237,14.42835 13.0735658,14.4435167 C12.9267237,14.3431833 12.7810658,14.2405167 12.6354079,14.1390167 C12.6567237,14.1740167 12.6780395,14.2090167 12.6993553,14.2440167 C12.6555395,14.0865167 12.6129079,13.9290167 12.5702763,13.7715167 L12.5773816,13.7575167 C12.7976447,13.5545167 13.0167237,13.35035 13.2358026,13.1461833 C13.2026447,13.16485 13.1718553,13.1835167 13.1398816,13.2021833 C13.36725,13.1415167 13.5946184,13.08085 13.8231711,13.02135 C13.7864605,13.0225167 13.7509342,13.02485 13.7142237,13.0260167 C14.0079079,13.0936833 14.3015921,13.1625167 14.5940921,13.2301833 C14.5502763,13.20685 14.5064605,13.18235 14.4626447,13.15785 L14.7610658,13.56035 C14.7515921,13.5626833 14.7433026,13.5661833 14.7350132,13.5685167 C14.4910658,13.8555167 14.2483026,14.1401833 14.0043553,14.4260167 C14.0280395,14.4155167 14.0493553,14.40385 14.0718553,14.3921833 C14.5360658,14.1565167 15.0571184,13.5860167 14.67225,13.0621833 C14.3004079,12.5546833 13.4205395,12.6071833 12.9208026,12.86035" id="Fill-18" fill="#000000"></path>
            <path d="M10.2308684,13.3490667 C10.0792895,15.1434 11.1948158,16.8817333 13.1665263,16.8035667 C14.9475789,16.7335667 16.6469211,15.4677333 16.9441579,13.6815667 C17.6025789,9.71256667 10.0650789,9.73123333 10.1621842,13.6279 C10.1704737,13.9569 11.8899474,13.6862333 11.8792895,13.1752333 C11.8662632,12.6887333 11.9835,11.9817333 12.4145526,11.6550667 C12.9995526,11.2117333 13.9469211,11.5535667 14.4454737,11.9759 C15.2661316,12.6700667 15.4496842,13.7364 15.0198158,14.6977333 C14.841,15.0990667 14.4573158,15.8655667 14.0203421,16.0219 C13.5798158,16.1805667 13.0078421,15.7617333 12.7200789,15.4677333 C12.0545526,14.7934 11.871,13.7970667 11.9467895,12.8964 C11.9704737,12.6199 10.2758684,12.8147333 10.2308684,13.3490667" id="Fill-20" fill="#000000"></path>
            <path d="M3.43906579,14.7311 C2.83867105,14.4219333 2.23946053,14.1127667 1.63906579,13.8036 C1.27788158,13.6169333 0.208539474,13.8502667 0.0948552632,14.3041 C-0.0981710526,15.0787667 -0.06975,16.1859333 0.893013158,16.4052667 C1.67340789,16.5826 2.88840789,16.2372667 3.11222368,15.3914333 C3.24959211,14.8676 1.54077632,15.1161 1.40340789,15.6352667 C1.30985526,15.8429333 1.40577632,15.8511 1.69235526,15.6597667 C2.02867105,15.6562667 2.10564474,15.5921 1.92564474,15.4649333 C1.92209211,15.3541 1.77998684,15.1721 1.75156579,15.0507667 C1.67459211,14.7159333 1.72077632,14.3904333 1.80248684,14.0614333 C1.28853947,14.2282667 0.772223684,14.3951 0.257092105,14.5619333 C0.857486842,14.8722667 1.45788158,15.1802667 2.05709211,15.4894333 C2.49525,15.7157667 4.07972368,15.0612667 3.43906579,14.7311" id="Fill-22" fill="#000000"></path>
            <path d="M2.03968421,15.7013 C1.50915789,15.8716333 0.962052632,16.2356333 0.838894737,16.8096333 C0.732315789,17.3054667 0.999947368,17.6846333 1.50323684,17.7511333 C2.05152632,17.8234667 2.76086842,17.6333 3.186,17.2856333 C3.34231579,17.1584667 3.46192105,17.0184667 3.49507895,16.8166333 C3.53771053,16.5448 3.22744737,16.2461333 3.33165789,16.0034667 C3.21560526,16.0979667 3.10073684,16.1936333 2.98705263,16.2893 C3.01073684,16.2753 3.03560526,16.2613 3.05810526,16.2473 C2.77034211,16.3231333 2.48139474,16.4001333 2.19363158,16.4759667 C2.13323684,16.4736333 2.07165789,16.4713 2.01244737,16.4701333 C1.95915789,16.4293 1.90705263,16.3873 1.85376316,16.3464667 C1.85968421,16.3569667 1.86560526,16.3686333 1.86915789,16.3803 C1.72823684,16.7548 3.39323684,16.5728 3.5685,16.1049667 C3.84086842,15.3804667 2.00889474,15.8973 1.75784211,16.1329667 C1.48310526,16.3908 1.60507895,16.7699667 1.77797368,17.0639667 C1.73178947,17.4629667 2.03021053,17.4408 2.67086842,16.9963 C2.59863158,16.9309667 2.556,16.8481333 2.54534211,16.7489667 C2.52876316,16.6801333 2.55836842,16.2006333 2.65665789,16.1691333 C2.83547368,16.1119667 3.35652632,15.8821333 3.15284211,15.6359667 C2.95507895,15.3968 2.25047368,15.6336333 2.03968421,15.7013" id="Fill-24" fill="#000000"></path>
            <path d="M73.79775,7.42123333 C77.8169605,4.6819 82.1713026,2.74173333 86.9424868,1.68473333 C86.6843289,1.53656667 86.4273553,1.38723333 86.1691974,1.2379 C85.8553816,1.44323333 85.5415658,1.64856667 85.2265658,1.8539 C84.1181447,2.3159 85.1436711,2.7219 85.8684079,2.41856667 C86.6665658,2.08723333 86.8631447,1.9869 87.5203816,1.42106667 C88.1195921,0.9054 87.0620921,0.904233333 86.7482763,0.974233333 C81.5638026,2.12223333 76.81275,4.26306667 72.44775,7.23806667 C71.6957763,7.7514 73.4105132,7.6849 73.79775,7.42123333" id="Fill-26" fill="#000000"></path>
            <path d="M73.4034079,8.64996667 C74.8528816,7.18113333 76.4041974,5.83946667 78.1686711,4.74396667 C79.10775,4.16063333 80.0906447,3.64146667 81.1114342,3.20746667 C81.5839342,3.0278 82.0564342,2.84813333 82.52775,2.66846667 C83.29275,1.98713333 83.8682763,1.9603 84.2555132,2.5903 C83.2335395,3.04296667 84.8464342,2.93446667 85.2313026,2.76413333 C85.9963026,2.42463333 86.5718289,2.05246667 87.1710395,1.47613333 C87.4363026,1.2218 86.9306447,1.21596667 86.7766974,1.23813333 C80.9859079,2.06646667 75.9364342,4.67046667 71.8580132,8.80513333 C71.5382763,9.13063333 73.12275,8.93463333 73.4034079,8.64996667" id="Fill-28" fill="#000000"></path>
            <path d="M73.5953684,8.74516667 C77.5340526,6.09216667 81.7451053,4.05866667 86.3303684,2.7415 C86.1112895,2.50466667 85.8922105,2.26783333 85.6731316,2.031 C85.4872105,2.11033333 85.3001053,2.1885 85.1141842,2.26666667 C84.0614211,2.48483333 84.3136579,3.368 85.3545789,3.15216667 C85.9656316,3.025 86.2261579,2.91066667 86.7460263,2.5665 C87.5181316,2.05783333 86.6655,1.6915 86.0899737,1.856 C81.2205,3.25483333 76.7074737,5.391 72.5224737,8.20966667 C71.5644474,8.85483333 73.0305,9.1255 73.5953684,8.74516667" id="Fill-30" fill="#000000"></path>
            <path d="M53.4523026,6.74223333 C54.9740132,6.69906667 56.4223026,6.29773333 57.7557237,5.57673333 C57.3199342,5.51606667 56.8829605,5.45423333 56.4471711,5.39356667 C56.4140132,5.44373333 56.3796711,5.49506667 56.3453289,5.54523333 C55.9557237,6.12856667 57.6503289,5.93023333 57.92625,5.5184 C57.9605921,5.46823333 57.9949342,5.4169 58.0280921,5.36673333 C58.4520395,4.73323333 56.9232237,5.07273333 56.7207237,5.1824 C55.9095395,5.62106667 55.0746711,5.86373333 54.1486184,5.89056667 C53.8205921,5.8999 53.1834868,6.00606667 53.0105921,6.32923333 C52.8365132,6.65123333 53.1574342,6.7504 53.4523026,6.74223333" id="Fill-32" fill="#000000"></path>
            <path d="M35.0068026,25.7614667 C36.4124605,26.6924667 38.2278553,26.5419667 39.6796974,25.7754667 C40.1036447,25.5526333 41.3269342,24.8316333 40.9645658,24.2261333 C40.6460132,23.6918 39.5636447,24.1934667 39.2048289,24.4069667 C38.8898289,24.5948 39.0319342,24.7616333 39.3161447,24.8153 C39.6974605,24.8888 40.2102237,24.6858 40.5287763,24.4956333 C40.5654868,24.4734667 40.6033816,24.4513 40.6400921,24.4291333 C40.1510132,24.5131333 39.66075,24.5971333 39.1716711,24.6811333 C39.7353553,24.9728 38.2621974,25.6716333 38.0514079,25.6751333 C37.5291711,25.6844667 37.0424605,25.4511333 36.6196974,25.1711333 C36.2064079,24.8969667 34.7261447,25.5748 35.0068026,25.7614667" id="Fill-34" fill="#000000"></path>
            <path d="M73.7596184,12.4769833 C76.7959342,11.6988167 79.3680395,13.9329833 81.9863289,15.0133167 C83.5755395,15.6689833 85.0060658,15.9198167 86.7125132,15.75415 C87.5106711,15.67715 88.1714605,14.7974833 86.9730395,14.9129833 C83.6880395,15.2314833 81.0567237,12.72665 78.1092237,11.8154833 C76.5460658,11.3313167 75.1238289,11.3289833 73.5571184,11.72915 C72.5375132,11.9904833 72.7317237,12.74065 73.7596184,12.4769833" id="Fill-36" fill="#000000"></path>
            <path d="M73.4717368,12.5133833 C76.2179211,12.6778833 78.5768684,13.8013833 80.5912105,15.62255 C80.9831842,15.97605 82.5759474,15.34255 82.1946316,14.9983833 C80.0559474,13.0652167 77.4613421,11.8693833 74.5493684,11.6943833 C74.0898947,11.66755 72.5646316,12.45855 73.4717368,12.5133833" id="Fill-38" fill="#000000"></path>
            <path d="M27.6610263,18.6413 C29.7712895,17.3253 32.0272105,16.3418 34.4441842,15.7199667 C35.4531316,15.4586333 35.2837895,14.7936333 34.263,15.0561333 C31.428,15.7876333 28.7943158,16.9496333 26.3205,18.4931333 C25.5697105,18.9609667 27.2891842,18.8734667 27.6610263,18.6413" id="Fill-40" fill="#000000"></path>
            <path d="M26.7612632,20.2266833 C30.9971842,21.41435 36.801,22.5565167 39.4181053,18.05435 C39.8562632,17.2995167 38.1249474,17.38585 37.7992895,17.9435167 C35.7671842,21.4376833 30.9948158,20.10535 27.7832368,19.2046833 C27.1473158,19.0261833 25.7594211,19.9455167 26.7612632,20.2266833" id="Fill-42" fill="#000000"></path>
            <path d="M26.3853947,19.53905 C29.6810526,22.2142167 35.9005263,19.8867167 38.97,17.9267167 C39.6710526,17.4798833 37.9681579,17.6922167 37.6602632,17.8893833 C35.1746053,19.4772167 30.6497368,21.1163833 28.0042105,18.9673833 C27.6513158,18.68155 26.1438158,19.3418833 26.3853947,19.53905" id="Fill-44" fill="#000000"></path>
            <path d="M26.6561053,19.7299167 C30.0997895,20.2409167 33.3812368,19.49075 36.3713684,17.7769167 C37.3708421,17.2040833 35.9225526,16.7070833 35.2570263,17.0885833 C32.7855789,18.5049167 30.0938684,19.00425 27.2730789,18.5854167 C26.4832105,18.4675833 25.5062368,19.5595833 26.6561053,19.7299167" id="Fill-46" fill="#000000"></path>
            <path d="M31.8057632,6.27848333 C33.2552368,4.96248333 34.8408947,3.84015 36.5769474,2.92198333 C36.2181316,2.73531667 35.8581316,2.54981667 35.4969474,2.36315 C35.2908947,2.51948333 35.0860263,2.67581667 34.8811579,2.83098333 C33.9610263,3.52865 35.3986579,3.81681667 35.9611579,3.38981667 C36.1660263,3.23465 36.3708947,3.07831667 36.5769474,2.92198333 C37.5397105,2.19281667 36.0594474,2.06681667 35.4969474,2.36315 C33.6483947,3.34081667 31.9597105,4.55298333 30.4166842,5.95415 C29.6741842,6.62731667 31.3593158,6.68215 31.8057632,6.27848333" id="Fill-48" fill="#000000"></path>
            <path d="M38.7052105,5.17446667 C38.6673158,5.18146667 38.6306053,5.18846667 38.5915263,5.19546667 C38.8058684,5.18613333 39.0202105,5.1768 39.2345526,5.16746667 C39.3245526,5.23163333 39.3340263,5.20013333 39.2641579,5.0718 C39.1575789,5.23746667 39.051,5.4043 38.9432368,5.57113333 C39.9083684,4.8548 40.9066579,4.19213333 41.9452105,3.58546667 C41.4987632,3.48396667 41.0511316,3.38246667 40.6046842,3.28096667 C40.4294211,3.65546667 40.2269211,4.01596667 39.951,4.32863333 C39.2807368,5.08813333 40.9374474,5.0963 41.3365263,4.64363333 C41.6917895,4.23996667 41.9831053,3.8293 42.2092895,3.3428 C42.5633684,2.58563333 41.1766579,2.85863333 40.8687632,3.0383 C39.8302105,3.64613333 38.8307368,4.3088 37.8667895,5.02513333 C37.7081053,5.14296667 37.4961316,5.2958 37.5470526,5.52446667 C37.6962632,6.18713333 38.4008684,6.17546667 38.9491579,6.07163333 C39.2179737,6.0203 39.7792895,5.74496667 39.6845526,5.39613333 C39.5827105,5.02396667 38.961,5.12546667 38.7052105,5.17446667" id="Fill-50" fill="#000000"></path>
            <path d="M74.4905132,9.7961 C75.8476184,8.9281 77.2473553,8.1581 78.7359079,7.52926667 C79.7898553,7.0836 81.8420921,6.04993333 83.0570921,6.19926667 L82.5123553,5.87376667 C82.5040658,6.49676667 82.2530132,7.0136 81.76275,7.42543333 C81.0605132,8.1931 82.7136711,8.3191 83.1695921,7.82093333 C83.7249868,7.2131 84.5397237,6.29493333 84.2294605,5.4211 C84.1465658,5.18776667 83.9097237,5.1236 83.6859079,5.09676667 C82.1653816,4.9101 80.3357763,5.76876667 78.9372237,6.30193333 C76.9809079,7.04743333 75.1430132,8.02743333 73.3868289,9.15093333 C72.4134079,9.77393333 73.8581447,10.2009333 74.4905132,9.7961" id="Fill-52" fill="#000000"></path>
            <path d="M74.95425,11.5364167 C76.1929342,11.3555833 83.9222763,9.87508333 84.2254342,11.43375 C84.3237237,11.9435833 86.0491184,11.5375833 85.9401711,10.9799167 C85.6370132,9.41891667 83.4699079,9.86808333 82.31175,9.94275 C79.9350395,10.0944167 77.5701711,10.3510833 75.2147763,10.69525 C74.4320132,10.8084167 73.7581974,11.71025 74.95425,11.5364167" id="Fill-54" fill="#000000"></path>
            <path d="M33.9972632,6.83965 C35.1684474,4.95548333 36.9672632,3.33965 39.3143684,3.23231667 C39.6317368,3.21831667 40.3079211,3.12731667 40.4488421,2.78081667 C40.5826579,2.45415 40.3375263,2.30365 39.9929211,2.31881667 C36.8026579,2.46348333 34.0683158,4.15748333 32.4068684,6.83031667 C32.0077895,7.47198333 33.7166053,7.29115 33.9972632,6.83965" id="Fill-56" fill="#000000"></path>
            <path d="M53.3193158,5.92125 C53.8605,5.57241667 54.3022105,5.15941667 54.6539211,4.62158333 C55.0470789,4.01958333 53.7633947,4.18525 53.5253684,4.28908333 C52.5969474,4.69275 51.6673421,5.09641667 50.7401053,5.50008333 C50.5162895,5.59691667 50.0426053,5.85708333 50.2758947,6.15108333 C50.4902368,6.42408333 51.1616842,6.25841667 51.4068158,6.15225 C52.3352368,5.74858333 53.2624737,5.34491667 54.1908947,4.94125 C53.8143158,4.83041667 53.4389211,4.71958333 53.0623421,4.60875 C52.8456316,4.94008333 52.6040526,5.23991667 52.2653684,5.45808333 C52.0261579,5.61208333 51.7656316,5.89091667 52.1066842,6.08808333 C52.4228684,6.27008333 53.0398421,6.10208333 53.3193158,5.92125" id="Fill-58" fill="#000000"></path>
            <path d="M50.2234342,6.45733333 C50.8119868,5.75616667 51.3993553,5.055 51.9879079,4.355 C52.2389605,4.05516667 51.7700132,3.97816667 51.5556711,3.9805 C51.1944868,3.98283333 50.6580395,4.11933333 50.4152763,4.40983333 C49.8267237,5.111 49.2393553,5.811 48.6508026,6.51216667 C48.39975,6.812 48.8686974,6.88783333 49.0818553,6.88666667 C49.4430395,6.88316667 49.9806711,6.74783333 50.2234342,6.45733333" id="Fill-60" fill="#000000"></path>
        </g>
    </g>
</svg>