<?xml version="1.0" encoding="UTF-8"?>
<svg width="68px" height="56px" viewBox="0 0 68 56" version="1.1" xmlns="http://www.w3.org/2000/svg" xmlns:xlink="http://www.w3.org/1999/xlink">
    <!-- Generator: Sketch 44.1 (41455) - http://www.bohemiancoding.com/sketch -->
    <title>烘焙_se</title>
    <desc>Created with Sketch.</desc>
    <defs></defs>
    <g id="Page-1" stroke="none" stroke-width="1" fill="none" fill-rule="evenodd">
        <g id="烘焙_se" fill="#D42A1D">
            <path d="M31.0090524,2.96298733 C27.0577667,7.786153 21.0292429,10.556165 17.6519095,15.8916043 C15.357719,19.5148644 14.317481,25.0004948 18.6581476,27.4790548 C19.2563857,27.8208412 21.4283381,26.915635 20.5435286,26.410668 C14.1175286,22.7403209 20.5402905,14.2183936 23.9791476,11.2080758 C27.1103857,8.46729018 30.5168619,6.1892557 33.1753381,2.94350307 C33.7735762,2.21203156 31.453481,2.42067549 31.0090524,2.96298733" id="Fill-1"></path>
            <path d="M31.2913333,1.39003943 C33.3305238,9.13827931 43.8794286,9.7495979 46.784,17.215316 C49.5493333,24.3221991 43.8251905,28.6696241 37.3959524,29.3093573 C32.5420476,29.7915927 23.6494286,30.3290334 20.1255714,26.2746841 C19.5062857,25.5635087 17.2639048,26.452478 17.9633333,27.2570154 C21.540619,31.3730649 28.8562857,31.0718708 33.7951905,30.9801324 C38.6353333,30.8924532 44.1554762,30.3290334 47.5943333,26.4500424 C51.0615238,22.5402013 50.182381,16.9993655 47.1037619,13.1520364 C43.331381,8.43846972 35.2741905,6.9812096 33.6373333,0.760048426 C33.3847619,-0.199551274 31.0379524,0.423944978 31.2913333,1.39003943" id="Fill-3"></path>
            <path d="M22.4157952,29.2575616 C17.0591762,19.1793292 30.3750333,11.7834297 32.3154619,2.65343118 C32.3761762,2.36603838 31.2209857,2.54545592 31.1562238,2.85233298 C29.2376524,11.8816628 15.8667476,19.4577918 21.2436048,29.5725571 C21.4055095,29.8769987 22.5242714,29.4597108 22.4157952,29.2575616" id="Fill-5"></path>
            <path d="M27.5836333,29.379663 C23.1280143,24.7627057 28.1851095,18.9304178 30.0777762,14.3516172 C31.959919,9.79717196 32.6820143,4.96994708 32.5541095,0.059914093 C32.5500619,-0.0975836582 31.3730143,0.07127991 31.3803,0.374909595 C31.548681,6.82013973 30.0308238,12.733612 27.0485381,18.4222034 C25.1186333,22.1022927 23.1037286,26.2743594 26.4753952,29.7677244 C26.6680619,29.9682499 27.7309667,29.5322897 27.5836333,29.379663" id="Fill-7"></path>
            <path d="M32.5980667,1.67783816 C34.5878762,7.73663051 35.0849238,14.0982407 33.7216857,20.3583704 C33.0854,23.2818209 29.8116857,28.540135 32.8044952,31.029249 C33.1542095,31.3215128 34.2535429,30.8514551 33.8876381,30.5462017 C31.7788286,28.7918067 33.2918286,25.7611927 33.9799238,23.6365968 C34.7789238,21.1702145 35.3067333,18.6364491 35.5455429,16.0531612 C36.0069714,11.0481425 35.3358762,6.12755555 33.7710667,1.36203081 C33.6196857,0.900903373 32.4499238,1.22888838 32.5980667,1.67783816" id="Fill-9"></path>
            <path d="M34.7697762,7.33533598 C40.9343,13.5686748 46.6875857,21.9826268 38.7461571,29.3988225 C38.2191571,29.8908 39.3565381,30.0620991 39.7216333,29.7211246 C47.8929667,22.0906021 42.3331571,13.3851981 35.8456333,6.82630975 C35.4870143,6.46341544 34.3747286,6.9359087 34.7697762,7.33533598" id="Fill-11"></path>
            <path d="M17.924719,16.0571393 C10.7491,16.5872735 4.14095714,22.9188454 6.93543333,30.5396258 C10.5572429,40.4173327 25.4751476,38.8837592 33.7460524,38.3138447 C41.3248143,37.7910171 54.3889095,37.3639871 58.401719,29.4135981 C62.5262429,21.2415756 55.3676238,13.6240426 47.0902429,14.3376535 C46.0046714,14.4310156 45.0915286,15.6292975 46.7291952,15.4880366 C54.828481,14.7898507 59.8612905,23.7761528 55.6792905,30.4357097 C51.7903381,36.6284564 39.7171,36.8655148 33.190719,37.2064894 C27.036719,37.5279796 17.1807667,38.4916385 12.1851952,34.1596385 C6.30805238,29.0636933 8.12624286,17.9089556 16.9759571,17.256233 C17.7474333,17.1985921 19.4798143,15.9418574 17.924719,16.0571393" id="Fill-13"></path>
            <path d="M20.0132905,13.6509146 C16.5849571,12.3341035 13.1631,12.8439416 9.8618619,14.3426058 C6.56952857,15.8372107 0.370195238,18.9757999 0.0172428571,23.0618112 C-0.160852381,25.124707 1.07852857,27.2054633 1.3311,29.2399446 C1.61200476,31.5090488 1.0558619,34.0566155 1.95119524,36.2209918 C2.49924286,37.5483569 3.45529048,38.3106785 4.76429048,38.8221403 C7.3458619,39.8288269 9.84405238,41.0612062 12.4345286,42.0654573 C17.363719,43.978162 23.6415762,43.1200428 28.7771952,42.8310263 C35.1351952,42.4746268 41.4745762,41.7472145 47.7475762,40.6463539 C51.700481,39.9530391 56.0039095,39.5349394 58.8566714,36.4207055 C60.7679571,34.3358899 62.7464333,32.5417145 64.7589095,30.5713689 C65.7271,29.6255705 66.5860048,28.6481103 66.6183857,27.2403726 C66.6791,24.6132452 63.8668143,22.5251822 63.3041952,19.9500128 C62.750481,17.4194948 62.2129571,15.4182992 60.1162905,13.7345346 C56.0338619,10.4546845 50.4214333,11.0554491 45.5788619,11.6018202 C44.5515762,11.717102 43.5396714,12.8203981 45.1870524,12.6344858 C50.765481,12.0044948 58.1799095,11.8559274 60.4983857,18.2199731 C61.2026714,20.1537857 61.0804333,21.9552677 62.1635762,23.7770458 C63.464481,25.9641537 65.3425762,27.0390353 63.484719,29.7773854 C62.5286714,31.1883704 60.6886238,32.0505488 59.4824333,33.2269109 C56.9324333,35.7144011 55.6566238,37.8300668 51.6851,38.9422932 C46.2159571,40.4734311 40.0741,40.9223809 34.445481,41.40624 C29.2426714,41.853566 23.6423857,42.4486478 18.4331,41.9209491 C15.5552429,41.6294971 13.4990524,40.5237654 10.9506714,39.3092467 C9.31381429,38.5298764 6.47967143,38.2359888 5.15771905,36.954087 C2.75990952,34.6265301 3.98876667,29.3544146 3.20676667,26.3505915 C2.98900476,25.5111448 2.58505238,24.676569 2.47495714,23.8119551 C2.15519524,21.308228 3.47714762,20.1343014 5.20629048,18.6307662 C8.56743333,15.705692 13.7014333,12.9559761 18.108481,14.648671 C18.6905286,14.8719281 20.8179571,13.9602272 20.0132905,13.6509146" id="Fill-15"></path>
            <path d="M1.98479048,37.1674397 C4.11545714,42.9656301 6.67517143,49.5448145 12.4551714,52.582735 C19.2276476,56.1426713 28.9646,55.7521743 36.4106,55.3641128 C40.4476952,55.1538452 44.4613143,54.6464427 48.427981,53.8727552 C51.8296,53.2102905 55.8642667,52.6265746 58.8676,50.7715109 C61.7891714,48.9667815 62.4748381,45.7526908 63.4163143,42.6473872 C64.7997905,38.0807642 66.0407905,33.4743609 67.1741238,28.8395431 C67.454219,27.694843 65.0523619,27.9643752 64.7965524,29.0132777 C63.8243143,32.98969 62.7808381,36.9458062 61.6191714,40.8702605 C60.4146,44.9375993 59.7920762,48.2669719 55.622219,50.3655888 C52.6035048,51.8845491 47.9884095,52.3205094 44.6798857,52.8149224 C41.5195048,53.2874157 38.3340286,53.5764322 35.1412667,53.6876548 C28.6416,53.9117238 19.0098857,54.2242837 13.2995048,50.6635356 C8.40755238,47.6142493 6.22588571,41.6959059 4.33079048,36.5366368 C3.93655238,35.4625671 1.59945714,36.1185371 1.98479048,37.1674397" id="Fill-18"></path>
            <path d="M8.75508095,39.5649776 C10.0786524,44.5115436 12.3364143,49.0002295 15.5121762,53.0107392 C15.793081,53.3655151 16.9199381,52.9376732 16.595319,52.5268801 C13.4600333,48.5691403 11.2346524,44.1307887 9.92727143,39.2491702 C9.80422381,38.787231 8.63041429,39.0997909 8.75508095,39.5649776" id="Fill-21"></path>
            <path d="M15.7601333,43.0723876 C17.3136095,46.9570615 19.0743238,50.7418786 21.0390381,54.4349573 C21.2770381,54.8822834 22.3990381,54.4568771 22.1148952,53.9226837 C20.1833714,50.2937406 18.4590857,46.5746829 16.9331333,42.7565802 C16.7275143,42.2434948 15.5626095,42.5779745 15.7601333,43.0723876" id="Fill-23"></path>
            <path d="M21.7066524,43.5995991 C22.814081,47.4420571 23.9215095,51.2861388 25.0289381,55.1285969 C25.1746524,55.6343757 26.3468429,55.3177565 26.2027476,54.8136013 C25.0945095,50.9703315 23.9862714,47.1278735 22.8788429,43.2837918 C22.7339381,42.7788247 21.5609381,43.0962558 21.7066524,43.5995991" id="Fill-25"></path>
            <path d="M26.1298095,42.7124159 C26.9757619,46.8382075 27.8209048,50.9631873 28.6668571,55.0889789 C28.7729048,55.6061235 29.9483333,55.3057412 29.8390476,54.7739834 C28.9939048,50.6481918 28.1479524,46.5224001 27.3028095,42.3974204 C27.1967619,41.8810876 26.0205238,42.1814699 26.1298095,42.7124159" id="Fill-27"></path>
            <path d="M31.0897619,42.6926069 C31.7171429,46.5074622 31.9543333,50.3280004 31.8013333,54.1907546 C31.7964762,54.3182141 32.9621905,54.1899427 32.9743333,53.8757591 C33.1273333,50.0130049 32.8909524,46.1924667 32.2619524,42.3776114 C32.230381,42.1827688 31.0468571,42.4344405 31.0897619,42.6926069" id="Fill-29"></path>
            <path d="M35.0835476,42.2581079 C35.4810238,46.0802699 35.7230714,49.9081147 35.808881,53.7497609 C35.8145476,54.0038681 36.9899762,53.8098373 36.981881,53.4355772 C36.8952619,49.5931192 36.6540238,45.7644625 36.2565476,41.9423006 C36.2274048,41.6662736 35.0463095,41.9000847 35.0835476,42.2581079" id="Fill-31"></path>
            <path d="M39.2402905,41.4026678 C39.7041476,45.3628433 39.8652429,49.3238305 39.7251952,53.3091731 C39.715481,53.5819527 40.8828143,53.4009115 40.8981952,52.9933657 C41.0390524,49.008835 40.8771476,45.0478478 40.4132905,41.0868605 C40.3760524,40.771865 39.1949571,41.0186656 39.2402905,41.4026678" id="Fill-33"></path>
            <path d="M44.1788714,41.7459967 C44.128681,45.6241759 43.7133952,49.4447141 42.9289667,53.2433325 C42.8302048,53.7206969 44.0161571,53.5404675 44.1052048,53.1093783 C44.8896333,49.3115717 45.3057286,45.4902216 45.3551095,41.6128543 C45.3623952,41.0932741 44.1845381,41.3238378 44.1788714,41.7459967" id="Fill-35"></path>
            <path d="M49.1720143,39.9985835 C48.7057286,43.9668774 48.2394429,47.9343594 47.7723476,51.9034651 C47.7108238,52.4303519 48.8992048,52.237133 48.9526333,51.7816885 C49.418919,47.8125828 49.8852048,43.8442889 50.3514905,39.8768069 C50.4130143,39.3482964 49.2246333,39.5423271 49.1720143,39.9985835" id="Fill-37"></path>
            <path d="M53.0939143,39.5419212 C52.6543429,44.0233005 51.6982952,48.3691019 50.195819,52.6134227 C49.9796762,53.2223058 51.1494381,53.1573582 51.3072952,52.710844 C52.8364857,48.3934572 53.8289619,43.9932623 54.2774381,39.4323223 C54.3316762,38.8721499 53.1424857,39.0556266 53.0939143,39.5419212" id="Fill-39"></path>
            <path d="M60.0563048,33.7884634 C59.0444,40.0136838 57.2739714,45.9864207 54.7385429,51.7570084 C54.4608762,52.3878112 55.642781,52.4243442 55.8662095,51.9161298 C58.4364476,46.0692288 60.2238762,40.0169312 61.2479238,33.7113382 C61.3483048,33.0951486 60.1469714,33.2299147 60.0563048,33.7884634" id="Fill-41"></path>
        </g>
    </g>
</svg>