<?xml version="1.0" encoding="UTF-8"?>
<svg width="55px" height="73px" viewBox="0 0 55 73" version="1.1" xmlns="http://www.w3.org/2000/svg" xmlns:xlink="http://www.w3.org/1999/xlink">
    <!-- Generator: Sketch 44.1 (41455) - http://www.bohemiancoding.com/sketch -->
    <title>啤酒_nor</title>
    <desc>Created with Sketch.</desc>
    <defs>
        <polygon id="path-1" points="0.231083877 0.821961039 4.86941185 0.821961039 4.86941185 5.02895572 0.231083877 5.02895572 0.231083877 0.821961039"></polygon>
    </defs>
    <g id="Page-1" stroke="none" stroke-width="1" fill="none" fill-rule="evenodd" opacity="0.7">
        <g id="啤酒_nor">
            <path d="M9.42301724,32.9251805 C10.1512931,44.6905052 9.27413793,56.2121805 6.83043103,67.7404922 C6.57155172,68.9606351 9.36517241,68.5747779 9.59939655,67.4740896 C12.0762931,55.7855571 12.9088793,44.1102974 12.1701724,32.1885442 C12.1037931,31.0973364 9.34810345,31.7126221 9.42301724,32.9251805" id="Fill-1" fill="#000000"></path>
            <path d="M17.0713362,29.1472883 C20.41875,27.773561 24.6774569,28.1196 28.2638362,27.2360156 C33.4281466,25.9627818 38.3421121,23.9898857 43.0436638,21.5154701 C44.6642672,20.6631714 42.17125,20.5370805 41.4031466,20.9418987 C35.7153879,23.9339506 28.9342672,26.8454182 22.4129741,27.1241455 C19.9436638,27.2293792 18.4615086,27.3004831 16.0576293,28.2874052 C14.2701293,29.0202494 15.9296121,29.615626 17.0713362,29.1472883" id="Fill-3" fill="#000000"></path>
            <path d="M43.1461724,20.1028727 C37.4906552,33.6950935 38.5309138,48.8819377 45.9663448,61.5858338 C46.613069,62.6912623 49.2227241,61.6313403 48.476431,60.3562104 C41.3482414,48.176587 40.363931,33.4798857 45.7833276,20.4536519 C46.3978103,18.9775351 43.6354828,18.9291844 43.1461724,20.1028727" id="Fill-5" fill="#000000"></path>
            <path d="M6.80975862,67.2462727 C20.3587241,74.9605714 38.687,74.3651948 47.6927759,60.1472597 C48.466569,58.9271169 45.6786379,58.9811558 45.0878621,59.914039 C37.0360517,72.6245714 20.9125172,72.5534675 8.95001724,65.7426623 C7.9932069,65.1975325 5.53622414,66.521013 6.80975862,67.2462727" id="Fill-7" fill="#000000"></path>
            <path d="M40.9968103,32.0095519 C45.0800862,32.3271494 49.0343966,31.2302532 52.3476724,28.817461 C53.8525862,27.721513 51.5681897,27.0502922 50.5791379,27.7698636 C48.0244828,29.6308896 45.1597414,30.4642273 42.0038793,30.2186818 C40.7948276,30.1248247 39.1410345,31.8654481 40.9968103,32.0095519" id="Fill-9" fill="#000000"></path>
            <path d="M50.1794397,28.8575636 C53.2034914,30.5213948 52.0532328,35.0985896 51.6710776,37.8261351 C51.0205603,42.4677974 49.778319,46.9179532 48.1159914,51.2903688 C47.9642672,51.6885506 50.5615948,51.4610182 50.8195259,50.782213 C52.5074569,46.3443818 53.7610776,41.7965766 54.419181,37.0904468 C54.8250431,34.1761351 55.9117672,29.6709922 52.7739224,27.9455377 C52.1025431,27.5748494 49.9139224,28.7115636 50.1794397,28.8575636" id="Fill-11" fill="#000000"></path>
            <path d="M41.9117069,46.1340091 C44.7679138,46.2752688 47.0248103,48.724087 47.4885172,51.4364636 C47.6383448,52.3124636 50.4016207,51.6658922 50.2356724,50.6998273 C49.6278276,47.1436844 46.4966207,44.8171649 42.998431,44.6446195 C42.4673966,44.618074 41.448,44.8503468 41.1805862,45.3803078 C40.8998966,45.9406065 41.4223966,46.1093597 41.9117069,46.1340091" id="Fill-13" fill="#000000"></path>
            <path d="M41.4004914,35.1342364 C44.20075,34.8839506 46.9118707,34.2961584 49.5641983,33.3670675 C49.8847155,33.2542494 50.6480776,32.9233792 50.3598017,32.4967558 C50.0923879,32.1004701 48.8700603,32.4986519 48.5760948,32.6010416 C46.6235948,33.2855351 44.6189397,33.7178468 42.5573879,33.9017688 C42.0955776,33.9425351 40.9434224,34.0837948 40.7243707,34.5843662 C40.5129052,35.0707169 40.9016983,35.1787948 41.4004914,35.1342364" id="Fill-15" fill="#000000"></path>
            <path d="M47.768069,32.6710078 C47.3972931,36.6158519 47.0274655,40.5606961 46.6566897,44.5064883 C46.5277241,45.8773714 49.3232414,45.4772935 49.4360862,44.2780078 C49.8059138,40.3331636 50.1766897,36.3883195 50.5474655,32.4425273 C50.6754828,31.0716442 47.8809138,31.4717221 47.768069,32.6710078" id="Fill-17" fill="#000000"></path>
            <path d="M41.8376466,43.0000338 C43.5720431,42.8976442 45.2979052,43.8703455 46.3751466,45.1748649 C46.8805776,45.7873065 49.2588534,44.6031896 49.1241983,44.4391766 C47.5775603,42.565826 45.4316121,41.854787 43.0552328,41.9950987 C42.5915259,42.0225922 41.4829914,42.200826 41.2108362,42.6302935 C40.9263534,43.0787221 41.4602328,43.021839 41.8376466,43.0000338" id="Fill-19" fill="#000000"></path>
            <path d="M45.3566034,21.2791208 C46.083931,19.5223805 46.9250517,17.0953675 45.1233276,15.6913026 C43.7682414,14.6370688 41.4952241,14.731874 40.3781552,16.1056013 C39.3170345,17.4129649 41.9437586,17.5817182 42.6303103,16.7370039 C42.9754828,16.3103805 42.2718621,16.8109519 42.2386724,16.7626013 C42.261431,16.7957831 42.5326379,16.8564584 42.6151379,16.9010169 C42.9176379,17.0631338 43.1566034,17.3380688 43.2874655,17.650926 C43.7473793,18.7411857 43.1803103,20.0855234 42.7640172,21.0933026 C42.2054828,22.4433286 44.9526379,22.2556143 45.3566034,21.2791208" id="Fill-21" fill="#000000"></path>
            <path d="M41.1995517,16.5976403 C43.7712759,16.0288091 46.0604138,13.6804844 43.8670517,11.1311727 C41.5542069,8.4424974 36.8223103,8.5373026 33.6569655,9.0027961 C32.5493793,9.16491299 31.2066207,10.3025753 33.1467931,10.0181597 C35.4899828,9.67306883 38.4798966,9.87595195 40.4674828,11.3331078 C41.1540345,11.8374714 41.7637759,12.5314455 41.9183448,13.3903805 C41.9989483,13.8388091 41.9866207,14.3251597 41.8386897,14.7631597 C41.6841207,15.2210688 40.8098103,15.7813675 41.7097241,15.5822766 C41.4167069,15.6467442 40.0948103,15.9017701 40.0995517,16.3321857 C40.1042931,16.7910429 40.8923103,16.6659 41.1995517,16.5976403" id="Fill-23" fill="#000000"></path>
            <path d="M35.0996724,9.41320779 C34.3457931,4.06998701 27.7818276,4.38758442 23.6919138,4.67768831 C19.1164828,5.00287013 14.5894138,6.50458442 12.2206207,10.6978182 C11.5634655,11.862026 14.3210517,11.6325974 14.7913966,10.8002078 C16.8178621,7.21277922 20.5948448,6.35479221 24.4818276,6.24102597 C27.5106207,6.15285714 31.829069,6.44675325 32.3525172,10.1488961 C32.4900172,11.1291818 35.2513966,10.4901948 35.0996724,9.41320779" id="Fill-25" fill="#000000"></path>
            <path d="M15.3321983,9.85670649 C12.5063362,8.57968052 8.51314655,7.67903117 6.38521552,10.706161 C4.62237069,13.2166026 7.18081897,15.8910571 9.86064655,15.2264727 C11.5665948,14.8026935 11.0611638,12.9264987 9.35711207,13.3493299 C8.93607759,13.4536156 8.56814655,12.2950961 8.57668103,12.038174 C8.59564655,11.4209922 9.06030172,10.9441221 9.60840517,10.7336545 C10.914181,10.231187 12.5821983,11.179239 13.7447845,11.7044597 C14.8893534,12.2211481 16.9215086,10.5743818 15.3321983,9.85670649" id="Fill-27" fill="#000000"></path>
            <path d="M11.583569,14.2733961 C8.70460345,13.7102532 5.39606897,13.504526 3.03012069,15.5940325 C1.29477586,17.1270325 1.24546552,20.2669805 3.85512069,20.8879545 C4.47813793,21.0358506 5.23865517,20.9296688 5.78960345,20.586474 C6.02477586,20.439526 6.73882759,19.838461 6.07408621,19.6810844 C4.68865517,19.3511623 4.1377069,17.7309416 4.75787931,16.5117468 C5.73365517,14.5900455 8.15555172,15.2612662 9.85486207,15.5940325 C10.5964138,15.7390844 13.0543448,14.5616039 11.583569,14.2733961" id="Fill-29" fill="#000000"></path>
            <g id="Group-33" transform="translate(0.000000, 19.087225)" fill="#000000">
                <path d="M8.5294569,1.35448182 C6.00988793,0.600780519 2.2120431,0.438663636 0.520318966,2.93014416 C-0.0391637931,3.75305325 -0.159594828,4.92105325 0.217818966,5.84255974 C0.657818966,6.91765065 1.53592241,7.33574156 2.65299138,7.38504026 C3.17643966,7.40874156 4.20531897,7.17836494 4.47273276,6.65883247 C4.75626724,6.10517013 4.22997414,5.96201429 3.7520431,5.94115714 C2.74023276,5.8965987 2.68238793,3.93887143 2.88342241,3.33401429 C3.38506034,1.82281948 5.14126724,2.26271558 6.32566379,2.61728701 C6.95531897,2.8050013 7.70161207,2.67511818 8.26488793,2.33571558 C8.54557759,2.16696234 9.17902586,1.54883247 8.5294569,1.35448182" id="Fill-31"></path>
            </g>
            <path d="M5.8420431,24.8213273 C3.18118103,24.5852623 -0.682094828,27.1450026 1.10256034,30.1749766 C2.79618103,33.0513662 7.50247414,31.8748338 9.41609483,29.9370156 C9.87506034,29.4724701 9.01971552,29.3179377 8.72100862,29.3179377 C8.09325,29.3179377 7.34221552,29.5644312 6.89368103,30.0185481 C5.91411207,31.0111584 4.31531897,30.3693273 3.72833621,29.2183922 C3.4419569,28.6571455 3.42393966,28.0162623 3.58325,27.4170935 C3.66290517,27.115613 3.78333621,26.8160286 3.95592241,26.5543662 C4.04980172,26.4168987 4.15506034,26.2879636 4.26980172,26.167561 C4.55807759,25.965626 4.50402586,25.948561 4.10764655,26.1192104 C4.72781897,26.1741974 5.56893966,26.0263013 6.05066379,25.5977818 C6.42618103,25.2640675 6.44419828,24.8744182 5.8420431,24.8213273" id="Fill-34" fill="#000000"></path>
            <path d="M6.66988793,29.7495857 C6.1995431,33.1398195 10.1680776,33.6565078 12.6155776,32.9701182 C15.583681,32.1386766 17.9524741,29.7751831 18.4360948,26.6940143 C18.5830776,25.7592351 15.8330776,26.2455857 15.700319,27.0855597 C15.4613534,28.6128714 14.8079914,30.0377935 13.5818707,31.0313519 C11.97075,32.3358714 9.05669828,31.871326 9.40471552,29.3580403 C9.53557759,28.4118844 6.78557759,28.9124558 6.66988793,29.7495857" id="Fill-36" fill="#000000"></path>
            <path d="M32.5354397,32.634887 C33.7539741,33.290939 35.1431983,33.4786532 36.4992328,33.2150948 C36.7154397,33.1724325 37.2654397,33.0501338 37.2796638,32.7505494 C37.2938879,32.4585494 36.9069914,32.4168351 36.6879397,32.4594974 C35.6069052,32.6699649 34.5960431,32.4936273 33.62975,31.9731468 C33.2381121,31.7626792 31.9740603,32.3334065 32.5354397,32.634887" id="Fill-38" fill="#000000"></path>
            <path d="M32.2029741,33.5635039 C32.0654741,41.9841013 31.9298707,50.4046987 31.7923707,58.8252961 C31.7885776,59.1419455 32.1375431,59.2661403 32.4144397,59.2215818 C34.625819,58.8726987 36.4607328,58.3038675 38.4805603,57.2837636 C39.3207328,56.8590364 38.5630603,56.2181532 37.8945259,56.5566078 C36.4977155,57.5662831 34.9359052,57.6791013 33.2081466,56.8922182 C33.2271121,55.6900883 33.2479741,54.4870104 33.2669397,53.2839325 C33.3001293,51.1792571 33.3342672,49.0736338 33.3684052,46.9689584 C33.4423707,42.4581273 33.5153879,37.9472961 33.5884052,33.4355169 C33.5997845,32.7671403 32.2115086,33.0013091 32.2029741,33.5635039" id="Fill-40" fill="#000000"></path>
            <path d="M22.5229741,34.409261 C28.0561638,33.678313 28.7730603,43.0697156 28.7009914,46.3547156 C28.6403017,49.0727805 27.8797845,58.2622481 24.3209052,58.5002091 C23.5803017,58.5495078 23.2313362,59.4785987 24.1748707,59.4150792 C29.4738362,59.0605078 30.1290948,49.2386896 30.1063362,45.4341571 C30.0788362,40.8873 28.7578879,32.6904429 22.6690086,33.4943909 C21.9454741,33.5891961 21.5822845,34.5334558 22.5229741,34.409261" id="Fill-42" fill="#000000"></path>
            <path d="M24.6583966,58.994713 C25.471069,57.6143494 25.9698621,56.1401286 26.158569,54.5502455 C26.2031379,54.177661 24.8414138,54.4345831 24.8006379,54.7806221 C24.6109828,56.3714532 24.1140862,57.845674 23.2995172,59.2250896 C23.1828793,59.4251286 24.4478793,59.3502325 24.6583966,58.994713" id="Fill-44" fill="#000000"></path>
            <path d="M14.5459828,34.2223052 C15.5103793,34.6479805 15.9598621,35.7211753 15.6365,36.7147338 C15.4601207,37.2560714 16.8502931,37.0854221 17.0171897,36.5706299 C17.4107241,35.3637597 16.7791724,34.0137338 15.6251207,33.5046299 C15.3159828,33.3671623 14.9252931,33.4202532 14.6465,33.6136558 C14.4682241,33.7378506 14.2292586,34.0829416 14.5459828,34.2223052" id="Fill-46" fill="#000000"></path>
            <path d="M14.8524655,34.2574779 L18.9613448,34.2574779 C19.2458276,34.2574779 19.7427241,34.1740494 19.8622069,33.8602442 C19.9703103,33.5758286 19.7673793,33.3710494 19.4667759,33.3710494 L15.3578966,33.3710494 C15.0734138,33.3710494 14.5774655,33.4544779 14.4570345,33.7682831 C14.348931,34.0526987 14.5528103,34.2574779 14.8524655,34.2574779" id="Fill-48" fill="#000000"></path>
            <path d="M17.9260172,34.6143247 C21.225069,41.5531169 21.9817931,52.1807792 18.035069,58.8446364 C17.7060172,59.4011429 19.0819655,59.2750519 19.3161897,58.8797143 C23.3947241,51.994013 22.6721379,41.3398052 19.2991207,34.2464805 C19.0724828,33.7686623 17.7278276,34.1990779 17.9260172,34.6143247" id="Fill-50" fill="#000000"></path>
            <path d="M15.2507414,57.3500325 C14.9235862,58.3843571 15.3872931,59.512539 16.4531552,59.8803831 C17.5408276,60.2558117 18.7821207,59.7201623 19.3548793,58.7607338 C19.5341034,58.4602013 19.1946207,58.2193961 18.9357414,58.181474 C18.5877241,58.1293312 18.2188448,58.3047208 18.040569,58.6024091 C17.4222931,59.6386299 16.2976379,58.3549675 16.5650517,57.5083571 C16.8040172,56.7518117 15.4347069,56.7660325 15.2507414,57.3500325" id="Fill-52" fill="#000000"></path>
            <path d="M19.6476121,14.0784766 C18.7031293,13.8225026 17.5358017,14.1562169 16.8682155,14.8738922 C16.1674397,15.6266455 16.2945086,16.7434506 17.1460603,17.3274506 C17.9464052,17.8763727 19.1611466,17.6867623 19.8249397,17.0013208 C20.386319,16.4239571 20.5133879,15.4199701 19.8486466,14.8701 C19.4958879,14.5781 18.2251983,15.1090091 18.5694224,15.3934247 C18.8785603,15.6503468 18.9809741,16.0181909 18.8899397,16.4087883 C18.8491638,16.5841779 18.7590776,16.8354117 18.6007155,16.9425416 C18.7458017,16.8439442 18.6633017,16.9586584 18.5504569,16.8629052 C18.4480431,16.7756844 18.3124397,16.7282818 18.2081293,16.6325286 C17.5718362,16.0399961 17.691319,14.4880351 18.7970086,14.7876195 C19.203819,14.8975935 20.4024397,14.2823078 19.6476121,14.0784766" id="Fill-54" fill="#000000"></path>
            <g id="Group-58" transform="translate(37.931034, 0.126186)">
                <mask id="mask-2" fill="white">
                    <use xlink:href="#path-1"></use>
                </mask>
                <g id="Clip-57"></g>
                <path d="M3.61397414,1.44009091 C2.96630172,0.499623377 1.46897414,0.739480519 0.737853448,1.44483117 C-0.200939655,2.35022078 0.286474138,3.78272727 1.20914655,4.49281818 C2.15362931,5.21997403 3.81500862,5.27211688 4.58121552,4.24632468 C5.22035345,3.38928571 4.73957759,2.20516883 3.69837069,2.04874026 C3.03742241,1.94919481 2.29397414,2.88397403 3.21569828,3.02238961 C3.50018103,3.06505195 3.52768103,3.69835065 3.40914655,3.88227273 C3.12940517,4.31648052 2.39259483,3.84435065 2.13750862,3.59406494 C1.77337069,3.2357013 1.42156034,2.54646753 1.7060431,2.04115584 C1.88147414,1.73209091 2.16690517,1.76527273 2.35466379,2.03736364 C2.6960431,2.53414286 4.00940517,2.01461039 3.61397414,1.44009091" id="Fill-56" fill="#000000" mask="url(#mask-2)"></path>
            </g>
            <path d="M22.9656293,22.4160247 C22.0856293,22.2681286 20.7153707,22.749739 20.8064052,23.8437909 C20.9097672,25.1037519 22.7769224,24.9416351 23.5914914,24.6941935 C24.3880431,24.4524403 26.0048534,23.4683623 25.1665776,22.4567909 C24.5568362,21.7201545 23.1145086,22.001726 22.5995948,22.7070766 C22.4516638,22.9099597 23.1031293,22.8483364 23.1495948,22.8407519 C23.4198534,22.7952455 23.7830431,22.6994922 23.954681,22.4653234 C23.3724397,22.5060896 23.2406293,22.5734013 23.5611466,22.6663104 C23.6351121,22.7061286 23.7033879,22.7544792 23.7659741,22.8104143 C23.872181,22.9118558 23.9461466,23.0313104 23.9802845,23.1735182 C24.0808017,23.5878169 23.7441638,24.2002584 23.3193362,24.3054922 C22.9447672,24.3984013 22.4450259,24.118726 22.2714914,23.7916481 C22.1975259,23.6541805 22.1662328,23.4987 22.1795086,23.3422714 C22.1927845,23.2275571 22.2231293,23.1194792 22.2733879,23.0170896 C22.4412328,22.7895571 22.2961466,22.7668039 21.837181,22.9488299 C22.1520086,23.0019208 22.51425,22.9147 22.7968362,22.7734403 C22.89925,22.7231935 23.2814052,22.4691156 22.9656293,22.4160247" id="Fill-59" fill="#000000"></path>
        </g>
    </g>
</svg>