<?xml version="1.0" encoding="UTF-8"?>
<svg width="47px" height="61px" viewBox="0 0 47 61" version="1.1" xmlns="http://www.w3.org/2000/svg" xmlns:xlink="http://www.w3.org/1999/xlink">
    <!-- Generator: Sketch 44.1 (41455) - http://www.bohemiancoding.com/sketch -->
    <title>果汁_nor</title>
    <desc>Created with Sketch.</desc>
    <defs>
        <polygon id="path-1" points="2.511 0.290981235 2.511 3.63193434 0.104998208 3.63193434 0.104998208 0.290981235 2.511 0.290981235"></polygon>
        <polygon id="path-3" points="0.000196669047 0.142 23.6939755 0.142 23.6939755 16.4745257 0.000196669047 16.4745257 0.000196669047 0.142"></polygon>
    </defs>
    <g id="Page-1" stroke="none" stroke-width="1" fill="none" fill-rule="evenodd" opacity="0.7">
        <g id="果汁_nor" transform="translate(0.000000, -1.000000)">
            <path d="M10.2297,13.376 C10.3257,22.095 2.9887,29.225 4.1127,37.995 C4.9857,44.806 11.2637,47.788 17.2037,49.427 C18.0777,49.668 20.5927,48.355 18.9937,47.913 C10.5957,45.596 5.0317,40.164 7.6657,30.882 C9.4457,24.607 13.2017,19.337 13.1267,12.6 C13.1187,11.764 10.2177,12.296 10.2297,13.376" id="Fill-1" fill="#000000"></path>
            <path d="M37.47,15.3491 C36.192,21.1011 38.072,26.2511 39.294,31.8501 C41.04,39.8481 38.992,49.2381 28.568,48.9591 C27.589,48.9321 25.452,50.3651 27.391,50.4171 C32.963,50.5661 39.024,48.1851 41.64,42.9451 C46.088,34.0351 38.294,24.1931 40.352,14.9291 C40.556,14.0121 37.666,14.4681 37.47,15.3491" id="Fill-3" fill="#000000"></path>
            <path d="M18.1877,52.0772 C15.8637,52.5512 10.7207,53.5702 10.9597,56.9632 C11.2457,61.0002 20.2837,61.6612 22.9657,61.7982 C26.2137,61.9632 31.0627,61.9582 33.5987,59.4392 C37.2477,55.8142 32.1607,53.0542 28.9767,52.2012 C28.3227,52.0262 25.7997,53.0902 26.5897,53.3022 C28.1957,53.7312 31.0357,54.6192 31.7357,56.4092 C33.3157,60.4432 26.6957,60.7702 24.2817,60.5882 C22.0037,60.4172 19.8337,59.9752 17.6727,59.2352 C14.4707,58.1372 11.0117,54.4562 17.6377,53.1052 C18.7597,52.8762 20.2217,51.6622 18.1877,52.0772" id="Fill-5" fill="#000000"></path>
            <path d="M10.6975,21.3477 C6.1495,24.6637 22.5415,26.6917 24.5445,26.7337 C27.9565,26.8047 36.3925,27.2637 38.5695,23.8597 C38.5755,23.8287 38.5815,23.7997 38.5875,23.7697 C38.0015,22.8407 38.3385,23.1327 37.2525,22.6677 C36.6805,22.4227 35.0405,23.3197 35.1985,23.3877 C38.7035,24.8897 25.3755,25.9167 26.8175,25.9177 C24.8975,25.9167 22.9785,25.7697 21.0785,25.4987 C19.9185,25.3327 9.6985,23.3017 12.6545,21.1467 C13.0605,20.8507 11.1125,21.0457 10.6975,21.3477" id="Fill-7" fill="#000000"></path>
            <path d="M32.5129,10.624 C31.1839,10.479 29.8519,10.418 28.5149,10.457 C27.8309,10.478 27.0539,10.641 26.4659,11.006 C26.0429,11.27 26.0229,11.569 26.6129,11.552 C27.7839,11.517 28.9499,11.557 30.1149,11.684 C30.7879,11.757 31.5219,11.565 32.1339,11.291 C32.3239,11.206 33.1659,10.695 32.5129,10.624" id="Fill-9" fill="#000000"></path>
            <path d="M11.4231,14.2056 C14.0201,16.6776 18.3511,16.9606 21.7951,17.4866 C26.1211,18.1476 30.5511,18.3606 34.8651,17.4966 C36.2561,17.2176 39.6481,16.7596 40.3841,15.2446 C41.7731,12.3896 36.8501,11.3936 35.1821,10.9436 C34.4391,10.7436 31.8591,11.9136 32.8301,12.1756 C34.4111,12.6026 38.7791,13.2126 34.4851,16.3916 C33.1111,17.4086 28.0591,16.6686 26.3121,16.5066 C22.6291,16.1636 16.9891,15.8746 14.1381,13.1616 C13.5231,12.5756 10.8381,13.6486 11.4231,14.2056" id="Fill-11" fill="#000000"></path>
            <path d="M27.0325,27.1919 C28.2465,27.1919 30.0615,25.3569 28.1085,25.3569 C26.8945,25.3569 25.0795,27.1919 27.0325,27.1919" id="Fill-13" fill="#000000"></path>
            <path d="M28.0344,25.8389 C29.4294,20.7049 30.8234,15.5699 32.2184,10.4359 C33.1054,7.1699 34.0604,5.3999 37.5764,4.6329 C39.9044,4.1249 42.6524,4.3029 45.0414,4.1489 C45.8064,4.0989 46.2034,3.1579 45.2064,3.2219 C42.1174,3.4229 35.2924,2.4359 32.7904,4.9689 C30.7604,7.0239 30.5424,11.3839 29.8304,14.0059 C28.7454,17.9999 27.6604,21.9929 26.5764,25.9859 C26.4124,26.5899 27.8824,26.3979 28.0344,25.8389" id="Fill-15" fill="#000000"></path>
            <g id="Group-19" transform="translate(44.000000, 2.858300)">
                <mask id="mask-2" fill="white">
                    <use xlink:href="#path-1"></use>
                </mask>
                <g id="Clip-18"></g>
                <path d="M0.635,1.254 C0.993,1.515 1.304,2.346 0.706,2.565 C0.416,2.671 0.026,2.9 0.119,3.273 C0.202,3.608 0.704,3.693 0.981,3.592 C1.653,3.346 2.254,2.922 2.455,2.198 C2.651,1.491 2.319,0.817 1.747,0.4 C1.21,0.009 -0.045,0.758 0.635,1.254" id="Fill-17" fill="#000000" mask="url(#mask-2)"></path>
            </g>
            <path d="M30.2434,26.2129 C31.4504,22.0389 32.6574,17.8659 33.8634,13.6919 C34.6054,11.1259 34.7064,8.9279 37.0644,7.5049 C39.4474,6.0679 42.0044,6.2759 44.7534,6.1079 C45.4954,6.0619 45.9344,5.1789 44.9334,5.2409 C41.9494,5.4229 36.6394,4.6779 34.4364,7.4109 C32.9164,9.2999 32.4504,13.7179 31.7714,16.0659 C30.7774,19.5029 29.7844,22.9399 28.7904,26.3769 C28.6294,26.9339 30.0924,26.7389 30.2434,26.2129" id="Fill-20" fill="#000000"></path>
            <path d="M16.9905,49.1777 C18.0825,49.5657 19.3285,50.1467 19.9065,51.2167 C20.3475,52.0347 20.3985,53.3277 19.5245,53.8887 C19.0435,54.1977 19.1805,54.4877 19.7005,54.5457 C20.3515,54.6167 21.2035,54.3467 21.7495,53.9957 C22.8825,53.2697 23.4545,51.9837 22.9185,50.6797 C22.3215,49.2307 20.7465,48.5287 19.3675,48.0387 C18.7775,47.8297 17.8685,48.1367 17.3405,48.4037 C17.0395,48.5547 16.3865,48.9637 16.9905,49.1777" id="Fill-22" fill="#000000"></path>
            <path d="M26.6106,49.6973 C24.7146,50.8283 24.5586,53.3183 26.5006,54.4943 C26.9936,54.7923 28.2926,54.1073 27.6306,53.7063 C26.2886,52.8933 26.1486,51.1123 27.5486,50.2753 C27.8236,50.1123 27.8936,49.7983 27.6446,49.5923 C27.3696,49.3643 26.8676,49.5443 26.6106,49.6973" id="Fill-24" fill="#000000"></path>
            <path d="M11.1663,19.0649 C8.3513,17.7349 5.4453,16.7009 2.4133,15.9909 C1.5563,15.7899 -0.1567,17.0629 1.1353,17.3649 C4.0163,18.0409 6.7963,18.9899 9.4743,20.2549 C10.2513,20.6229 12.1883,19.5479 11.1663,19.0649" id="Fill-26" fill="#000000"></path>
            <g id="Group-30" transform="translate(0.000000, 0.858300)">
                <mask id="mask-4" fill="white">
                    <use xlink:href="#path-3"></use>
                </mask>
                <g id="Clip-29"></g>
                <path d="M2.4163,15.3419 C1.4413,10.3259 3.7883,5.5249 8.3813,3.1879 C11.1153,1.7959 14.9813,0.9689 17.7863,2.7379 C19.3903,3.7489 20.5163,5.5129 21.5793,7.0319 C22.1613,7.8649 24.2273,7.0069 23.5643,6.0609 C19.6963,0.5359 15.0073,-1.3321 8.5173,1.3539 C2.6133,3.7969 -0.9957,9.5469 0.2433,15.9249 C0.4443,16.9599 2.6223,16.4009 2.4163,15.3419" id="Fill-28" fill="#000000" mask="url(#mask-4)"></path>
            </g>
            <path d="M21.8801,6.7979 C19.5301,9.2829 17.5571,12.0559 15.9681,15.0829 C15.4051,16.1549 17.6041,16.1499 18.0421,15.3159 C19.5621,12.4209 21.4461,9.7929 23.6921,7.4169 C24.6251,6.4309 22.5381,6.1019 21.8801,6.7979" id="Fill-31" fill="#000000"></path>
            <path d="M14.9602,17.1216 C14.7662,17.6896 14.5712,18.2576 14.3772,18.8256 C14.1952,19.3556 14.0712,20.0166 13.7392,20.4696 C13.9312,20.3196 14.1232,20.1696 14.3142,20.0196 C14.0022,20.1816 12.9992,19.6776 12.5592,19.3616 C11.9302,18.9116 9.9422,19.8236 10.8442,20.4696 C11.9962,21.2946 13.7522,21.6986 15.0852,21.0816 C15.8012,20.7496 15.9982,20.2196 16.2402,19.5116 C16.5402,18.6346 16.8412,17.7566 17.1412,16.8786 C17.4172,16.0706 15.2282,16.3386 14.9602,17.1216" id="Fill-33" fill="#000000"></path>
            <path d="M18.7434,12.813 C21.5034,12.161 24.2784,11.832 27.1124,11.792 C28.3514,11.775 28.7824,10.177 27.3044,10.198 C24.2714,10.24 21.2944,10.623 18.3444,11.32 C16.9874,11.64 17.3944,13.132 18.7434,12.813" id="Fill-35" fill="#000000"></path>
            <path d="M15.8225,14.4058 C16.5875,12.8388 17.4785,11.3658 18.5575,9.9938 C19.0735,9.3388 19.8755,8.6038 19.9205,7.7098 C20.0185,5.7578 17.3095,4.6918 15.8175,4.3148 C14.4545,3.9708 12.5885,3.8878 11.9585,5.4358 C11.5885,6.3488 11.8525,7.6348 11.9735,8.5778 C12.2055,10.3668 12.5795,12.0878 12.4675,13.9068 C12.4185,14.6898 13.8955,14.5098 13.9385,13.8138 C14.0285,12.3658 13.8525,10.9868 13.6345,9.5598 C13.5095,8.7348 12.9885,7.0428 13.2705,6.2748 C13.9275,4.4858 15.8035,5.5068 16.8185,6.0448 C17.6375,6.4798 18.6985,7.0858 18.3415,8.1998 C18.1135,8.9058 17.1735,9.7108 16.7275,10.3248 C15.8405,11.5498 15.0915,12.8508 14.4285,14.2088 C14.0585,14.9678 15.5225,15.0198 15.8225,14.4058" id="Fill-37" fill="#000000"></path>
            <path d="M11.7952,13.7842 L10.1982,9.0542 C9.8682,8.0752 9.6982,6.7412 8.5652,6.4032 C7.1722,5.9872 5.7962,7.2192 5.0632,8.2562 C3.9612,9.8152 2.7552,12.5882 3.9262,14.3852 C5.1422,16.2512 8.5572,16.2462 10.3512,17.1402 C10.7832,17.3562 12.1082,16.7322 11.5002,16.4292 C10.2642,15.8112 9.0542,15.4952 7.7292,15.1562 C5.5872,14.6062 4.5332,13.4552 5.1132,11.1902 C5.3082,10.4302 5.5562,9.3962 6.0862,8.8132 C6.4412,7.9612 7.1772,7.7202 8.2932,8.0912 L8.6362,9.1042 C9.2052,10.7942 9.7752,12.4832 10.3462,14.1722 C10.5212,14.6902 11.9622,14.2812 11.7952,13.7842" id="Fill-39" fill="#000000"></path>
        </g>
    </g>
</svg>