<?xml version="1.0" encoding="UTF-8"?>
<svg width="78px" height="32px" viewBox="0 0 78 32" version="1.1" xmlns="http://www.w3.org/2000/svg" xmlns:xlink="http://www.w3.org/1999/xlink">
    <!-- Generator: Sketch 44.1 (41455) - http://www.bohemiancoding.com/sketch -->
    <title>爆款_se</title>
    <desc>Created with Sketch.</desc>
    <defs></defs>
    <g id="Page-1" stroke="none" stroke-width="1" fill="none" fill-rule="evenodd">
        <g id="爆款_se" fill="#D42A1D">
            <path d="M4.43163658,3.23212743 C3.51544605,5.10174415 3.42842437,7.37215729 3.12795328,9.40932006 C2.79759927,11.6475381 2.54901281,13.8975829 2.22259941,16.137115 C1.56977261,20.6217641 0.843059479,25.1024709 0.033265269,29.5614953 C-0.370646685,31.7859154 3.02090019,32.7484838 3.44714224,30.5030383 C4.30323855,25.9934216 5.01878664,21.4736207 5.56127651,16.9153828 C5.82890923,14.6696088 6.10573669,12.4152932 6.26795824,10.1590065 C6.42131343,8.02197312 6.77826651,5.53243604 6.14776981,3.45650772 C5.92840949,2.73376008 4.80303854,2.47389945 4.43163658,3.23212743" id="Fill-1"></path>
            <path d="M5.88982441,4.49696864 C7.89230822,4.54526132 9.83141399,4.46970134 11.8309423,4.3734445 C13.6245741,4.28671478 16.0703759,3.96016426 17.7576114,4.67141364 C20.1952036,5.69902937 17.9332967,8.03876058 16.9113666,9.31375311 C15.6293566,10.9129965 14.2780577,12.460005 12.9270871,14.0007715 C11.5498459,15.5707765 13.8193057,17.877327 15.234311,16.3092932 C17.2085539,14.121339 19.159153,11.7500697 20.7133931,9.23655052 C21.8998434,7.31666999 22.3776417,4.98252364 20.6362229,3.21343454 C18.8412776,1.39013937 15.9981315,1.48376804 13.6370527,1.60827775 C10.7650089,1.75939771 8.18916709,2.21308611 5.64911915,3.60733201 C5.22254872,3.84123942 5.43041561,4.4857989 5.88982441,4.49696864" id="Fill-4"></path>
            <path d="M13.7071955,16.6128143 C14.7035116,16.8805595 15.51856,16.5487526 16.4922176,16.6413957 C17.6724287,16.7540786 18.0385765,17.90489 17.8021402,18.9328342 C17.3535681,20.8783395 14.9806675,22.7042628 13.5315102,23.9201215 C11.870217,25.3133818 10.0092666,26.4750343 8.05768226,27.4146063 C7.0554552,27.8972046 6.02465876,28.3039144 4.96726323,28.6472195 C3.94500477,28.9790264 2.81930544,29.1229189 1.94876024,29.7806192 C1.21482267,30.3348352 1.14848916,31.6768462 2.22821477,31.9196237 C4.8007727,32.4981503 8.23927844,30.6239343 10.4699889,29.4481553 C13.2077239,28.0049597 15.8058957,26.0886929 17.9078798,23.8087526 C19.6052951,21.9677173 21.1424593,19.4423713 20.1885046,16.8785884 C19.8312231,15.9176625 19.141289,15.0572643 18.2060522,14.6154027 C16.7243849,13.9159801 15.4361357,14.6893201 13.9446169,14.8585087 C13.0031408,14.9649497 12.6619501,16.3319283 13.7071955,16.6128143" id="Fill-6"></path>
            <path d="M33.7357444,1.43182877 C32.8885144,-0.572481832 28.8382298,1.3654674 27.6524363,2.05667695 C25.2384877,3.46307815 23.4126743,5.72954903 21.9792794,8.08669189 C18.8139889,13.292446 16.8184012,19.3070204 17.7625043,25.476 C18.1871045,28.2516794 19.7686004,30.6725555 22.488931,31.621326 C25.0027082,32.4978218 27.9059485,31.92488 30.0141719,30.3571747 C32.2537487,28.6918985 33.9124148,26.0591259 35.2446675,23.6487626 C36.7053182,21.0064629 37.7686246,18.1785485 38.2946953,15.2027994 C38.8043468,12.3216645 38.9997351,9.31207765 38.5908974,6.40564659 C38.3117713,4.41841911 37.4093728,1.27216725 34.9149702,1.36316775 C34.2240509,1.38813539 33.9688968,2.1529338 34.3813467,2.65130114 C35.1238223,3.54783673 35.8134281,4.22032056 36.136886,5.38985764 C36.4412977,6.49007666 36.4721658,7.62314783 36.4416261,8.75654754 C36.358545,11.8301961 35.6626999,14.772436 34.6397847,17.6594843 C33.646424,20.4627596 32.3082604,23.3422519 30.2584893,25.5407188 C28.6855314,27.2276775 25.6407577,28.8896685 23.3338622,27.7365575 C20.6079491,26.3738497 20.7882318,22.7049199 20.9379747,20.1529637 C21.1350049,16.8017143 21.8774805,13.7803006 23.3762237,10.7638148 C24.7055209,8.08899154 26.4906147,5.54130612 29.0638294,3.94074863 C30.3116875,3.16445197 31.6524782,2.9798228 32.9515641,2.39702539 C33.2523636,2.26200299 33.9275205,1.88518865 33.7357444,1.43182877" id="Fill-8"></path>
            <path d="M8.44504367,19.1291916 C8.23257942,20.0316406 8.03456404,20.9498586 7.77908152,21.8417949 C7.5216287,22.7383305 7.05959283,23.5961005 6.90426734,24.5120189 C6.75616629,25.3819443 7.75905012,25.7764988 8.28282212,25.0935022 C9.42723933,23.6000428 9.67122842,21.0868522 9.50342434,19.2724271 C9.45088295,18.7047417 8.59380149,18.4964589 8.44504367,19.1291916" id="Fill-11"></path>
            <path d="M9.27243925,20.0463912 C10.0047349,19.7592633 11.0427558,19.2937481 11.8558338,19.4645794 C12.247924,19.3430264 12.4268931,19.5207566 12.393398,19.997113 C12.2945545,20.1055251 12.1894717,20.2070383 12.0781496,20.3019811 C11.7898287,20.6475859 11.3071047,20.953768 10.953107,21.2201991 C10.2612026,21.741563 9.53514621,22.2336884 8.80120864,22.6939472 C8.15823335,23.0970433 7.5829051,23.2846292 7.35040944,24.0500846 C7.25386463,24.3697362 7.46632889,24.7472076 7.79142875,24.8267098 C9.04421257,25.1338776 10.4460826,23.7057939 11.3353457,22.9317969 C12.2203397,22.1617422 13.495782,21.1870184 13.8061046,19.9938278 C14.0799766,18.9399303 13.4461961,18.1327526 12.4206538,17.9523942 C11.1087609,17.721772 9.71050311,18.2631757 8.70367868,19.0683823 C8.25510654,19.4267994 8.73980088,20.255331 9.27243925,20.0463912" id="Fill-13"></path>
            <path d="M32.122034,10.669102 C30.8153953,7.88455251 27.189054,10.9532733 26.1976636,12.4312922 C24.4894116,14.977992 22.5667251,19.3703265 23.8047316,22.4061951 C24.2999342,23.6207397 25.441396,24.6128751 26.8005761,24.649998 C28.3929087,24.6930343 29.4982482,23.3907745 30.3573,22.2218945 C32.4225051,19.4120488 33.927816,15.4888432 33.0825563,11.9868024 C32.9344553,11.373781 32.0488045,11.4132036 31.8803436,11.9868024 C31.3128966,13.9168671 30.95463,15.8492315 30.1816147,17.7218049 C29.64011,19.0335918 26.3234346,24.9190572 25.6203651,20.8453888 C25.2703081,18.8161105 26.4961644,16.2227606 27.4136685,14.4641842 C28.3449647,12.679326 29.6253327,11.4637959 31.7131963,11.3816655 C32.0924795,11.3665535 32.2753892,10.9959811 32.122034,10.669102" id="Fill-15"></path>
            <path d="M50.817772,0.75073768 C46.2204002,-1.1454893 41.4181169,3.76328123 39.0846223,7.18746242 C35.7886351,12.0229726 34.3772419,17.8223654 34.7023418,23.666437 C34.8290979,25.9430921 35.3660053,28.3646252 37.0506137,30.0190602 C38.9230575,31.8587815 41.803311,32.1840179 44.1683304,31.214222 C45.3846636,30.7151976 46.2000404,29.9152474 47.1645033,29.0535351 C48.2386464,28.0935948 49.3485833,27.1845754 50.3524523,26.1457899 C52.2935283,24.1375371 53.5555069,21.7524699 54.4441132,19.1193688 C56.3119597,13.5834505 57.4370023,6.19565555 52.9401159,1.60785067 C52.2997676,0.954749627 51.3146165,1.94622797 51.9385456,2.60984171 C56.3083475,7.25678049 53.9643446,14.1494933 52.0265524,19.3539333 C50.9228548,22.3165416 49.0960562,24.6579154 46.5724275,26.5518427 C44.8723851,27.8278208 41.3199302,29.3009119 39.4031545,27.6658596 C37.7093514,26.2210214 37.7881634,23.3408721 37.8065529,21.3273629 C37.8344656,18.2481294 38.3552821,15.3403843 39.2383059,12.3994584 C40.0034399,9.85177302 41.1570519,7.58793031 42.9533107,5.60595918 C44.7640184,3.60789049 47.7516534,0.988587357 50.6378177,1.40416725 C51.0709558,1.46658636 51.2236542,0.918283723 50.817772,0.75073768" id="Fill-17"></path>
            <path d="M49.5683705,9.8158656 C46.7429571,7.96760279 44.2196568,11.4436904 43.0923155,13.5731677 C41.7403598,16.1274236 39.7240839,20.0085784 41.7160594,22.7648751 C43.4512389,25.1670254 46.8237395,24.2110274 48.4104896,22.2146013 C49.4872597,20.859121 50.05405,19.1422668 50.3821053,17.4622071 C50.723296,15.716443 51.0848465,13.5830234 50.5751949,11.8609129 C50.4149437,11.3185236 49.4698554,11.2176675 49.3729822,11.8609129 C49.199924,13.008439 49.3408006,14.1628641 49.1509948,15.3143325 C48.9450982,16.5646859 48.5227968,17.8133967 47.9911436,18.9586232 C47.2788793,20.4931478 44.4643026,24.1249547 42.954066,21.1574186 C41.9255682,19.1353678 43.5724125,16.1464778 44.4505105,14.3672046 C44.9637742,13.3274335 45.4412441,12.1516546 46.4789366,11.5245067 C47.3987394,10.9689766 48.4420144,11.0031429 49.4471969,10.7445963 C49.888873,10.6309278 49.9223681,10.0474734 49.5683705,9.8158656" id="Fill-20"></path>
            <path d="M56.0234746,3.76374116 C55.0691916,5.60379094 55.0662361,8.07821603 54.7253739,10.1088084 C54.359226,12.2915062 53.8584409,14.4512076 53.2299145,16.5731289 C52.5823418,18.7604261 51.8024305,20.9089577 50.8678505,22.9904709 C49.9201351,25.1012225 48.6660378,27.0569119 47.7150386,29.1578079 C46.9535168,30.8401672 49.0584563,32.0343435 50.160512,30.5878626 C52.9278015,26.9557272 54.6160221,21.9470861 55.8753736,17.6023873 C56.5186773,15.3832235 57.0240598,13.1243086 57.3826548,10.8414116 C57.7130088,8.73690194 58.2669921,5.97764858 57.4585114,3.95132703 C57.2292996,3.37707118 56.3646653,3.10669786 56.0234746,3.76374116" id="Fill-22"></path>
            <path d="M55.8400723,4.09689497 C56.407191,5.39159881 58.1423705,5.22208163 59.3337465,5.10841314 C61.2350882,4.92706919 63.1587599,4.48159383 64.9822746,3.92803484 C66.5883993,3.44050871 65.9165262,0.948671976 64.2864295,1.40367446 C62.7305476,1.83830861 61.1759791,2.26243006 59.6089321,2.65238527 C58.4359455,2.94411249 57.0977819,3.00850274 55.9999952,3.4858447 C55.761917,3.58932902 55.7530507,3.89846789 55.8400723,4.09689497" id="Fill-24"></path>
            <path d="M64.3892465,2.14212544 C63.6825647,3.94702339 64.0152174,6.26605774 63.9932157,8.17444002 C63.968587,10.3456396 63.838547,12.5109258 63.629695,14.6719413 C63.4907887,16.109552 65.7441576,16.1042957 65.8768246,14.6719413 C66.0866618,12.4087556 66.216045,10.1380139 66.2173585,7.86431558 C66.2183437,5.99108512 66.3395173,3.68781981 65.4019818,2.00973121 C65.1494547,1.55768542 64.5534383,1.72326033 64.3892465,2.14212544" id="Fill-26"></path>
            <path d="M67.3129779,3.2871548 C66.0624928,5.08778198 65.7429754,7.33519861 65.1617363,9.41638328 C64.5338667,11.6641284 63.7513283,13.8859204 63.1865083,16.1474634 C62.8509002,17.4891458 64.7102087,17.9231229 65.2050829,16.7043076 C66.1153626,14.4621473 66.724186,12.0241882 67.3050967,9.67690095 C67.8163901,7.60787158 68.4764414,5.51913091 68.0725294,3.38636834 C68.000285,3.0049547 67.4981863,3.0200667 67.3129779,3.2871548" id="Fill-28"></path>
            <path d="M66.5987762,29.7876824 C68.1786302,30.046229 69.8116824,29.4897133 71.3619818,29.182217 C72.7822413,28.9003454 74.7328405,28.9709776 75.8000876,27.9348203 C76.2926631,27.4571498 76.2302702,26.70155 75.8000876,26.2146809 C74.6428634,24.9045366 72.6104967,25.6729487 71.1396661,26.0576476 C69.4944637,26.488668 67.380001,27.0363136 66.2185079,28.3461294 C65.8320003,28.7820777 65.9117975,29.675328 66.5987762,29.7876824" id="Fill-30"></path>
            <path d="M48.9424055,30.5911807 C49.8618799,31.2827188 51.1343667,30.9055759 52.1756714,30.7367158 C53.5565249,30.5129925 54.9698884,30.4118079 56.3333375,30.0944559 C57.8031829,29.7524649 57.5105931,27.3450582 55.9731006,27.432445 C54.537407,27.5142469 53.1283126,27.8706929 51.7425333,28.2376516 C50.6710173,28.5214943 49.25437,28.7774126 48.7601525,29.8960289 C48.6386506,30.170673 48.7013719,30.4098367 48.9424055,30.5911807" id="Fill-32"></path>
            <path d="M60.2780467,18.6813181 C59.1671246,20.0643942 58.5218507,21.6935331 57.7442381,23.2756934 C56.8904404,25.0122588 55.8642414,26.6729358 55.0528052,28.4265844 C54.5129424,29.5928362 56.1512487,30.6109248 56.8073594,29.4525575 C57.7462084,27.7938517 58.4230072,25.9607008 59.1530042,24.2011389 C59.8682239,22.4783713 60.6501054,20.7759721 60.8034606,18.8991279 C60.8241488,18.6451807 60.4428953,18.475992 60.2780467,18.6813181" id="Fill-34"></path>
            <path d="M9.51872702,8.17775809 C9.2612742,8.93237232 9.23007775,9.71458238 9.19100009,10.5056625 C9.15159405,11.3046272 8.8320767,12.1594405 9.09117144,12.9265386 C9.2271223,13.3289776 9.69703937,13.3529597 9.93544594,13.0369219 C10.4408285,12.3664092 10.3304915,11.3108691 10.3157143,10.5056625 C10.3002802,9.66727526 10.1600604,8.86141165 9.68751625,8.15574714 C9.6421993,8.0884002 9.54499772,8.10088402 9.51872702,8.17775809" id="Fill-36"></path>
            <path d="M9.97442509,8.89817322 C10.4738967,8.97931807 11.1073489,8.81472872 11.5697131,8.95599303 C12.3049642,9.18037332 11.7385023,9.93991538 11.4560924,10.4238278 C10.8521947,11.4570284 10.0302503,12.1656496 8.99354297,12.7303783 C8.33250658,13.090438 8.92294047,14.1042558 9.58430525,13.7409109 C11.1759811,12.8657292 12.7170858,11.2602439 13.1952124,9.46651568 C13.7409862,7.41916874 10.8452987,7.26640617 9.86573008,8.48653559 C9.76327437,8.61334495 9.77181234,8.86532106 9.97442509,8.89817322" id="Fill-38"></path>
            <path d="M68.5822466,15.4852952 C66.7731808,20.4075351 65.2232097,25.4365445 63.5369594,30.404449 C63.2834472,31.1508502 64.4107884,31.420895 64.694512,30.7234435 C66.6628439,25.8876048 68.3894854,20.8352703 69.3835028,15.7063902 C69.4859586,15.1784559 68.7667983,14.982657 68.5822466,15.4852952" id="Fill-40"></path>
            <path d="M67.1128609,23.1017412 C66.7562362,24.9687297 66.4183294,26.8238915 65.9300228,28.659342 C65.5733981,30.0010244 67.8307077,30.1810543 67.7141315,28.9008054 C67.5397597,26.9855241 67.5157877,25.0748422 67.4753965,23.1510194 C67.4714559,22.9506212 67.1532521,22.8898447 67.1128609,23.1017412" id="Fill-42"></path>
            <path d="M60.0898172,14.1225874 C59.4862479,19.7626471 59.2872474,25.4253748 58.3953573,31.0365246 C58.26072,31.8827964 59.5371474,32.2622389 59.7013393,31.3969129 C60.7836919,25.6888492 61.423055,19.8345933 60.4828925,14.0693668 C60.4438148,13.828889 60.1118189,13.9172613 60.0898172,14.1225874" id="Fill-44"></path>
            <path d="M58.8384782,31.7164659 C59.608538,31.9237631 60.3858222,31.657332 61.1473441,31.5140966 C62.0169041,31.3504928 62.8631489,31.3005575 63.7465011,31.353778 C65.4455583,31.4559482 65.4573801,28.6257342 63.7465011,28.7049079 C62.1439886,28.7794823 59.2072531,29.0590543 58.4519706,30.7663813 C58.287122,31.1395819 58.3994292,31.5981981 58.8384782,31.7164659" id="Fill-46"></path>
            <path d="M67.8744812,4.25074166 C69.33349,4.28720757 70.8151573,3.94390244 72.2580753,3.73890493 C73.7124867,3.53193629 75.302849,3.48134395 76.5881428,2.72902937 C77.5430826,2.17021404 77.026535,0.915589846 76.0676546,0.806520657 C74.6050336,0.639631658 73.0829751,1.26546541 71.6843889,1.65706322 C70.289415,2.04767546 68.8392725,2.34400199 67.5247526,2.95932305 C66.8702839,3.26583375 67.2347898,4.2346441 67.8744812,4.25074166" id="Fill-48"></path>
            <path d="M75.860543,1.74192036 C74.5768911,3.18577302 74.3007204,5.42070582 73.9831734,7.27192534 C73.6324596,9.31894375 73.3539902,11.4014425 73.2538332,13.4767138 C73.1490788,15.6328014 73.1602438,17.7951309 73.27682,19.9505615 C73.389784,22.037331 73.3694242,24.5068283 74.0885845,26.4809149 C74.6635844,28.0588044 76.9737637,27.8390234 77.0519191,26.0797899 C77.1412394,24.0721941 76.6046605,21.9657133 76.4710083,19.9505615 C76.3353858,17.8986152 76.3005772,15.8404271 76.3616565,13.7848671 C76.4197804,11.8360767 76.4943235,9.88827178 76.6788752,7.94670881 C76.8568591,6.07742061 77.4459795,3.83624589 76.8896975,2.01360777 C76.7612995,1.59375709 76.1800603,1.38251767 75.860543,1.74192036" id="Fill-50"></path>
        </g>
    </g>
</svg>