<?xml version="1.0" encoding="UTF-8"?>
<svg width="67px" height="47px" viewBox="0 0 67 47" version="1.1" xmlns="http://www.w3.org/2000/svg" xmlns:xlink="http://www.w3.org/1999/xlink">
    <!-- Generator: Sketch 44.1 (41455) - http://www.bohemiancoding.com/sketch -->
    <title>外卖_se</title>
    <desc>Created with Sketch.</desc>
    <defs></defs>
    <g id="Page-1" stroke="none" stroke-width="1" fill="none" fill-rule="evenodd">
        <g id="外卖_se" fill="#D42A1D">
            <path d="M17.6499536,5.35258305 C12.3425964,1.22215932 5.96962024,11.6386339 12.104906,15.2440915 C13.7958583,16.2374644 15.7149298,16.2685322 17.5965131,16.4852102 C20.8404298,16.8572271 23.4869298,18.0218712 26.5457988,19.0144475 C28.7759417,19.7385661 31.103394,20.0149898 33.3766083,20.5542949 C36.4330845,21.2784136 38.0833583,22.5864475 40.5751202,24.3859898 C42.5962869,25.8461763 45.2746917,26.1050746 47.1235726,24.0641593 C49.6512274,21.2736339 47.4418226,18.1851763 44.9380964,16.4581254 C40.6548821,13.5034983 36.580644,11.0945492 31.551656,9.70207458 C28.6164179,8.8895322 26.1836798,7.85314237 23.431894,6.5315661 C21.6013583,5.65370169 20.1608583,5.1295322 18.1341083,5.20680339 C16.8595131,5.25698983 16.3227155,6.86295593 17.9035964,6.80161695 C20.8571798,6.68770169 23.6687869,9.1245322 26.4205726,10.1043627 C28.8907988,10.9830237 31.5085845,11.3877017 33.9628583,12.3181424 C37.0025845,13.4700407 39.876406,15.4878542 42.5252988,17.3375831 C43.4513345,17.9135322 44.3127631,18.5779051 45.1087869,19.3307017 C46.7694298,21.8487864 46.0021202,23.2324983 42.8068583,23.4826339 C42.0291798,23.2571932 40.9300607,21.7213288 40.1906679,21.2250407 C36.2137393,18.5595831 31.0172512,18.6695153 26.6223702,17.0675322 C24.3563345,16.2406508 22.2530131,15.3022441 19.8402155,15.0059051 C18.205894,14.8043627 16.3011798,14.9541254 14.7410369,14.3256 C9.73039405,12.3085831 12.9288464,4.35841356 15.8545131,6.63512542 C16.6098583,7.22382034 18.664525,6.14282034 17.6499536,5.35258305" id="Fill-1"></path>
            <path d="M15.1675238,5.75558814 C21.081869,3.61748644 27.2155595,1.82113051 33.5542381,1.71677458 C40.0037857,1.61082542 46.2228214,3.74813051 52.3397619,5.55404576 C54.8977262,6.3092322 57.827381,7.13611356 59.6244167,9.24155424 C62.4065119,12.4996898 61.3081905,16.0844356 57.5809167,17.9142492 C53.1214286,20.1041305 48.665131,21.3795034 44.5135238,24.3030627 C43.2341429,25.2040288 45.1117381,26.0333 46.0505357,25.3721136 C49.6613571,22.8301305 53.3607143,21.3157746 57.4548929,19.7424695 C59.3085595,19.0295034 61.2762857,18.169961 62.4982381,16.5265542 C65.6249048,12.3196559 62.0451905,7.53919831 58.1432381,5.61140169 C55.0644286,4.08987627 51.5485238,3.37691017 48.2607381,2.44168983 C44.5542024,1.38697797 40.8484643,0.336249153 36.9832024,0.0789440678 C29.3483929,-0.42929322 21.852369,1.5853339 14.7384048,4.15599492 C13.3720833,4.64909661 13.7613214,6.26382542 15.1675238,5.75558814" id="Fill-3"></path>
            <path d="M26.8140381,2.04641186 C27.5996929,3.9136661 28.7402881,3.89534407 30.5173833,4.30161525 C31.7832048,4.43305593 33.0354667,4.66407288 34.2733714,4.99386949 C35.3724905,5.62159831 36.4149786,6.33217458 37.3984429,7.12559831 C38.1450143,7.53664915 38.511919,7.77642881 39.2417405,7.99629322 C40.4748595,8.36831017 41.7454667,8.25041186 42.9977286,8.53719153 C44.9088238,8.97453051 46.6835262,10.0722593 48.2675976,11.1875136 C51.3799071,13.3789881 53.6531214,16.4778017 52.4064429,20.4441237 C52.2812167,20.8432254 53.4393595,20.6894797 53.5613952,20.2991407 C55.1973119,15.0980729 50.9842881,11.3563949 46.7632881,9.12986949 C43.6645381,7.49602203 40.5035738,7.68880169 37.4199786,5.87253051 C36.2163714,5.16434407 35.3693,4.54697119 34.0261095,4.01961525 C32.0607762,3.2477 29.1646214,4.57883559 27.9697881,1.73653051 C27.8014905,1.3366322 26.6632881,1.68714068 26.8140381,2.04641186" id="Fill-5"></path>
            <path d="M34.6344536,1.16496271 C35.893894,2.73747119 37.1509417,2.58770847 39.009394,2.89679322 C41.5099298,3.31103051 41.7372512,5.10579322 43.9602155,6.01711525 C44.972394,6.43135254 45.9710131,6.35965763 47.0182869,6.56040339 C48.7937869,6.90214915 49.9830369,7.98394576 51.4969179,8.88491186 C55.2537036,11.1209966 60.087275,13.6852847 56.4158345,18.6824203 C55.9851202,19.269522 57.0746679,19.4176915 57.3777631,19.0050475 C61.7359536,13.0718949 55.4387512,10.1284203 51.2528464,6.81930169 C49.0665726,5.08986102 46.2126917,6.36682712 43.8724774,4.88752203 C42.7932988,4.20562373 42.4471321,2.80040339 41.3527988,2.23242034 C39.3324298,1.18487797 37.7539417,3.23535254 35.6944893,0.663098305 C35.3778345,0.267183051 34.2747274,0.716471186 34.6344536,1.16496271" id="Fill-7"></path>
            <path d="M49.4332381,16.2733119 C51.1824167,16.0223797 52.869381,15.5651254 54.4590357,14.7796678 C56.1954524,13.9217186 57.6399405,12.5889898 59.3970952,11.7812271 C60.1197381,11.4490407 59.4712738,10.9312441 58.90975,11.1893458 C57.6830119,11.7533458 56.6469048,12.5483627 55.5238571,13.2860237 C53.6997024,14.4841254 51.7160238,15.2066508 49.5592619,15.5173288 C48.9578571,15.6033627 48.642,16.3872271 49.4332381,16.2733119" id="Fill-9"></path>
            <path d="M10.8008786,10.5220254 C8.13364048,9.82897458 5.61156905,11.5839068 4.30187857,13.8407034 C3.19956905,15.7382288 3.05599762,19.589839 6.18824762,19.2218051 C7.47560476,19.0704492 7.96215238,17.333839 6.39004524,17.5178559 C5.28135476,17.6477034 6.19303333,14.6835169 6.4052,14.2955678 C6.93162857,13.3372458 8.21898571,11.7639407 9.46965238,12.0889576 C10.0144262,12.2307542 10.7402595,12.1359576 11.1039738,11.6516186 C11.3998905,11.2572966 11.3608071,10.6678051 10.8008786,10.5220254" id="Fill-11"></path>
            <path d="M5.76511071,17.3647475 C3.29727738,17.686578 1.29844405,20.0150695 0.426646429,22.2384085 C0.015872619,23.2851542 -0.292008333,24.5907983 0.450575,25.5714254 C1.29286071,26.6819 2.75888452,26.4086627 3.95611071,26.2684593 C5.2538369,26.1163068 5.72203929,24.3542051 4.15152738,24.5374254 C3.27255119,24.6401881 2.40713452,24.9835271 2.33774167,23.7304593 C2.30105119,23.0716627 2.69667024,22.3148831 3.0005631,21.7437136 C3.4448369,20.9080695 4.51364643,19.2335949 5.57128929,19.0957814 C6.8618369,18.9269 7.334825,17.1600186 5.76511071,17.3647475" id="Fill-13"></path>
            <path d="M2.64634048,24.8975729 C1.42279286,25.9483017 -0.228278571,27.6801322 0.141816667,29.4565729 C0.499947619,31.1756576 2.75322143,31.6233525 3.95603095,30.4666746 C5.07828095,29.3872678 3.27725714,28.5086068 2.4046619,29.3474373 C2.73567381,29.4032 2.77395952,29.3171661 2.51951905,29.0869458 C2.45172143,28.9156746 2.4293881,28.7380305 2.45092381,28.5548102 C2.47565,28.2297932 2.63836429,27.9079627 2.79948333,27.6339288 C3.16000714,27.0189458 3.66011429,26.4780475 4.1969119,26.0168102 C5.38297143,24.9979458 3.55881667,24.1145051 2.64634048,24.8975729" id="Fill-16"></path>
            <path d="M1.87209167,29.7861305 C1.14705595,31.8445712 1.16859167,34.4056729 2.39532976,36.2912492 C3.5821869,38.1138932 5.85300833,37.0257237 7.10128214,35.8770119 C7.49450833,35.5153508 7.29510357,35.1130627 6.85322262,34.9561305 C6.33477024,34.7713169 5.60494881,35.0397746 5.21890119,35.3934695 C4.94372262,35.8841814 4.74352024,35.9192322 4.61909167,35.498622 C4.440425,35.1967068 4.289675,34.8812492 4.17003214,34.5514525 C3.98498452,34.0687068 3.86215119,33.5644525 3.78797262,33.0538254 C3.61249643,31.8413847 3.79036548,30.6815203 4.19396071,29.5367915 C4.50104405,28.6653 2.16880595,28.9433169 1.87209167,29.7861305" id="Fill-18"></path>
            <path d="M5.03369405,35.4876288 C4.59739643,36.9884424 6.15594405,38.0335949 7.28936071,38.6477814 C8.71151548,39.4181034 10.3490274,39.4818322 11.6978012,38.5203237 C12.0974083,38.2351373 12.2808607,37.7077814 11.8357893,37.3771881 C11.3803488,37.0394254 10.6002774,37.2322051 10.182325,37.5301373 C9.65828929,37.9029508 8.68280119,37.1310356 8.24969405,36.8307136 C7.70013452,36.4507305 7.15376548,36.0341034 7.36992024,35.2924593 C7.67301548,34.2512898 5.31445595,34.5237305 5.03369405,35.4876288" id="Fill-20"></path>
            <path d="M9.78590833,38.3457864 C9.63755119,39.4363458 10.2126345,40.424939 11.2096583,40.894939 C12.4308131,41.4716847 13.9837774,41.2040237 15.157075,40.6471932 C15.4458131,40.5101763 16.1030512,40.1756 15.7879917,39.7741085 C15.5048369,39.4132441 14.5851821,39.6307186 14.2661345,39.7820746 C13.123944,40.3237695 11.9275155,39.2411763 12.0910274,38.0327186 C12.2050869,37.1907017 9.88640833,37.6081254 9.78590833,38.3457864" id="Fill-22"></path>
            <path d="M13.5987667,40.2844169 C13.43685,41.4912814 14.5104452,42.201061 15.6231238,42.2488576 C17.1106833,42.3109932 18.5033262,41.5972305 19.7037429,40.7974339 C20.0818143,40.5457051 19.9821119,40.3146881 19.5617667,40.2668915 C19.0481,40.2071458 18.3541714,40.4190441 17.9274452,40.7034339 C17.4847667,40.9981797 17.115469,41.4124169 16.5890405,41.1216542 C16.1407786,40.8739085 15.8097667,40.4174508 15.8807548,39.8877051 C15.959719,39.3006034 13.6753381,39.7148407 13.5987667,40.2844169" id="Fill-24"></path>
            <path d="M17.3165488,41.1495356 C17.9466679,43.7170102 19.7445012,44.630722 22.259394,44.3614678 C24.2789655,44.1455864 26.2969417,43.3896034 27.5970607,41.7812475 C27.8347512,41.4865017 26.744406,41.6155525 26.6893702,41.6251119 C26.252275,41.6968068 25.6197631,41.8513492 25.324644,42.2169932 C24.365906,43.4023492 22.5146321,44.0874339 21.1562869,43.1211458 C20.3036321,42.5133322 19.8689298,41.5143831 19.6280488,40.5313661 C19.5235607,40.1043831 17.2032869,40.6890949 17.3165488,41.1495356" id="Fill-26"></path>
            <path d="M25.0264143,42.4245898 C24.6786524,44.9872847 28.4625571,44.7666237 29.9923905,44.4272678 C30.4446405,44.3268949 31.0747595,43.8879627 30.9415571,43.3510475 C30.8011762,42.7870475 30.0075452,42.7989966 29.5800214,42.8937932 C28.9985571,43.0228441 27.2222595,43.2881153 27.3650333,42.2357932 C27.5189738,41.0926576 25.1636048,41.4120983 25.0264143,42.4245898" id="Fill-28"></path>
            <path d="M28.7239369,43.8544254 C28.8340083,44.9609169 29.8780917,45.7153068 30.9205798,45.8738322 C32.2326631,46.0729847 33.4929012,45.5034085 34.5258179,44.7418492 C34.9405798,44.4359508 35.086544,43.8711542 34.6438655,43.5246288 C34.1844369,43.1653576 33.4107464,43.3430017 32.9848179,43.6576627 C32.2549964,44.1969678 31.1606631,44.4956966 31.0354369,43.2362559 C30.9293536,42.159239 28.6114726,42.7224424 28.7239369,43.8544254" id="Fill-30"></path>
            <path d="M33.054769,44.8074102 C34.0254714,45.5211729 34.4466143,46.5073763 35.8193167,46.4563932 C37.3547333,46.3990373 38.950769,45.1634949 40.1799,44.3549356 C40.5691381,44.0976305 40.7797095,43.6379864 40.3474,43.3233254 C39.9095071,43.0038847 39.0999238,43.2428678 38.7011143,43.5049525 C38.2121738,43.8275797 36.6982929,45.0248847 36.2755548,44.9053932 C35.8121381,44.7747492 35.2817214,43.8976814 34.8685548,43.5949695 C34.1690429,43.0811559 32.0736976,44.086478 33.054769,44.8074102" id="Fill-32"></path>
            <path d="M63.3440333,15.0706695 C63.3296762,15.0356186 63.3169143,15.0013644 63.3025571,14.9671102 C63.2347595,15.1646695 63.1669619,15.3622288 63.0991643,15.5605847 L63.1837119,15.4649915 C62.7274738,15.6267034 62.2696405,15.7884153 61.8134024,15.9501271 C61.5246643,15.8378051 61.5007357,15.8529407 61.7448071,15.9979237 C61.8508905,16.079178 61.9458071,16.1715847 62.0295571,16.2751441 C62.1619619,16.4440254 62.2624619,16.6240593 62.2832,16.8447203 C62.3366405,17.4071271 61.9370333,17.9607712 61.6219738,18.3845678 C60.7677238,19.5340763 62.9563905,19.7196864 63.5266881,18.9533475 C64.2525214,17.9775 65.0525333,16.7515169 64.3251048,15.5494322 C63.6726524,14.4692288 62.1444143,13.9187712 61.1952476,14.9918051 C61.0732119,15.128822 60.9120929,15.3853305 60.9918548,15.5852797 C61.0046167,15.6195339 61.0189738,15.6545847 61.033331,15.688839 C61.4090095,16.6391949 63.7021643,15.974822 63.3440333,15.0706695" id="Fill-35"></path>
            <path d="M63.7436405,19.0109424 C63.5227,19.0762644 63.3017595,19.1415864 63.080819,19.2069085 C63.1542,19.2292136 63.2180095,19.2666542 63.2722476,19.3192305 C63.3512119,19.4124339 63.4421405,19.4761627 63.5091405,19.5845017 C63.6654738,19.8338407 63.7292833,20.1548746 63.713331,20.4464339 C63.6782357,21.0861119 63.2882,21.6023153 62.8702476,22.0547898 C62.494569,22.4634508 63.1908905,22.6657898 63.478831,22.6673831 C64.0307833,22.6713661 64.6313905,22.4650441 65.0094619,22.0547898 C65.8062833,21.1896712 66.4571405,19.8704847 65.7113667,18.7655864 C64.8722714,17.5244678 62.9149143,17.9187898 61.908319,18.7002644 C61.5246643,18.9989932 61.6706286,19.3574678 62.1085214,19.4482814 C62.645319,19.5590102 63.3201048,19.3399424 63.7436405,19.0109424" id="Fill-37"></path>
            <path d="M63.3432357,22.5443068 C64.1169262,22.8326797 64.2692714,23.7702898 63.9582,24.4529847 C63.5881048,25.2703068 62.7322595,25.6367475 61.9665452,25.9928322 C61.6251643,26.1521542 61.3117,26.479561 61.7184857,26.7241203 C62.1356405,26.9750525 62.9643667,26.6396797 63.3432357,26.4636288 C64.4678786,25.9402559 65.7217357,25.2957983 66.2521524,24.0976966 C66.7075929,23.0700695 66.2752833,21.9484424 65.2168429,21.5525271 C64.7271048,21.3701034 64.0267952,21.5700525 63.5920929,21.8130186 C63.3360571,21.9556119 62.8391405,22.3563068 63.3432357,22.5443068" id="Fill-39"></path>
            <path d="M38.5384,44.6198881 C40.9312571,46.9706847 45.9219595,45.3535661 46.3574595,42.0109898 C46.383781,41.8094475 44.1321024,41.9703627 44.0459595,42.6299559 C43.9661976,43.2409559 43.4956024,44.6820237 42.7314833,44.8421424 C42.0471262,44.9863288 41.161769,44.2884983 40.7230786,43.8575322 C40.3234714,43.4656 38.247269,44.3331085 38.5384,44.6198881" id="Fill-41"></path>
            <path d="M44.0967679,43.1394678 C46.4266131,44.3710271 49.5269583,43.2995864 50.5814107,40.9033831 C50.7951726,40.4158576 49.8180893,40.3847898 49.5835893,40.4102814 C49.0771012,40.4668407 48.4860655,40.7034339 48.2699107,41.1941458 C47.785756,42.2942644 46.9785655,42.5746712 45.936875,42.0242136 C45.2724583,41.6729085 43.1491964,42.6384 44.0967679,43.1394678" id="Fill-43"></path>
            <path d="M48.6223786,41.7407797 C49.7358548,42.6568814 51.7586167,41.9550678 52.7516524,41.1680169 C53.5724024,40.5187797 54.9227714,39.1294915 54.0725095,38.0731864 C53.7247476,37.6414237 51.5432595,38.4236949 51.8950095,38.8594407 C52.327319,39.3963559 51.8383786,40.0591356 51.4954024,40.4805424 C51.3111524,40.7059831 51.1221167,40.9330169 50.9059619,41.1289831 C50.8038667,41.2221864 50.3683667,41.5113559 50.8971881,41.2604237 C51.2648905,41.0859661 51.0607,41.1672203 50.7998786,40.9545254 C50.4672714,40.6796949 49.6576881,40.9593051 49.3115214,41.0851695 C49.1559857,41.1409322 48.307319,41.4810847 48.6223786,41.7407797" id="Fill-45"></path>
            <path d="M52.1002369,39.1502034 C53.6372488,39.2011864 55.2141417,38.7335763 56.4831536,37.8644746 C57.112475,37.4335085 59.2859869,35.5112881 57.7840702,34.9998644 C57.2815702,34.8293898 56.6051893,35.0062373 56.1585226,35.2571695 C55.9136536,35.3949831 55.3967964,35.8243559 55.912856,36.0012034 C56.3395821,36.1461864 54.924606,37.473339 54.7810345,37.5721186 C54.2330702,37.9505085 53.712225,38.0628305 53.052594,38.0397288 C52.6290583,38.0261864 51.7413083,38.2181695 51.5163798,38.6292203 C51.2707131,39.0769153 51.7269512,39.1374576 52.1002369,39.1502034" id="Fill-47"></path>
            <path d="M55.6194119,35.9489458 C56.7480429,37.5087085 59.2844714,36.1624373 60.4505905,35.3530814 C61.3184,34.7516407 63.6299,32.3657932 61.5919833,31.6982339 C61.0655548,31.5261661 60.4290548,31.6368949 59.9584595,31.926861 C59.7104,32.0806068 59.201519,32.6039797 59.7439,32.7816237 C60.8589714,33.1464712 58.42065,35.9616915 57.7705905,35.0631153 C57.338281,34.464861 55.1009595,35.2312 55.6194119,35.9489458" id="Fill-49"></path>
            <path d="M60.1122405,32.6824458 C62.2291214,33.4272763 65.106931,31.4269881 65.9428357,29.5103441 C66.9510262,27.1985814 64.9673476,24.9983441 62.5601333,25.7599034 C61.1690857,26.2004288 61.5575262,27.7498356 62.9740976,27.3013441 C64.1115024,26.9412763 63.8626452,29.0873441 63.5946452,29.5621237 C63.3465857,30.0018525 62.0632167,31.3696322 61.4546333,31.1553441 C60.4919071,30.8167847 58.741931,32.2012932 60.1122405,32.6824458" id="Fill-51"></path>
            <path d="M36.7110548,38.2625407 C36.8035786,39.2901678 37.1784595,40.4476424 38.3350071,40.6667102 C39.1589476,40.8228458 40.0419119,40.466761 40.5914714,39.8501847 C41.074031,39.3092864 41.9163167,37.9271678 41.3141143,37.2468627 C40.8363405,36.7075576 39.7834833,36.9329983 39.3766976,37.4396424 C39.1063048,37.7774051 40.2357333,37.6523373 40.4367333,37.4022017 C40.0809952,37.4555746 40.0267571,37.5678966 40.274019,37.736778 C40.2947571,37.8116593 40.3162929,37.8865407 40.3362333,37.961422 C40.387281,38.2346593 40.2516857,38.5740153 40.1511857,38.8249475 C39.9988405,39.2081169 39.7994357,39.7012186 39.466031,39.9617102 C38.4474714,40.7591169 37.9218405,38.5580831 37.8668048,37.9526593 C37.8404833,37.6650831 36.6775548,37.8921169 36.7110548,38.2625407" id="Fill-53"></path>
            <path d="M11.913956,24.4541797 C10.5595988,24.6549254 9.65350357,25.8578068 9.44851548,27.1761966 C9.19247976,28.8219932 11.5334917,28.8777559 12.6015036,28.5909763 C13.3201583,28.3981966 13.0936345,27.5498068 12.3741821,27.7425864 C11.9921226,27.8453492 11.6068726,27.8748237 11.2176345,27.7864 C10.6728607,27.6613322 10.5268964,27.3992475 10.6832298,26.8671119 C10.8379679,26.3373661 11.1929083,25.4483492 11.8270155,25.3543492 C12.0782655,25.3169085 12.4459679,25.1759085 12.4579321,24.8684169 C12.4683012,24.5896034 12.1715869,24.4159424 11.913956,24.4541797" id="Fill-55"></path>
            <path d="M12.778575,27.5161102 C12.0926226,28.2410254 11.2128488,29.3642458 11.9777655,30.3552288 C12.7777774,31.390822 14.2158845,30.5567712 14.9385274,29.897178 C15.1363369,29.7171441 15.0350393,29.5156017 14.815694,29.4367373 C14.5548726,29.3443305 14.1911583,29.4789576 13.9973369,29.6558051 C13.7644321,29.8677034 13.4541583,30.215822 13.1351107,29.9871949 C12.935706,29.8446017 12.8535512,29.4829407 12.8535512,29.2535169 C12.8527536,28.6520763 13.3353131,28.1637542 13.7197655,27.7582797 C14.1967417,27.2540254 13.0752893,27.2030424 12.778575,27.5161102" id="Fill-57"></path>
            <path d="M14.0380952,30.2972356 C15.4546667,31.7462695 18.3149286,30.6166763 18.00625,28.5016763 C17.9448333,28.087439 16.7835,28.3566932 16.8497024,28.8115576 C16.9182976,29.2815576 16.7850952,29.8415746 16.3815,30.1371169 C15.9643452,30.4422186 15.4235595,30.1570322 15.1085,29.8352017 C14.8125833,29.5316932 13.7134643,29.9650492 14.0380952,30.2972356" id="Fill-59"></path>
            <path d="M51.062694,28.3695186 C50.7763488,29.3939593 51.9520393,30.0997559 52.8437774,29.977078 C53.906206,29.8312983 54.603325,28.8522644 54.6559679,27.8286203 C54.6862774,27.2271797 53.5105869,27.3896881 53.4842655,27.9154508 C53.4659202,28.2795017 53.323944,29.0330949 52.8708964,29.1294847 C52.4202417,29.2258746 52.1330988,28.6443492 52.2343964,28.2834847 C52.3875393,27.7346203 51.2054679,27.8628746 51.062694,28.3695186" id="Fill-61"></path>
            <path d="M54.0911738,28.3633051 C55.332269,28.2119492 56.9641976,27.3978136 56.7129476,25.8954068 C56.4808405,24.5101017 54.712519,24.534 53.79765,25.1935932 C53.603031,25.3337966 53.6684357,25.4381525 53.8742214,25.4795763 C54.1151024,25.5281695 54.494769,25.4023051 54.6909833,25.2605085 C54.809031,25.1752712 55.2126262,25.5138305 55.2804238,25.5895085 C55.4894,25.8205254 55.5819238,26.1543051 55.579531,26.4602034 C55.5723524,27.2074237 55.0219952,27.8024915 54.293769,27.8917119 C54.155781,27.9084407 53.6261619,28.0311186 53.6205786,28.2223051 C53.6141976,28.4389831 53.9531857,28.3800339 54.0911738,28.3633051" id="Fill-63"></path>
        </g>
    </g>
</svg>