<?xml version="1.0" standalone="no"?><!DOCTYPE svg PUBLIC "-//W3C//DTD SVG 1.1//EN" "http://www.w3.org/Graphics/SVG/1.1/DTD/svg11.dtd"><svg t="1502262421449" class="icon" style="" viewBox="0 0 1024 1024" version="1.1" xmlns="http://www.w3.org/2000/svg" p-id="1692" xmlns:xlink="http://www.w3.org/1999/xlink" width="200" height="200"><defs><style type="text/css"></style></defs><path d="M512.25 0C229.89 0 0.993 207.439 0.993 463.327c0 182.984 117.054 341.186 287 416.482v112.237a31.954 31.954 0 0 0 47.893 27.694l162.042-93.27c4.758 0.12 9.531 0.184 14.321 0.184 282.36 0 511.258-207.438 511.258-463.327S794.61 0 512.25 0z m318.598 743.595c-41.069 37.22-89.001 66.482-142.468 86.976-48.174 18.465-99.01 29.052-151.44 31.577-8.193 0.394-16.424 0.6-24.69 0.6-10.111 0-20.17-0.303-30.17-0.894l-90.15 51.89-40.03 23.042V841.252c0-1.732-0.143-3.432-0.408-5.09a479.856 479.856 0 0 1-15.373-5.592 474.015 474.015 0 0 1-35.045-15.098c-39.522-18.922-75.547-42.992-107.422-71.878-40.618-36.81-72.437-79.521-94.572-126.947-22.68-48.595-34.18-100.18-34.18-153.32s11.5-104.724 34.18-153.32c22.135-47.426 53.953-90.137 94.572-126.948 41.07-37.219 89.002-66.481 142.468-86.976 55.701-21.35 114.96-32.176 176.13-32.176s120.43 10.826 176.131 32.177c53.466 20.495 101.4 49.757 142.468 86.976 40.619 36.81 72.437 79.522 94.572 126.948 22.68 48.595 34.18 100.18 34.18 153.32s-11.5 104.724-34.18 153.32c-22.136 47.425-53.954 90.137-94.573 126.947z" p-id="1693" fill="#ffffff"></path><path d="M224.168 448.773a64 64 0 1 0 127.815 0 64 64 0 1 0-127.815 0zM447.802 448.835a64 64 0 1 0 127.814 0 64 64 0 1 0-127.814 0zM671.519 448.835a64 64 0 1 0 127.814 0 64 64 0 1 0-127.814 0z" p-id="1694" fill="#ffffff"></path></svg>