<?xml version="1.0" encoding="UTF-8"?>
<svg width="153px" height="37px" viewBox="0 0 153 37" version="1.1" xmlns="http://www.w3.org/2000/svg" xmlns:xlink="http://www.w3.org/1999/xlink">
    <!-- Generator: Sketch 46.1 (44463) - http://www.bohemiancoding.com/sketch -->
    <title>纯粹味道</title>
    <desc>Created with Sketch.</desc>
    <defs></defs>
    <g id="Page-1" stroke="none" stroke-width="1" fill="none" fill-rule="evenodd">
        <g id="eat首页" transform="translate(-297.000000, -1686.000000)" fill="#444444">
            <g id="纯粹味道" transform="translate(296.000000, 1685.000000)">
                <path d="M70.6445312,36.5625 L69.9023438,36.1914062 C69.6549467,35.8945298 69.5188803,35.5481791 69.4941406,35.1523438 C69.4694009,34.7565084 69.4322919,34.3606791 69.3828125,33.9648438 L69.3828125,30.4023438 L69.1601562,28.0273438 L69.0859375,27.953125 L64.78125,27.953125 C64.5833323,28.0520838 64.3854177,28.1139322 64.1875,28.1386719 C63.9895823,28.1634116 63.7669283,28.1757812 63.5195312,28.1757812 L62.7773438,27.8046875 L62.5546875,27.4335938 C62.3567698,27.6315114 62.1464855,27.7428384 61.9238281,27.7675781 C61.7011708,27.7923178 61.4661471,27.8046875 61.21875,27.8046875 C60.2291617,27.3593728 59.2766973,26.8151074 58.3613281,26.171875 C57.445959,25.5286426 56.5182339,24.9101592 55.578125,24.3164062 L55.5039062,24.390625 L55.5039062,30.328125 L55.4296875,30.4023438 L55.4296875,33.59375 L55.28125,34.1875 C55.2317706,34.3854177 55.1328132,34.558593 54.984375,34.7070312 C54.7864573,34.8554695 54.576173,34.9667965 54.3535156,35.0410156 C54.1308583,35.1152347 53.8958346,35.1276044 53.6484375,35.078125 L52.90625,34.7070312 C52.8072912,34.558593 52.7207035,34.3977873 52.6464844,34.2246094 C52.5722653,34.0514314 52.5104169,33.8658864 52.4609375,33.6679688 L52.5351562,33.59375 L52.5351562,30.4023438 L52.609375,30.328125 L52.609375,25.0585938 L52.5351562,24.984375 C51.7434856,25.7265662 51.0507842,26.555334 50.4570312,27.4707031 C49.8632783,28.3860723 49.3190129,29.289058 48.8242188,30.1796875 C48.6263011,30.3281257 48.4160167,30.4394528 48.1933594,30.5136719 C47.970702,30.587891 47.7356783,30.6002607 47.4882812,30.5507812 L46.7460938,30.1796875 C46.5976555,29.9817698 46.4863285,29.7714855 46.4121094,29.5488281 C46.3378903,29.3261708 46.3255206,29.0664077 46.375,28.7695312 C47.0677118,27.2356694 47.9459582,25.8502666 49.0097656,24.6132812 C50.073573,23.3762959 51.1744735,22.1640684 52.3125,20.9765625 L52.609375,20.7539062 L52.609375,19.7890625 L47.0429688,19.7890625 C46.7460923,19.6901037 46.4615899,19.6158857 46.1894531,19.5664062 C45.9173163,19.5169268 45.6575533,19.3932302 45.4101562,19.1953125 C45.261718,18.9973948 45.150391,18.7871105 45.0761719,18.5644531 C45.0019528,18.3417958 44.9895831,18.1067721 45.0390625,17.859375 L45.4101562,17.1171875 C45.6080739,16.9687493 45.8183583,16.8574222 46.0410156,16.7832031 C46.263673,16.708984 46.523436,16.6966143 46.8203125,16.7460938 C47.2656272,16.8450526 47.7356746,16.8945312 48.2304688,16.8945312 L49.7148438,16.8945312 L49.7890625,16.8203125 L49.046875,16.4492188 C48.3046838,15.162754 47.7480487,13.7897208 47.3769531,12.3300781 C47.0058575,10.8704354 46.6966158,9.42318426 46.4492188,7.98828125 L46.8203125,7.24609375 C47.0182302,7.09765551 47.2285145,6.9863285 47.4511719,6.91210938 C47.6738292,6.83789025 47.9088529,6.82552059 48.15625,6.875 L48.8984375,7.24609375 C49.3932316,8.63151734 49.82617,10.0416595 50.1972656,11.4765625 C50.5683612,12.9114655 51.0012996,14.3216077 51.4960938,15.7070312 L51.125,16.4492188 L50.3828125,16.8203125 L52.6835938,16.8945312 L52.6835938,12.8125 C52.832032,11.97135 52.9186197,11.1178429 52.9433594,10.2519531 C52.9680991,9.38606338 53.1536441,8.58203496 53.5,7.83984375 C53.6979177,7.69140551 53.908202,7.5800785 54.1308594,7.50585938 C54.3535167,7.43164025 54.5885404,7.41927059 54.8359375,7.46875 L55.578125,7.83984375 C55.7760427,8.08724082 55.8873697,8.38411285 55.9121094,8.73046875 C55.9368491,9.07682465 55.9492188,9.42317535 55.9492188,9.76953125 L55.578125,13.3320312 L55.6523438,13.40625 C56.1966173,12.6640588 56.7779917,11.909509 57.3964844,11.1425781 C58.0149771,10.3756472 58.6458301,9.6458368 59.2890625,8.953125 C59.4869802,8.80468676 59.6972645,8.69335975 59.9199219,8.61914062 C60.1425792,8.5449215 60.3776029,8.53255184 60.625,8.58203125 L61.3671875,8.953125 L61.8867188,9.47265625 L61.9609375,9.3984375 L68.7148438,9.3984375 L68.7148438,8.953125 L68.640625,8.87890625 L68.9375,3.53515625 L68.8632812,3.4609375 C68.9127607,3.26301984 68.974609,3.07747482 69.0488281,2.90429688 C69.1230472,2.73111893 69.2096349,2.57031324 69.3085938,2.421875 C69.5065114,2.27343676 69.7167958,2.16210975 69.9394531,2.08789062 C70.1621105,2.0136715 70.3971342,2.00130184 70.6445312,2.05078125 L71.3867188,2.421875 C71.6341158,2.7682309 71.7701822,3.17642994 71.7949219,3.64648438 C71.8196616,4.11653881 71.8320312,4.59895586 71.8320312,5.09375 C71.7330724,5.68750297 71.6712241,6.30598637 71.6464844,6.94921875 C71.6217447,7.59245113 71.5846357,8.23567387 71.5351562,8.87890625 L71.609375,9.3984375 L74.578125,9.3984375 C75.1223986,9.49739633 75.7037729,9.52213566 76.3222656,9.47265625 C76.9407583,9.42317684 77.4973934,9.54687352 77.9921875,9.84375 C78.1406257,10.0416677 78.2519528,10.251952 78.3261719,10.4746094 C78.400391,10.6972667 78.4127607,10.9322904 78.3632812,11.1796875 L77.9921875,11.921875 C77.695311,12.1692721 77.36133,12.3053384 76.9902344,12.3300781 C76.6191388,12.3548178 76.2356791,12.3919268 75.8398438,12.4414062 L76.2109375,12.6640625 C76.3593757,12.8619802 76.4707028,13.0722645 76.5449219,13.2949219 C76.619141,13.5175792 76.6315107,13.7526029 76.5820312,14 C76.2851548,14.4947941 75.9635434,14.9895809 75.6171875,15.484375 C75.2708316,15.9791691 74.9739596,16.4986952 74.7265625,17.0429688 L74.875,17.0429688 L76.2851562,18.75 L78.140625,20.0859375 C78.2890632,20.2343757 78.3756509,20.4075511 78.4003906,20.6054688 C78.4251303,20.8033864 78.4375,21.0260404 78.4375,21.2734375 L78.0664062,22.015625 C77.8684886,22.1640632 77.6582042,22.2753903 77.4355469,22.3496094 C77.2128895,22.4238285 76.9778658,22.4361982 76.7304688,22.3867188 C76.285154,22.1888011 75.8645853,21.9290381 75.46875,21.6074219 C75.0729147,21.2858057 74.6770853,21.0013033 74.28125,20.7539062 L73.2421875,19.7148438 C72.9947904,20.3085967 72.7968757,20.9147104 72.6484375,21.5332031 C72.4999993,22.1516958 72.2773452,22.7330702 71.9804688,23.2773438 L71.8320312,23.2773438 L71.8320312,23.4257812 L72.0546875,23.5742188 C72.2031257,23.7721364 72.3144528,23.9947904 72.3886719,24.2421875 C72.462891,24.4895846 72.4752607,24.7617173 72.4257812,25.0585938 L76.5820312,25.0585938 C76.8789077,25.1575526 77.1634101,25.2317706 77.4355469,25.28125 C77.7076837,25.3307294 77.9674467,25.4544261 78.2148438,25.6523438 C78.363282,25.8502614 78.474609,26.0605458 78.5488281,26.2832031 C78.6230472,26.5058605 78.6354169,26.7408842 78.5859375,26.9882812 L78.2148438,27.7304688 C78.0169261,27.878907 77.8066417,27.990234 77.5839844,28.0644531 C77.361327,28.1386722 77.101564,28.1510419 76.8046875,28.1015625 L76.359375,27.953125 L72.1289062,27.953125 L72.0546875,28.0273438 L72.2773438,30.4023438 L72.2773438,33.9648438 L72.3515625,35.4492188 L71.9804688,36.1914062 C71.7825511,36.3398445 71.5722667,36.4511715 71.3496094,36.5253906 C71.126952,36.5996097 70.8919283,36.6119794 70.6445312,36.5625 Z M62.9257812,25.6523438 C63.1236989,25.4544261 63.3587226,25.3307294 63.6308594,25.28125 C63.9029962,25.2317706 64.1627592,25.1575526 64.4101562,25.0585938 L69.3085938,25.0585938 C69.4075526,24.8111967 69.4941403,24.5514337 69.5683594,24.2792969 C69.6425785,24.0071601 69.7786448,23.7721364 69.9765625,23.5742188 L70.125,23.5742188 L70.125,23.4257812 L69.9023438,23.2773438 C69.7539055,23.1289055 69.6549482,22.9433605 69.6054688,22.7207031 C69.5559893,22.4980458 69.5065107,22.2877614 69.4570312,22.0898438 C69.8528666,20.3580643 70.4589803,18.7005288 71.2753906,17.1171875 C72.091801,15.5338462 73.0442654,14.0494861 74.1328125,12.6640625 L74.578125,12.3671875 L74.5039062,12.2929688 L62.2578125,12.2929688 C62.0598948,12.2434893 61.8743498,12.181641 61.7011719,12.1074219 C61.5279939,12.0332028 61.3671882,11.9466151 61.21875,11.8476562 L61.0703125,11.4765625 L60.921875,11.4765625 C60.2786426,12.1692743 59.6725289,12.8743454 59.1035156,13.5917969 C58.5345024,14.3092484 57.953128,14.9895801 57.359375,15.6328125 L56.46875,15.7070312 L55.7265625,15.3359375 L55.6523438,15.1875 L55.578125,16.96875 C56.5677133,17.0677088 57.5572867,17.1295572 58.546875,17.1542969 C59.5364633,17.1790366 60.5012974,17.3398423 61.4414062,17.6367188 L61.8125,18.3046875 C62.2578147,17.414058 62.7154924,16.5358116 63.1855469,15.6699219 C63.6556013,14.8040321 64.1627577,13.950525 64.7070312,13.109375 C64.9544283,12.9114573 65.2513004,12.775391 65.5976562,12.7011719 C65.9440121,12.6269528 66.2903629,12.6145831 66.6367188,12.6640625 L67.3789062,13.0351562 C67.5273445,13.2330739 67.6386715,13.4433583 67.7128906,13.6660156 C67.7871097,13.888673 67.7994794,14.1236967 67.75,14.3710938 L67.3789062,15.1132812 L66.6367188,15.484375 L65.7460938,17.0429688 L66.0429688,17.265625 C66.4388041,17.9088574 66.9706998,18.5273408 67.6386719,19.1210938 C68.306644,19.7148467 68.6653643,20.4075481 68.7148438,21.1992188 L68.34375,21.9414062 C68.1458323,22.0898445 67.935548,22.2011715 67.7128906,22.2753906 C67.4902333,22.3496097 67.2552096,22.3619794 67.0078125,22.3125 L66.265625,21.9414062 L64.2617188,19.8632812 C64.0638011,20.4570342 63.8535167,21.0507783 63.6308594,21.6445312 C63.408202,22.2382842 63.1731783,22.8320283 62.9257812,23.4257812 C62.7278636,23.5742195 62.5175792,23.6855465 62.2949219,23.7597656 C62.0722645,23.8339847 61.8372408,23.8463544 61.5898438,23.796875 L60.8476562,23.4257812 C60.699218,23.2278636 60.587891,23.0052096 60.5136719,22.7578125 C60.4394528,22.5104154 60.4023438,22.2630221 60.4023438,22.015625 L61.0703125,20.1601562 L60.7734375,20.0859375 L59.2890625,20.1601562 L55.5039062,19.8632812 L55.5039062,20.3085938 L55.7265625,20.4570312 C56.6666714,21.4960989 57.7428325,22.386715 58.9550781,23.1289062 C60.1673238,23.8710975 61.3919209,24.6132775 62.6289062,25.3554688 L62.8515625,25.7265625 L62.9257812,25.6523438 Z M105.527344,34.2617188 L104.785156,33.890625 C104.339842,32.455722 104.117188,30.9589922 104.117188,29.4003906 C104.117188,27.8417891 104.067709,26.2955806 103.96875,24.7617188 L104.042969,23.8710938 L103.96875,23.796875 C102.880203,25.1328192 101.841151,26.5058523 100.851562,27.9160156 C99.8619742,29.3261789 98.9218795,30.7734301 98.03125,32.2578125 C97.8333323,32.4062507 97.623048,32.5175778 97.4003906,32.5917969 C97.1777333,32.666016 96.9427096,32.6783857 96.6953125,32.6289062 L95.953125,32.2578125 C95.8046868,32.0598948 95.6933597,31.8496105 95.6191406,31.6269531 C95.5449215,31.4042958 95.5325518,31.1445327 95.5820312,30.8476562 C96.7695372,28.8190003 98.0559827,26.8645927 99.4414062,24.984375 C100.82683,23.1041573 102.286451,21.2734464 103.820312,19.4921875 L104.265625,19.2695312 L104.265625,18.3789062 L103.894531,18.3046875 L100.109375,18.3046875 C99.9114573,18.2552081 99.7259123,18.1933597 99.5527344,18.1191406 C99.3795564,18.0449215 99.2187507,17.9583338 99.0703125,17.859375 C98.9218743,17.6614573 98.8105472,17.451173 98.7363281,17.2285156 C98.662109,17.0058583 98.6497393,16.7708346 98.6992188,16.5234375 L99.0703125,15.78125 L99.8125,15.4101562 L103.894531,15.4101562 L104.5625,15.484375 L104.933594,12.21875 C103.894526,12.1197912 102.855474,12.0084642 101.816406,11.8847656 C100.777339,11.7610671 99.7630258,11.5260434 98.7734375,11.1796875 C98.6249993,10.9817698 98.5136722,10.7714855 98.4394531,10.5488281 C98.365234,10.3261708 98.3528643,10.0911471 98.4023438,9.84375 L98.7734375,9.1015625 C98.9713552,8.90364484 99.2187485,8.79231783 99.515625,8.76757812 C99.8125015,8.74283842 100.109374,8.73046875 100.40625,8.73046875 C101.148441,8.87890699 101.915361,9.00260367 102.707031,9.1015625 L105.082031,9.3984375 C105.18099,8.75520512 105.255208,8.07487338 105.304688,7.35742188 C105.354167,6.63997037 105.60156,6.0091173 106.046875,5.46484375 C106.244793,5.31640551 106.455077,5.2050785 106.677734,5.13085938 C106.900392,5.05664025 107.135415,5.04427059 107.382812,5.09375 L108.125,5.46484375 C108.273438,5.66276141 108.384765,5.87304576 108.458984,6.09570312 C108.533203,6.31836049 108.545573,6.57812352 108.496094,6.875 C108.298176,7.27083531 108.186849,7.71614336 108.162109,8.2109375 C108.13737,8.70573164 108.100261,9.20051836 108.050781,9.6953125 C108.743493,9.79427133 109.460934,9.85611967 110.203125,9.88085938 C110.945316,9.90559908 111.613278,10.0664048 112.207031,10.3632812 C112.355469,10.5611989 112.466797,10.7714833 112.541016,10.9941406 C112.615235,11.216798 112.627604,11.4518217 112.578125,11.6992188 L112.207031,12.4414062 C111.959634,12.6393239 111.687501,12.7506509 111.390625,12.7753906 C111.093749,12.8001303 110.772137,12.8125 110.425781,12.8125 L107.753906,12.5898438 L107.457031,15.7070312 C108.644537,15.8554695 109.832025,15.9296875 111.019531,15.9296875 C112.207037,15.9296875 113.369786,16.1028629 114.507812,16.4492188 C114.656251,16.6471364 114.767578,16.8574208 114.841797,17.0800781 C114.916016,17.3027355 114.928386,17.5377592 114.878906,17.7851562 L114.507812,18.5273438 C114.309895,18.675782 114.09961,18.7747393 113.876953,18.8242188 C113.654296,18.8736982 113.419272,18.9231768 113.171875,18.9726562 L107.457031,18.6015625 L107.382812,18.6757812 L107.753906,18.8984375 C108.891933,21.1250111 110.252596,23.2402244 111.835938,25.2441406 C113.419279,27.2480569 115.027336,29.2148341 116.660156,31.1445312 L117.699219,31.8867188 C117.847657,32.035157 117.934245,32.2083323 117.958984,32.40625 C117.983724,32.6041677 117.996094,32.8268217 117.996094,33.0742188 L117.625,33.8164062 C117.427082,33.9648445 117.216798,34.0761715 116.994141,34.1503906 C116.771483,34.2246097 116.53646,34.2369794 116.289062,34.1875 L114.65625,33.1484375 C113.320306,31.5650962 111.996751,29.9817788 110.685547,28.3984375 C109.374342,26.8150962 108.149745,25.1575607 107.011719,23.4257812 L106.863281,24.7617188 L107.011719,28.9179688 C107.061198,30.3033923 107.160156,31.6887952 107.308594,33.0742188 L106.863281,33.890625 C106.665364,34.0390632 106.455079,34.1503903 106.232422,34.2246094 C106.009765,34.2988285 105.774741,34.3111982 105.527344,34.2617188 Z M94.3945312,24.390625 L93.578125,24.0195312 L93.5039062,24.09375 L89.125,24.09375 L85.859375,24.3164062 L85.1171875,23.9453125 C84.9687493,23.7473948 84.8574222,23.5371105 84.7832031,23.3144531 C84.708984,23.0917958 84.6966143,22.8567721 84.7460938,22.609375 C85.0924496,20.9270749 85.2532553,19.2076911 85.2285156,17.4511719 C85.2037759,15.6946527 85.4635389,14.0000082 86.0078125,12.3671875 C86.2057302,12.2187493 86.4160145,12.1074222 86.6386719,12.0332031 C86.8613292,11.958984 87.0963529,11.9466143 87.34375,11.9960937 L88.0859375,12.3671875 L88.3085938,12.6640625 C89.5950585,12.6145831 90.881504,12.6516921 92.1679688,12.7753906 C93.4544335,12.8990892 94.6914003,13.1341129 95.8789062,13.4804687 C96.0273445,13.6783864 96.1386715,13.8886708 96.2128906,14.1113281 C96.2871097,14.3339855 96.2994794,14.5690092 96.25,14.8164062 C96.0520823,15.4596386 95.953125,16.1276007 95.953125,16.8203125 C95.953125,17.5130243 95.9036463,18.2057257 95.8046875,18.8984375 L96.1015625,23.2773437 L95.7304688,24.0195312 C95.5325511,24.1679695 95.3222667,24.2792965 95.0996094,24.3535156 C94.876952,24.4277347 94.6419283,24.4401044 94.3945312,24.390625 Z M93.0585938,21.1992188 L93.0585938,20.0859375 L92.9101562,18.8984375 L93.0585938,15.8554688 L91.203125,15.5585938 L88.234375,15.5585938 L88.0117188,21.2734375 L89.0507812,21.2734375 L89.125,21.1992188 L93.0585938,21.1992188 Z M146.050781,37.453125 C142.735661,37.0572897 139.420589,36.6243513 136.105469,36.1542969 C132.790348,35.6842424 129.524756,35.02865 126.308594,34.1875 L125.714844,34.3359375 C125.467447,34.2864581 125.207684,34.2246097 124.935547,34.1503906 C124.66341,34.0761715 124.428386,33.9401052 124.230469,33.7421875 C124.082031,33.5442698 123.970703,33.3339855 123.896484,33.1113281 C123.822265,32.8886708 123.809896,32.6536471 123.859375,32.40625 L124.230469,31.6640625 C125.220057,31.5156243 126.184891,31.2806006 127.125,30.9589844 C128.065109,30.6373682 128.881507,30.0807331 129.574219,29.2890625 L129.945312,28.6953125 C129.499998,27.5078066 128.893884,26.3945364 128.126953,25.3554687 C127.360022,24.3164011 127.001302,23.1041736 127.050781,21.71875 C127.14974,21.2734353 127.335285,20.8528666 127.607422,20.4570312 C127.879559,20.0611959 128.139322,19.6653666 128.386719,19.2695312 L128.3125,19.1953125 L124.75,19.1953125 L123.710938,19.34375 L122.96875,18.9726562 C122.820312,18.7747386 122.708985,18.5644542 122.634766,18.3417969 C122.560547,18.1191395 122.548177,17.8841158 122.597656,17.6367187 L122.96875,16.8945312 C123.166668,16.746093 123.376952,16.6223963 123.599609,16.5234375 C123.822267,16.4244787 124.05729,16.3502607 124.304688,16.3007812 L130.761719,16.3007812 L131.800781,16.4492187 C132.147137,16.4986982 132.444009,16.6223948 132.691406,16.8203125 C132.839844,17.0182302 132.951172,17.2285145 133.025391,17.4511719 C133.09961,17.6738292 133.111979,17.9088529 133.0625,18.15625 L132.691406,18.8984375 C132.048174,19.2942728 131.528648,19.7890595 131.132812,20.3828125 C130.736977,20.9765655 130.365887,21.5703095 130.019531,22.1640625 C130.316408,23.4010479 130.885412,24.5637966 131.726562,25.6523437 C132.567713,26.7408909 132.988281,27.9778577 132.988281,29.3632812 C132.790364,29.808596 132.530601,30.216795 132.208984,30.5878906 C131.887368,30.9589862 131.553387,31.3424459 131.207031,31.7382812 L130.6875,32.109375 C133.458347,32.8020868 136.278631,33.3339825 139.148438,33.7050781 C142.018244,34.0761737 144.888006,34.3606761 147.757812,34.5585938 L150.726562,34.2617188 L150.800781,34.1132812 C150.998699,33.964843 151.208983,33.853516 151.431641,33.7792969 C151.654298,33.7050778 151.889322,33.6927081 152.136719,33.7421875 L152.878906,34.1132812 C153.027344,34.3111989 153.151041,34.5338529 153.25,34.78125 C153.348959,35.0286471 153.373698,35.3007798 153.324219,35.5976562 L152.953125,36.3398438 C152.013016,37.0325555 150.924485,37.3665366 149.6875,37.3417969 C148.450515,37.3170572 147.238287,37.3541662 146.050781,37.453125 Z M137.664062,30.8476562 L136.773437,30.4023438 C136.52604,30.0065084 136.365235,29.5735701 136.291016,29.1035156 C136.216797,28.6334612 136.105469,28.1757835 135.957031,27.7304688 L135.957031,22.8320312 C136.154949,20.7538959 136.427082,18.6757916 136.773437,16.5976562 C137.119793,14.5195209 137.886713,12.5898527 139.074219,10.8085938 L138.925781,10.8085938 C138.430987,10.8580732 137.923831,10.8951822 137.404297,10.9199219 C136.884763,10.9446616 136.377607,10.9817706 135.882812,11.03125 L135.140625,10.6601562 C134.992187,10.4622386 134.88086,10.2519542 134.806641,10.0292969 C134.732422,9.80663951 134.720052,9.57161582 134.769531,9.32421875 L135.140625,8.58203125 C135.635419,8.28515477 136.167315,8.09960975 136.736328,8.02539062 C137.305341,7.9511715 137.911455,7.93880184 138.554687,7.98828125 L138.554687,7.0234375 L138.332031,5.01953125 C138.43099,4.52473711 138.517578,4.01758072 138.591797,3.49804688 C138.666016,2.97851303 138.826822,2.49609598 139.074219,2.05078125 C139.272136,1.90234301 139.482421,1.791016 139.705078,1.71679688 C139.927735,1.64257775 140.162759,1.63020809 140.410156,1.6796875 L141.152344,2.05078125 C141.300782,2.24869891 141.412109,2.47135293 141.486328,2.71875 C141.560547,2.96614707 141.572917,3.23827977 141.523437,3.53515625 L141.226562,5.01953125 L141.597656,7.83984375 L145.160156,7.98828125 C145.555992,6.89973414 145.98893,5.8359427 146.458984,4.796875 C146.929039,3.7578073 147.460935,2.74349453 148.054687,1.75390625 C148.252605,1.60546801 148.46289,1.494141 148.685547,1.41992188 C148.908204,1.34570275 149.143228,1.33333309 149.390625,1.3828125 L150.132812,1.75390625 C150.33073,1.95182391 150.454427,2.1868476 150.503906,2.45898438 C150.553386,2.73112115 150.553386,3.01562352 150.503906,3.3125 L150.132812,4.0546875 L149.984375,4.0546875 L148.203125,8.13671875 C148.846357,8.18619816 149.514319,8.23567684 150.207031,8.28515625 C150.899743,8.33463566 151.518226,8.50781102 152.0625,8.8046875 C152.210938,9.00260516 152.322265,9.21288951 152.396484,9.43554688 C152.470703,9.65820424 152.483073,9.89322793 152.433594,10.140625 L152.0625,10.8828125 C151.864582,11.0312507 151.641928,11.1425778 151.394531,11.2167969 C151.147134,11.291016 150.875001,11.3033857 150.578125,11.2539062 C149.390619,11.105468 148.203131,10.994141 147.015625,10.9199219 C145.828119,10.8457028 144.640631,10.8085938 143.453125,10.8085938 L143.304687,11.03125 L141.96875,11.7734375 L140.410156,14.2226562 L142.117187,14.296875 L142.191406,14.2226562 L147.386719,14.2226562 C147.832033,14.2721357 148.289711,14.3216143 148.759766,14.3710938 C149.22982,14.4205732 149.638019,14.5690092 149.984375,14.8164062 C150.330731,15.1627621 150.503906,15.5585915 150.503906,16.0039062 L150.503906,17.4140625 L150.207031,22.90625 C150.355469,23.6979206 150.491536,24.4895794 150.615234,25.28125 C150.738933,26.0729206 150.776042,26.8893187 150.726562,27.7304688 L150.652344,27.8789062 C150.800782,28.0768239 150.924479,28.2871083 151.023437,28.5097656 C151.122396,28.732423 151.147136,28.992186 151.097656,29.2890625 L150.726562,30.03125 L149.835937,30.4765625 C149.539061,30.6250007 149.21745,30.6744794 148.871094,30.625 C148.524738,30.3776029 148.116539,30.2539062 147.646484,30.2539062 C147.17643,30.2539062 146.718752,30.2291669 146.273437,30.1796875 L139.964844,30.1796875 L139.148437,30.328125 L139.074219,30.4765625 C138.876301,30.6250007 138.666017,30.7363278 138.443359,30.8105469 C138.220702,30.884766 137.960939,30.8971357 137.664062,30.8476562 Z M147.832031,27.359375 L147.832031,26.0976562 L147.757812,25.578125 L147.460938,25.578125 L146.570312,25.6523438 C145.729162,25.5533849 144.863286,25.4420579 143.972656,25.3183594 C143.082027,25.1946608 142.166671,25.1328125 141.226562,25.1328125 L138.851562,25.5039062 L138.851562,27.359375 L139.890625,27.359375 L139.964844,27.2851562 L146.273438,27.2851562 L147.832031,27.359375 Z M147.386719,22.8320312 L147.386719,21.5703125 L145.902344,21.3476562 L141.300781,21.3476562 C140.904946,21.3971357 140.509117,21.4342447 140.113281,21.4589844 C139.717446,21.4837241 139.371095,21.5950511 139.074219,21.7929688 L138.925781,22.4609375 L139,22.5351562 C139.593753,22.4361974 140.175127,22.3619794 140.744141,22.3125 C141.313154,22.2630206 141.919268,22.2382812 142.5625,22.2382812 L147.386719,22.8320312 Z M147.460937,18.75 L147.460937,18.5273438 L147.609375,17.1914062 L147.386719,17.1171875 L142.191406,17.1171875 C141.746092,17.1666669 141.276044,17.1790366 140.78125,17.1542969 C140.286456,17.1295572 139.841148,17.2161448 139.445312,17.4140625 L139.371094,18.6015625 L140.1875,18.6015625 L141.300781,18.453125 L145.976562,18.453125 L147.460937,18.75 Z M129.203125,13.9257812 L128.460937,13.5546875 C127.817705,12.6145786 127.372397,11.6126355 127.125,10.5488281 C126.877603,9.48502072 126.679688,8.40885961 126.53125,7.3203125 L126.902344,6.578125 C127.100261,6.42968676 127.310546,6.31835975 127.533203,6.24414062 C127.75586,6.1699215 127.990884,6.15755184 128.238281,6.20703125 L128.980469,6.578125 C129.376304,7.56771328 129.697915,8.60676539 129.945312,9.6953125 C130.19271,10.7838596 130.514321,11.8229117 130.910156,12.8125 L130.539062,13.5546875 C130.341145,13.7031257 130.13086,13.8144528 129.908203,13.8886719 C129.685546,13.962891 129.450522,13.9752607 129.203125,13.9257812 Z" id="粹味道"></path>
                <g id="纯" transform="translate(21.500000, 20.000000) rotate(5.000000) translate(-21.500000, -20.000000) translate(2.000000, 2.000000)">
                    <path d="M4.42029273,6.13659353 C3.61029273,9.16197436 2.60638364,12.1274275 1.35751091,15.0054056 C0.54702,16.8723459 3.33734727,18.4995755 4.15520182,16.6152368 C5.51698364,13.4767667 6.66031091,10.2861015 7.54443818,6.98428011 C8.07658364,4.99796778 4.95243818,4.15028121 4.42029273,6.13659353" id="Fill-1"></path>
                    <path d="M2.02136727,18.4325918 C4.19020364,17.9454378 6.35854909,17.4587671 8.52738545,16.9716132 C10.5592582,16.5153896 9.69918545,13.4392636 7.66584,13.8959704 C5.49749455,14.3831244 3.32865818,14.8697951 1.16031273,15.356949 C-0.872050909,15.8131726 -0.0119781818,18.8892986 2.02136727,18.4325918" id="Fill-3"></path>
                    <path d="M8.79581455,11.5738215 C6.60145091,15.6049239 4.28436,19.5644998 1.84208727,23.4549656 C0.743432727,25.2064001 3.54505091,26.8099486 4.63977818,25.0652801 C7.08205091,21.1743311 9.39914182,17.2152385 11.5930145,13.1836527 C12.5777782,11.374707 9.78205091,9.761976 8.79581455,11.5738215" id="Fill-6"></path>
                    <path d="M3.28604727,26.3086826 C5.69592,25.7031232 8.10579273,25.0975637 10.5166473,24.4920043 C12.5352655,23.9845522 11.6796109,20.9074596 9.65510182,21.4158782 C7.24473818,22.0214377 4.83486545,22.6274804 2.42450182,23.2330399 C0.405883636,23.7404919 1.26153818,26.8175845 3.28604727,26.3086826" id="Fill-8"></path>
                    <path d="M2.66853273,32.9000982 C5.72296909,32.2549092 8.77691455,31.6092368 11.8313509,30.9640478 C13.8686236,30.5334385 13.0070782,27.4577957 10.9698055,27.8879218 L1.80698727,29.8244555 C-0.230285455,30.2550648 0.632241818,33.3307075 2.66853273,32.9000982" id="Fill-10"></path>
                    <path d="M14.33916,11.1922659 C19.8790691,11.402496 25.3252145,10.5538428 30.5209964,8.64872285 C32.4576327,7.93877326 31.6196509,4.85443134 29.6599418,5.57308011 C24.7155055,7.38589216 19.6120145,8.20264833 14.33916,8.00256723 C12.2542691,7.92379134 12.2577055,11.11349 14.33916,11.1922659" id="Fill-12"></path>
                    <path d="M13.3247455,14.0565669 C13.7052,16.9572595 13.8568909,19.8613351 13.7808,22.7852255 C13.7268,24.8382316 16.9668,24.837265 17.0203091,22.7852255 C17.0968909,19.8608518 16.9452,16.9572595 16.5647455,14.0565669 C16.3011273,12.0489899 13.0576909,12.0233757 13.3247455,14.0565669" id="Fill-14"></path>
                    <path d="M15.8219509,24.6065435 C21.4458055,23.2311067 27.06966,21.85567 32.6935145,20.4802333 C34.71606,19.98583 33.8589327,16.9087374 31.8319691,17.4045906 C26.2081145,18.7800273 20.5847509,20.155464 14.9608964,21.5309007 C12.9383509,22.025304 13.7949873,25.1019133 15.8219509,24.6065435" id="Fill-16"></path>
                    <path d="M30.0890035,13.3208771 C30.8990035,16.6391302 31.7094944,19.9573834 32.5194944,23.2756365 C33.0064762,25.270648 36.1320944,24.4258612 35.6436398,22.4279499 L33.2131489,12.4727072 C32.7261671,10.4776957 29.6010398,11.3224825 30.0890035,13.3208771" id="Fill-18"></path>
                    <path d="M19.99134,1.5198914 C21.2254855,11.9274914 21.5666673,22.4713785 21.1896491,32.9403561 C21.1160127,34.9933621 24.3565036,34.9904624 24.43014,32.9403561 C24.8066673,22.4713785 24.4654855,11.9274914 23.23134,1.5198914 C22.9922673,-0.494451616 19.7493218,-0.518616 19.99134,1.5198914" id="Fill-20"></path>
                    <path d="M23.2665873,35.0703981 C27.8722964,33.9830009 32.5138418,33.3547269 37.2471873,33.1802601 C39.3256964,33.1034173 39.3355145,29.9137187 37.2471873,29.9905614 C32.2354964,30.1751773 27.2817327,30.8430809 22.4050418,31.9947554 C20.3780782,32.4732102 21.2361873,35.5498195 23.2665873,35.0703981" id="Fill-22"></path>
                </g>
            </g>
        </g>
    </g>
</svg>